SplineFontDB: 1.0
FontName: THKrub-BoldItalic
FullName: THKrub-BoldItalic
FamilyName: TH Krub
Weight: Bold
Copyright: Copyright (c) 2006 by Department of Intellectual Property (DIP), Ministry of Commerce and Software Industry Promotion Agency (Public Organization) (SIPA). All rights reserved.
Version: 1.1
ItalicAngle: -12
UnderlinePosition: -58
UnderlineWidth: 35
Ascent: 800
Descent: 200
Order2: 1
XUID: [1021 375 425136265 11733929]
FSType: 0
OS2Version: 3
OS2_WeightWidthSlopeOnly: 0
OS2_UseTypoMetrics: 1
CreationTime: 1157677620
ModificationTime: 1174462312
PfmFamily: 17
TTFWeight: 700
TTFWidth: 5
LineGap: 21
VLineGap: 0
Panose: 2 0 5 6 4 0 0 2 0 4
OS2TypoAscent: 0
OS2TypoAOffset: 1
OS2TypoDescent: 0
OS2TypoDOffset: 1
OS2TypoLinegap: 0
OS2WinAscent: -83
OS2WinAOffset: 1
OS2WinDescent: -208
OS2WinDOffset: 1
HheadAscent: -5
HheadAOffset: 1
HheadDescent: 170
HheadDOffset: 1
OS2SubXSize: 700
OS2SubYSize: 650
OS2SubXOff: 0
OS2SubYOff: 140
OS2SupXSize: 700
OS2SupYSize: 650
OS2SupXOff: 0
OS2SupYOff: 477
OS2StrikeYSize: 50
OS2StrikeYPos: 250
OS2FamilyClass: 2053
OS2Vendor: 'b513'
ScriptLang: 2
 1 latn 1 dflt 
 0 
ChainSub: coverage 0 0 'liga' 0 0 0 1
 1 1 0
  Coverage: 7 uni0E47
  BCoverage: 12 uni0E2C.alt1
 1
  SeqLookup: 0 'L031'
EndFPST
ChainSub: coverage 0 0 'liga' 0 0 0 1
 1 0 1
  Coverage: 7 uni0E2C
  FCoverage: 39 uni0E34 uni0E35 uni0E36 uni0E37 uni0E47
 1
  SeqLookup: 0 'L031'
EndFPST
ChainSub: coverage 0 0 'liga' 0 0 0 1
 1 0 1
  Coverage: 15 uni0E0E uni0E0F
  FCoverage: 38 uni0E38.alt1 uni0E39.alt1 uni0E3A.alt1
 1
  SeqLookup: 0 'L031'
EndFPST
ChainSub: coverage 0 0 'liga' 0 0 0 1
 1 1 0
  Coverage: 5 a b c
  BCoverage: 23 uni0E1B uni0E1D uni0E1F
 1
  SeqLookup: 0 'L031'
EndFPST
ChainSub: coverage 0 0 'liga' 0 0 0 1
 1 0 1
  Coverage: 5 a b c
  FCoverage: 64 uni0E48.alt1 uni0E49.alt1 uni0E4A.alt1 uni0E4B.alt1 uni0E4C.alt1
 1
  SeqLookup: 0 'L031'
EndFPST
ChainSub: coverage 0 0 'liga' 0 0 0 1
 1 1 0

StartChar: exclam
Encoding: 33 33 2
Width: 191
Flags: W
Fore
242 486 m 1,0,-1
 157 153 l 1,1,-1
 98 153 l 1,2,-1
 155 486 l 1,3,-1
 242 486 l 1,0,-1
52 0 m 1,4,-1
 68 79 l 1,5,-1
 155 79 l 1,6,-1
 139 0 l 1,7,-1
 52 0 l 1,4,-1
EndSplineSet
EndChar
StartChar: quotedbl
Encoding: 34 34 3
Width: 225
Flags: W
Fore
143 512 m 1,0,-1
 198 512 l 1,1,-1
 164 351 l 1,2,-1
 109 351 l 1,3,-1
 143 512 l 1,0,-1
243 512 m 1,4,-1
 298 512 l 1,5,-1
 264 351 l 1,6,-1
 209 351 l 1,7,-1
 243 512 l 1,4,-1
EndSplineSet
EndChar
StartChar: numbersign
Encoding: 35 35 4
Width: 360
Flags: W
Fore
356 143 m 1,0,-1
 292 143 l 1,1,-1
 240 0 l 1,2,-1
 188 0 l 1,3,-1
 240 143 l 1,4,-1
 165 143 l 1,5,-1
 113 0 l 1,6,-1
 61 0 l 1,7,-1
 113 143 l 1,8,-1
 47 143 l 1,9,-1
 56 184 l 1,10,-1
 126 184 l 1,11,-1
 160 275 l 1,12,-1
 93 275 l 1,13,-1
 102 316 l 1,14,-1
 172 316 l 1,15,-1
 226 468 l 1,16,-1
 279 468 l 1,17,-1
 225 316 l 1,18,-1
 300 316 l 1,19,-1
 353 468 l 1,20,-1
 406 468 l 1,21,-1
 353 316 l 1,22,-1
 411 316 l 1,23,-1
 402 275 l 1,24,-1
 338 275 l 1,25,-1
 305 184 l 1,26,-1
 365 184 l 1,27,-1
 356 143 l 1,0,-1
211 275 m 1,28,-1
 178 184 l 1,29,-1
 253 184 l 1,30,-1
 287 275 l 1,31,-1
 211 275 l 1,28,-1
EndSplineSet
EndChar
StartChar: dollar
Encoding: 36 36 5
Width: 423
Flags: W
Fore
313 562 m 1,0,-1
 349 562 l 1,1,-1
 333 489 l 1,2,3
 359 488 359 488 380.5 479.5 c 128,-1,4
 402 471 402 471 418 458 c 128,-1,5
 434 445 434 445 444 429.5 c 128,-1,6
 454 414 454 414 458 399 c 1,7,8
 457 399 457 399 450 393.5 c 128,-1,9
 443 388 443 388 434 381.5 c 128,-1,10
 425 375 425 375 417.5 369.5 c 128,-1,11
 410 364 410 364 408 363 c 1,12,13
 397 396 397 396 378.5 416 c 128,-1,14
 360 436 360 436 323 441 c 1,15,-1
 287 272 l 1,16,17
 314 264 314 264 341 253.5 c 128,-1,18
 368 243 368 243 388 226 c 128,-1,19
 408 209 408 209 418 184 c 128,-1,20
 428 159 428 159 420 123 c 0,21,22
 413 88 413 88 394 64.5 c 128,-1,23
 375 41 375 41 349.5 27 c 128,-1,24
 324 13 324 13 293 6.5 c 128,-1,25
 262 0 262 0 230 0 c 1,26,-1
 210 -90 l 1,27,-1
 174 -90 l 1,28,-1
 194 0 l 1,29,30
 138 2 138 2 98.5 31 c 128,-1,31
 59 60 59 60 45 111 c 1,32,-1
 99 146 l 1,33,34
 104 126 104 126 111.5 107.5 c 128,-1,35
 119 89 119 89 131.5 75.5 c 128,-1,36
 144 62 144 62 161.5 54 c 128,-1,37
 179 46 179 46 203 46 c 1,38,-1
 242 227 l 1,39,40
 216 235 216 235 191 245 c 128,-1,41
 166 255 166 255 147.5 270 c 128,-1,42
 129 285 129 285 120.5 308 c 128,-1,43
 112 331 112 331 119 364 c 0,44,45
 126 399 126 399 142.5 422.5 c 128,-1,46
 159 446 159 446 182.5 460.5 c 128,-1,47
 206 475 206 475 235.5 481.5 c 128,-1,48
 265 488 265 488 297 489 c 1,49,-1
 313 562 l 1,0,-1
287 442 m 1,50,51
 242 442 242 442 215.5 424 c 128,-1,52
 189 406 189 406 181 367 c 0,53,54
 177 346 177 346 180.5 332 c 128,-1,55
 184 318 184 318 193.5 309 c 128,-1,56
 203 300 203 300 219 294 c 128,-1,57
 235 288 235 288 254 283 c 1,58,-1
 287 442 l 1,50,51
239 46 m 1,59,60
 287 47 287 47 319 66.5 c 128,-1,61
 351 86 351 86 359 125 c 0,62,63
 364 150 364 150 359 165 c 128,-1,64
 354 180 354 180 342 189.5 c 128,-1,65
 330 199 330 199 312.5 205 c 128,-1,66
 295 211 295 211 276 218 c 1,67,-1
 239 46 l 1,59,60
EndSplineSet
EndChar
StartChar: percent
Encoding: 37 37 6
Width: 597
Flags: W
Fore
267 486 m 0,0,1
 290 486 290 486 308.5 477 c 128,-1,2
 327 468 327 468 338.5 453 c 128,-1,3
 350 438 350 438 354.5 418 c 128,-1,4
 359 398 359 398 354 375 c 256,5,6
 349 352 349 352 336 332 c 128,-1,7
 323 312 323 312 305 297 c 128,-1,8
 287 282 287 282 265 273.5 c 128,-1,9
 243 265 243 265 220 265 c 0,10,11
 198 265 198 265 179.5 273.5 c 128,-1,12
 161 282 161 282 149.5 297 c 128,-1,13
 138 312 138 312 133.5 332 c 128,-1,14
 129 352 129 352 134 375 c 256,15,16
 139 398 139 398 152 418 c 128,-1,17
 165 438 165 438 183 453 c 128,-1,18
 201 468 201 468 223 477 c 128,-1,19
 245 486 245 486 267 486 c 0,0,1
257 438 m 0,20,21
 231 438 231 438 208.5 420 c 128,-1,22
 186 402 186 402 181 375 c 0,23,24
 175 349 175 349 189.5 330.5 c 128,-1,25
 204 312 204 312 230 312 c 0,26,27
 257 312 257 312 279.5 330.5 c 128,-1,28
 302 349 302 349 307 375 c 0,29,30
 313 402 313 402 298.5 420 c 128,-1,31
 284 438 284 438 257 438 c 0,20,21
477 220 m 0,32,33
 500 220 500 220 518.5 211.5 c 128,-1,34
 537 203 537 203 549 188 c 128,-1,35
 561 173 561 173 565.5 153 c 128,-1,36
 570 133 570 133 565 110 c 0,37,38
 560 88 560 88 547 68 c 128,-1,39
 534 48 534 48 516 33 c 128,-1,40
 498 18 498 18 476 9 c 128,-1,41
 454 0 454 0 431 0 c 0,42,43
 409 0 409 0 390.5 9 c 128,-1,44
 372 18 372 18 360 33 c 128,-1,45
 348 48 348 48 343.5 68 c 128,-1,46
 339 88 339 88 344 110 c 0,47,48
 349 133 349 133 362 153 c 128,-1,49
 375 173 375 173 393 188 c 128,-1,50
 411 203 411 203 433 211.5 c 128,-1,51
 455 220 455 220 477 220 c 0,32,33
467 174 m 0,52,53
 441 174 441 174 419 155 c 128,-1,54
 397 136 397 136 392 110 c 0,55,56
 385 84 385 84 399.5 65.5 c 128,-1,57
 414 47 414 47 440 47 c 0,58,59
 467 47 467 47 490 65.5 c 128,-1,60
 513 84 513 84 518 110 c 0,61,62
 524 136 524 136 509 155 c 128,-1,63
 494 174 494 174 467 174 c 0,52,53
188 -7 m 1,64,-1
 137 -7 l 1,65,-1
 511 493 l 1,66,-1
 563 493 l 1,67,-1
 188 -7 l 1,64,-1
EndSplineSet
EndChar
StartChar: ampersand
Encoding: 38 38 7
Width: 477
Flags: W
Fore
300 84 m 1,0,1
 290 96 290 96 279 114 c 128,-1,2
 268 132 268 132 257 152.5 c 128,-1,3
 246 173 246 173 236.5 193.5 c 128,-1,4
 227 214 227 214 220 231 c 1,5,6
 175 208 175 208 148 183 c 128,-1,7
 121 158 121 158 112 116 c 0,8,9
 104 81 104 81 126 62.5 c 128,-1,10
 148 44 148 44 186 44 c 0,11,12
 229 44 229 44 257.5 57.5 c 128,-1,13
 286 71 286 71 300 84 c 1,0,1
251 301 m 1,14,15
 285 319 285 319 303 342 c 128,-1,16
 321 365 321 365 326 390 c 0,17,18
 328 398 328 398 328 406.5 c 128,-1,19
 328 415 328 415 325 423 c 128,-1,20
 322 431 322 431 314.5 436 c 128,-1,21
 307 441 307 441 293 441 c 0,22,23
 269 441 269 441 256 424.5 c 128,-1,24
 243 408 243 408 238 386 c 0,25,26
 233 363 233 363 237 342 c 128,-1,27
 241 321 241 321 251 301 c 1,14,15
450 220 m 1,28,29
 440 182 440 182 419 145.5 c 128,-1,30
 398 109 398 109 369 77 c 1,31,32
 386 63 386 63 403 54.5 c 128,-1,33
 420 46 420 46 446 44 c 1,34,-1
 425 -7 l 1,35,36
 392 -5 392 -5 369 9 c 128,-1,37
 346 23 346 23 326 46 c 1,38,39
 294 20 294 20 253 6.5 c 128,-1,40
 212 -7 212 -7 173 -7 c 0,41,42
 145 -7 145 -7 120 1 c 128,-1,43
 95 9 95 9 78 24.5 c 128,-1,44
 61 40 61 40 53.5 64 c 128,-1,45
 46 88 46 88 53 119 c 0,46,47
 63 165 63 165 96.5 202 c 128,-1,48
 130 239 130 239 199 274 c 1,49,50
 188 300 188 300 183.5 330.5 c 128,-1,51
 179 361 179 361 186 391 c 0,52,53
 196 440 196 440 228 466.5 c 128,-1,54
 260 493 260 493 306 493 c 0,55,56
 348 493 348 493 369.5 466.5 c 128,-1,57
 391 440 391 440 381 395 c 0,58,59
 371 346 371 346 342 313.5 c 128,-1,60
 313 281 313 281 271 255 c 1,61,62
 291 215 291 215 305.5 181 c 128,-1,63
 320 147 320 147 344 114 c 1,64,65
 361 134 361 134 377 165 c 128,-1,66
 393 196 393 196 400 228 c 1,67,-1
 450 220 l 1,28,29
EndSplineSet
EndChar
StartChar: quotesingle
Encoding: 39 39 8
Width: 160
Flags: W
Fore
158 512 m 1,0,-1
 218 512 l 1,1,-1
 184 351 l 1,2,-1
 124 351 l 1,3,-1
 158 512 l 1,0,-1
EndSplineSet
EndChar
StartChar: parenleft
Encoding: 40 40 9
Width: 270
Flags: W
Fore
351 593 m 1,0,1
 311 556 311 556 282.5 514.5 c 128,-1,2
 254 473 254 473 234 430.5 c 128,-1,3
 214 388 214 388 201 345.5 c 128,-1,4
 188 303 188 303 180 264 c 0,5,6
 171 224 171 224 166 181.5 c 128,-1,7
 161 139 161 139 163 96.5 c 128,-1,8
 165 54 165 54 176 12 c 128,-1,9
 187 -30 187 -30 210 -67 c 1,10,-1
 132 -67 l 1,11,12
 113 -30 113 -30 104 12 c 128,-1,13
 95 54 95 54 93.5 96.5 c 128,-1,14
 92 139 92 139 97 181.5 c 128,-1,15
 102 224 102 224 111 264 c 0,16,17
 119 303 119 303 132 345.5 c 128,-1,18
 145 388 145 388 164.5 430.5 c 128,-1,19
 184 473 184 473 210.5 514.5 c 128,-1,20
 237 556 237 556 273 593 c 1,21,-1
 351 593 l 1,0,1
EndSplineSet
EndChar
StartChar: parenright
Encoding: 41 41 10
Width: 270
Flags: W
Fore
30 -67 m 1,0,1
 70 -30 70 -30 98.5 12 c 128,-1,2
 127 54 127 54 147.5 96.5 c 128,-1,3
 168 139 168 139 181 181.5 c 128,-1,4
 194 224 194 224 203 264 c 0,5,6
 211 303 211 303 216 345.5 c 128,-1,7
 221 388 221 388 218.5 430.5 c 128,-1,8
 216 473 216 473 205 514.5 c 128,-1,9
 194 556 194 556 171 593 c 1,10,-1
 249 593 l 1,11,12
 269 556 269 556 277.5 514.5 c 128,-1,13
 286 473 286 473 287.5 430.5 c 128,-1,14
 289 388 289 388 284 345.5 c 128,-1,15
 279 303 279 303 271 264 c 0,16,17
 262 224 262 224 249 181.5 c 128,-1,18
 236 139 236 139 216.5 96.5 c 128,-1,19
 197 54 197 54 170.5 12 c 128,-1,20
 144 -30 144 -30 108 -67 c 1,21,-1
 30 -67 l 1,0,1
EndSplineSet
EndChar
StartChar: asterisk
Encoding: 42 42 11
Width: 500
Flags: W
Fore
402 590 m 1,0,-1
 529 641 l 1,1,-1
 536 582 l 1,2,-1
 403 548 l 1,3,-1
 467 452 l 1,4,-1
 407 410 l 1,5,-1
 362 520 l 1,6,-1
 269 410 l 1,7,-1
 225 447 l 1,8,-1
 332 548 l 1,9,-1
 209 578 l 1,10,-1
 244 639 l 1,11,-1
 352 590 l 1,12,-1
 370 722 l 1,13,-1
 438 722 l 1,14,-1
 402 590 l 1,0,-1
EndSplineSet
EndChar
StartChar: plus
Encoding: 43 43 12
Width: 510
Flags: W
Fore
308 400 m 1,0,-1
 372 400 l 1,1,-1
 337 237 l 1,2,-1
 510 237 l 1,3,-1
 498 183 l 1,4,-1
 325 183 l 1,5,-1
 291 20 l 1,6,-1
 227 20 l 1,7,-1
 261 183 l 1,8,-1
 88 183 l 1,9,-1
 100 237 l 1,10,-1
 273 237 l 1,11,-1
 308 400 l 1,0,-1
EndSplineSet
EndChar
StartChar: comma
Encoding: 44 44 13
Width: 214
Flags: W
Fore
167 79 m 1,0,-1
 151 0 l 1,1,-1
 76 -116 l 1,2,-1
 37 -116 l 1,3,-1
 96 0 l 1,4,-1
 63 0 l 1,5,-1
 79 79 l 1,6,-1
 167 79 l 1,0,-1
EndSplineSet
EndChar
StartChar: hyphen
Encoding: 45 45 14
Width: 333
Flags: W
Fore
85 203 m 1,0,-1
 97 263 l 1,1,-1
 346 263 l 1,2,-1
 334 203 l 1,3,-1
 85 203 l 1,0,-1
EndSplineSet
EndChar
StartChar: period
Encoding: 46 46 15
Width: 214
Flags: W
Fore
63 0 m 1,0,-1
 79 79 l 1,1,-1
 167 79 l 1,2,-1
 151 0 l 1,3,-1
 63 0 l 1,0,-1
EndSplineSet
EndChar
StartChar: slash
Encoding: 47 47 16
Width: 225
Flags: W
Fore
59 -38 m 1,0,-1
 -8 -38 l 1,1,-1
 300 563 l 1,2,-1
 364 563 l 1,3,-1
 59 -38 l 1,0,-1
EndSplineSet
EndChar
StartChar: zero
Encoding: 48 48 17
Width: 425
Flags: W
Fore
211 -5 m 0,0,1
 163 -5 163 -5 132.5 10.5 c 128,-1,2
 102 26 102 26 87 55.5 c 128,-1,3
 72 85 72 85 71.5 127 c 128,-1,4
 71 169 71 169 82 222 c 0,5,6
 106 335 106 335 159.5 396.5 c 128,-1,7
 213 458 213 458 310 458 c 0,8,9
 358 458 358 458 388.5 442 c 128,-1,10
 419 426 419 426 434 396 c 128,-1,11
 449 366 449 366 449 322 c 128,-1,12
 449 278 449 278 437 222 c 0,13,14
 415 116 415 116 361 55.5 c 128,-1,15
 307 -5 307 -5 211 -5 c 0,0,1
222 44 m 256,16,17
 259 44 259 44 283.5 54.5 c 128,-1,18
 308 65 308 65 325.5 87 c 128,-1,19
 343 109 343 109 354 142.5 c 128,-1,20
 365 176 365 176 375 222 c 0,21,22
 386 272 386 272 389 307.5 c 128,-1,23
 392 343 392 343 384.5 365.5 c 128,-1,24
 377 388 377 388 356.5 398 c 128,-1,25
 336 408 336 408 299 408 c 256,26,27
 262 408 262 408 237 398 c 128,-1,28
 212 388 212 388 195 365.5 c 128,-1,29
 178 343 178 343 167 307.5 c 128,-1,30
 156 272 156 272 145 222 c 0,31,32
 135 176 135 176 132 142.5 c 128,-1,33
 129 109 129 109 136.5 87 c 128,-1,34
 144 65 144 65 164.5 54.5 c 128,-1,35
 185 44 185 44 222 44 c 256,16,17
EndSplineSet
EndChar
StartChar: one
Encoding: 49 49 18
Width: 323
Flags: W
Fore
45 0 m 1,0,-1
 54 46 l 1,1,-1
 143 46 l 1,2,-1
 216 389 l 1,3,-1
 128 369 l 1,4,-1
 137 413 l 1,5,-1
 251 456 l 1,6,-1
 288 456 l 1,7,-1
 201 46 l 1,8,-1
 287 46 l 1,9,-1
 278 0 l 1,10,-1
 45 0 l 1,0,-1
EndSplineSet
EndChar
StartChar: two
Encoding: 50 50 19
Width: 379
Flags: W
Fore
115 333 m 1,0,1
 140 395 140 395 189.5 427 c 128,-1,2
 239 459 239 459 297 459 c 0,3,4
 366 459 366 459 393.5 422.5 c 128,-1,5
 421 386 421 386 408 327 c 0,6,7
 396 272 396 272 353.5 234 c 128,-1,8
 311 196 311 196 241 168 c 0,9,10
 197 151 197 151 171 135.5 c 128,-1,11
 145 120 145 120 131 105.5 c 128,-1,12
 117 91 117 91 111.5 77 c 128,-1,13
 106 63 106 63 103 49 c 1,14,-1
 341 49 l 1,15,-1
 331 0 l 1,16,-1
 40 0 l 1,17,-1
 47 37 l 2,18,19
 52 60 52 60 59.5 82 c 128,-1,20
 67 104 67 104 85 125.5 c 128,-1,21
 103 147 103 147 136 169 c 128,-1,22
 169 191 169 191 224 212 c 0,23,24
 261 226 261 226 283.5 240.5 c 128,-1,25
 306 255 306 255 318.5 269.5 c 128,-1,26
 331 284 331 284 337 299 c 128,-1,27
 343 314 343 314 346 330 c 0,28,29
 353 365 353 365 340.5 387.5 c 128,-1,30
 328 410 328 410 283 410 c 0,31,32
 251 410 251 410 221 392 c 128,-1,33
 191 374 191 374 168 324 c 1,34,-1
 115 333 l 1,0,1
EndSplineSet
EndChar
StartChar: three
Encoding: 51 51 20
Width: 397
Flags: W
Fore
105 113 m 1,0,1
 123 69 123 69 150 56 c 128,-1,2
 177 43 177 43 208 43 c 0,3,4
 258 43 258 43 283.5 69 c 128,-1,5
 309 95 309 95 316 129 c 0,6,7
 327 179 327 179 304 198 c 128,-1,8
 281 217 281 217 217 217 c 2,9,-1
 175 217 l 1,10,-1
 185 266 l 1,11,-1
 220 266 l 2,12,13
 281 266 281 266 310 284 c 128,-1,14
 339 302 339 302 348 347 c 0,15,16
 355 376 355 376 340.5 393.5 c 128,-1,17
 326 411 326 411 280 411 c 0,18,19
 255 411 255 411 228 398.5 c 128,-1,20
 201 386 201 386 170 356 c 1,21,-1
 137 389 l 1,22,23
 178 427 178 427 217 443 c 128,-1,24
 256 459 256 459 294 459 c 0,25,26
 358 459 358 459 391 433.5 c 128,-1,27
 424 408 424 408 412 351 c 0,28,29
 402 305 402 305 378 279.5 c 128,-1,30
 354 254 354 254 319 243 c 1,31,32
 334 239 334 239 347 231 c 128,-1,33
 360 223 360 223 369 209.5 c 128,-1,34
 378 196 378 196 381.5 177 c 128,-1,35
 385 158 385 158 379 131 c 0,36,37
 366 66 366 66 324 29.5 c 128,-1,38
 282 -7 282 -7 195 -7 c 0,39,40
 84 -7 84 -7 52 84 c 1,41,-1
 105 113 l 1,0,1
EndSplineSet
EndChar
StartChar: four
Encoding: 52 52 21
Width: 370
Flags: W
Fore
49 137 m 1,0,-1
 315 456 l 1,1,-1
 387 456 l 1,2,-1
 320 139 l 1,3,-1
 389 139 l 1,4,-1
 378 89 l 1,5,-1
 309 89 l 1,6,-1
 291 0 l 1,7,-1
 233 0 l 1,8,-1
 251 89 l 1,9,-1
 38 89 l 1,10,-1
 49 137 l 1,0,-1
113 139 m 1,11,-1
 262 139 l 1,12,-1
 315 390 l 1,13,-1
 310 390 l 1,14,-1
 113 139 l 1,11,-1
EndSplineSet
EndChar
StartChar: five
Encoding: 53 53 22
Width: 413
Flags: W
Fore
104 206 m 1,0,-1
 178 456 l 1,1,-1
 430 456 l 1,2,-1
 420 407 l 1,3,-1
 224 407 l 1,4,-1
 183 273 l 1,5,6
 208 293 208 293 232.5 300 c 128,-1,7
 257 307 257 307 281 307 c 0,8,9
 314 307 314 307 339.5 298 c 128,-1,10
 365 289 365 289 381.5 270.5 c 128,-1,11
 398 252 398 252 403.5 222.5 c 128,-1,12
 409 193 409 193 400 152 c 0,13,14
 391 108 391 108 371.5 77.5 c 128,-1,15
 352 47 352 47 324.5 28.5 c 128,-1,16
 297 10 297 10 263 1.5 c 128,-1,17
 229 -7 229 -7 190 -7 c 0,18,19
 169 -7 169 -7 148 -1.5 c 128,-1,20
 127 4 127 4 109.5 14.5 c 128,-1,21
 92 25 92 25 79.5 41.5 c 128,-1,22
 67 58 67 58 61 79 c 1,23,-1
 111 109 l 1,24,25
 122 71 122 71 145.5 57 c 128,-1,26
 169 43 169 43 205 43 c 0,27,28
 267 43 267 43 296 70 c 128,-1,29
 325 97 325 97 336 149 c 0,30,31
 349 210 349 210 332 233.5 c 128,-1,32
 315 257 315 257 263 257 c 0,33,34
 234 257 234 257 200 243.5 c 128,-1,35
 166 230 166 230 146 201 c 1,36,-1
 104 206 l 1,0,-1
EndSplineSet
EndChar
StartChar: six
Encoding: 54 54 23
Width: 408
Flags: W
Fore
396 378 m 1,0,1
 381 395 381 395 357.5 403 c 128,-1,2
 334 411 334 411 308 411 c 0,3,4
 274 411 274 411 250 401 c 128,-1,5
 226 391 226 391 208.5 369 c 128,-1,6
 191 347 191 347 178.5 312 c 128,-1,7
 166 277 166 277 155 228 c 1,8,9
 184 254 184 254 218.5 268.5 c 128,-1,10
 253 283 253 283 291 283 c 0,11,12
 333 283 333 283 357.5 271.5 c 128,-1,13
 382 260 382 260 394 240 c 128,-1,14
 406 220 406 220 407 193 c 128,-1,15
 408 166 408 166 401 134 c 0,16,17
 387 68 387 68 340 30.5 c 128,-1,18
 293 -7 293 -7 217 -7 c 0,19,20
 122 -7 122 -7 93.5 45.5 c 128,-1,21
 65 98 65 98 89 210 c 0,22,23
 102 270 102 270 121.5 316 c 128,-1,24
 141 362 141 362 169 394 c 128,-1,25
 197 426 197 426 234 442.5 c 128,-1,26
 271 459 271 459 319 459 c 0,27,28
 349 459 349 459 380.5 449.5 c 128,-1,29
 412 440 412 440 432 422 c 1,30,-1
 396 378 l 1,0,1
269 234 m 0,31,32
 244 234 244 234 221.5 225 c 128,-1,33
 199 216 199 216 182 203.5 c 128,-1,34
 165 191 165 191 154.5 179 c 128,-1,35
 144 167 144 167 143 161 c 0,36,37
 135 124 135 124 137.5 101 c 128,-1,38
 140 78 140 78 152 65 c 128,-1,39
 164 52 164 52 183.5 48 c 128,-1,40
 203 44 203 44 229 44 c 0,41,42
 282 44 282 44 305 66 c 128,-1,43
 328 88 328 88 339 141 c 0,44,45
 350 188 350 188 336 211 c 128,-1,46
 322 234 322 234 269 234 c 0,31,32
EndSplineSet
EndChar
StartChar: seven
Encoding: 55 55 24
Width: 339
Flags: W
Fore
126 456 m 1,0,-1
 415 456 l 1,1,-1
 407 415 l 1,2,-1
 126 0 l 1,3,-1
 57 0 l 1,4,-1
 337 407 l 1,5,-1
 116 407 l 1,6,-1
 126 456 l 1,0,-1
EndSplineSet
EndChar
StartChar: eight
Encoding: 56 56 25
Width: 423
Flags: W
Fore
433 340 m 0,0,1
 426 310 426 310 398 283 c 128,-1,2
 370 256 370 256 325 241 c 1,3,4
 378 215 378 215 394.5 185.5 c 128,-1,5
 411 156 411 156 403 121 c 0,6,7
 390 59 390 59 342.5 26 c 128,-1,8
 295 -7 295 -7 210 -7 c 256,9,10
 125 -7 125 -7 91 26 c 128,-1,11
 57 59 57 59 70 121 c 0,12,13
 78 156 78 156 106.5 185.5 c 128,-1,14
 135 215 135 215 200 241 c 1,15,16
 160 256 160 256 143.5 283 c 128,-1,17
 127 310 127 310 134 340 c 0,18,19
 146 398 146 398 191.5 429 c 128,-1,20
 237 460 237 460 309 460 c 256,21,22
 381 460 381 460 413 429 c 128,-1,23
 445 398 445 398 433 340 c 0,0,1
221 43 m 0,24,25
 271 43 271 43 301.5 62.5 c 128,-1,26
 332 82 332 82 340 121 c 0,27,28
 344 139 344 139 341 152.5 c 128,-1,29
 338 166 338 166 328 176.5 c 128,-1,30
 318 187 318 187 300.5 197 c 128,-1,31
 283 207 283 207 258 218 c 1,32,33
 227 207 227 207 205.5 197 c 128,-1,34
 184 187 184 187 169 176.5 c 128,-1,35
 154 166 154 166 145.5 152.5 c 128,-1,36
 137 139 137 139 133 121 c 0,37,38
 117 43 117 43 221 43 c 0,24,25
267 263 m 1,39,40
 312 274 312 274 338.5 293.5 c 128,-1,41
 365 313 365 313 371 342 c 0,42,43
 387 412 387 412 299 412 c 0,44,45
 212 412 212 412 196 342 c 0,46,47
 185 286 185 286 267 263 c 1,39,40
EndSplineSet
EndChar
StartChar: nine
Encoding: 57 57 26
Width: 407
Flags: W
Fore
99 76 m 1,0,1
 113 59 113 59 141 51 c 128,-1,2
 169 43 169 43 195 43 c 0,3,4
 229 43 229 43 253 53 c 128,-1,5
 277 63 277 63 294.5 85 c 128,-1,6
 312 107 312 107 325 142 c 128,-1,7
 338 177 338 177 348 226 c 1,8,9
 319 200 319 200 285 185 c 128,-1,10
 251 170 251 170 213 170 c 0,11,12
 171 170 171 170 146 181.5 c 128,-1,13
 121 193 121 193 109 213 c 128,-1,14
 97 233 97 233 96 260.5 c 128,-1,15
 95 288 95 288 102 319 c 0,16,17
 116 385 116 385 163 422.5 c 128,-1,18
 210 460 210 460 285 460 c 0,19,20
 380 460 380 460 408.5 408 c 128,-1,21
 437 356 437 356 413 244 c 0,22,23
 400 184 400 184 383.5 137.5 c 128,-1,24
 367 91 367 91 340.5 59 c 128,-1,25
 314 27 314 27 276.5 10.5 c 128,-1,26
 239 -6 239 -6 184 -6 c 0,27,28
 169 -6 169 -6 151.5 -3.5 c 128,-1,29
 134 -1 134 -1 117.5 4 c 128,-1,30
 101 9 101 9 86 16 c 128,-1,31
 71 23 71 23 61 32 c 1,32,-1
 99 76 l 1,0,1
233 220 m 0,33,34
 259 220 259 220 281.5 229 c 128,-1,35
 304 238 304 238 321 250 c 128,-1,36
 338 262 338 262 349 274 c 128,-1,37
 360 286 360 286 361 292 c 0,38,39
 369 330 369 330 366 353 c 128,-1,40
 363 376 363 376 351 388.5 c 128,-1,41
 339 401 339 401 319.5 405.5 c 128,-1,42
 300 410 300 410 274 410 c 0,43,44
 221 410 221 410 198 387.5 c 128,-1,45
 175 365 175 365 164 312 c 0,46,47
 154 266 154 266 167 243 c 128,-1,48
 180 220 180 220 233 220 c 0,33,34
EndSplineSet
EndChar
StartChar: colon
Encoding: 58 58 27
Width: 225
Flags: W
Fore
67 0 m 1,0,-1
 84 83 l 1,1,-1
 175 83 l 1,2,-1
 158 0 l 1,3,-1
 67 0 l 1,0,-1
119 247 m 1,4,-1
 137 330 l 1,5,-1
 228 330 l 1,6,-1
 210 247 l 1,7,-1
 119 247 l 1,4,-1
EndSplineSet
EndChar
StartChar: semicolon
Encoding: 59 59 28
Width: 225
Flags: W
Fore
175 83 m 1,0,-1
 158 0 l 1,1,-1
 80 -122 l 1,2,-1
 39 -122 l 1,3,-1
 102 0 l 1,4,-1
 67 0 l 1,5,-1
 84 83 l 1,6,-1
 175 83 l 1,0,-1
119 247 m 1,7,-1
 137 330 l 1,8,-1
 228 330 l 1,9,-1
 210 247 l 1,10,-1
 119 247 l 1,7,-1
EndSplineSet
EndChar
StartChar: less
Encoding: 60 60 29
Width: 486
Flags: W
Fore
452 -5 m 1,0,-1
 70 183 l 1,1,-1
 82 238 l 1,2,-1
 544 426 l 1,3,-1
 531 364 l 1,4,-1
 141 211 l 1,5,-1
 466 57 l 1,6,-1
 452 -5 l 1,0,-1
EndSplineSet
EndChar
StartChar: equal
Encoding: 61 61 30
Width: 486
Flags: W
Fore
511 270 m 1,0,-1
 89 270 l 1,1,-1
 100 323 l 1,2,-1
 522 323 l 1,3,-1
 511 270 l 1,0,-1
476 108 m 1,4,-1
 54 108 l 1,5,-1
 66 161 l 1,6,-1
 488 161 l 1,7,-1
 476 108 l 1,4,-1
EndSplineSet
EndChar
StartChar: greater
Encoding: 62 62 31
Width: 486
Flags: W
Fore
44 57 m 1,0,-1
 433 211 l 1,1,-1
 109 364 l 1,2,-1
 122 426 l 1,3,-1
 505 243 l 1,4,-1
 491 178 l 1,5,-1
 30 -5 l 1,6,-1
 44 57 l 1,0,-1
EndSplineSet
EndChar
StartChar: question
Encoding: 63 63 32
Width: 345
Flags: W
Fore
127 493 m 1,0,1
 140 516 140 516 159.5 534.5 c 128,-1,2
 179 553 179 553 202.5 566 c 128,-1,3
 226 579 226 579 252 586 c 128,-1,4
 278 593 278 593 304 593 c 0,5,6
 334 593 334 593 358 584.5 c 128,-1,7
 382 576 382 576 398 559.5 c 128,-1,8
 414 543 414 543 419.5 518 c 128,-1,9
 425 493 425 493 418 461 c 0,10,11
 410 421 410 421 384 393 c 128,-1,12
 358 365 358 365 329 340 c 128,-1,13
 300 315 300 315 274 287 c 128,-1,14
 248 259 248 259 239 217 c 2,15,-1
 230 178 l 1,16,-1
 157 178 l 1,17,-1
 166 217 l 2,18,19
 174 256 174 256 200.5 286.5 c 128,-1,20
 227 317 227 317 257 345.5 c 128,-1,21
 287 374 287 374 313.5 404 c 128,-1,22
 340 434 340 434 348 472 c 0,23,24
 353 495 353 495 338.5 514.5 c 128,-1,25
 324 534 324 534 290 534 c 0,26,27
 250 534 250 534 223.5 511.5 c 128,-1,28
 197 489 197 489 182 463 c 1,29,-1
 127 493 l 1,0,1
104 0 m 1,30,-1
 121 83 l 1,31,-1
 221 83 l 1,32,-1
 204 0 l 1,33,-1
 104 0 l 1,30,-1
EndSplineSet
EndChar
StartChar: at
Encoding: 64 64 33
Width: 549
Flags: W
Fore
272 146 m 0,0,1
 293 146 293 146 312 159 c 128,-1,2
 331 172 331 172 346.5 192.5 c 128,-1,3
 362 213 362 213 373 238 c 128,-1,4
 384 263 384 263 389 286 c 0,5,6
 394 311 394 311 389.5 327 c 128,-1,7
 385 343 385 343 365 343 c 0,8,9
 338 343 338 343 317 331.5 c 128,-1,10
 296 320 296 320 280.5 301 c 128,-1,11
 265 282 265 282 254.5 257.5 c 128,-1,12
 244 233 244 233 238 207 c 0,13,14
 232 175 232 175 239 160.5 c 128,-1,15
 246 146 246 146 272 146 c 0,0,1
453 374 m 1,16,-1
 499 374 l 1,17,-1
 395 200 l 2,18,19
 389 189 389 189 387 181.5 c 128,-1,20
 385 174 385 174 383 166 c 0,21,22
 378 148 378 148 398 148 c 256,23,24
 418 148 418 148 438.5 159 c 128,-1,25
 459 170 459 170 476.5 189.5 c 128,-1,26
 494 209 494 209 507.5 235 c 128,-1,27
 521 261 521 261 527 290 c 0,28,29
 536 331 536 331 528.5 361.5 c 128,-1,30
 521 392 521 392 501 413 c 128,-1,31
 481 434 481 434 450.5 444.5 c 128,-1,32
 420 455 420 455 382 455 c 0,33,34
 336 455 336 455 295 439 c 128,-1,35
 254 423 254 423 221.5 394.5 c 128,-1,36
 189 366 189 366 166.5 327.5 c 128,-1,37
 144 289 144 289 134 243 c 0,38,39
 125 198 125 198 132 160 c 128,-1,40
 139 122 139 122 160 95 c 128,-1,41
 181 68 181 68 215 52.5 c 128,-1,42
 249 37 249 37 294 37 c 0,43,44
 346 37 346 37 392.5 55 c 128,-1,45
 439 73 439 73 479 118 c 1,46,-1
 528 118 l 1,47,48
 506 89 506 89 477.5 66 c 128,-1,49
 449 43 449 43 417.5 26.5 c 128,-1,50
 386 10 386 10 352 1.5 c 128,-1,51
 318 -7 318 -7 285 -7 c 0,52,53
 231 -7 231 -7 189.5 13 c 128,-1,54
 148 33 148 33 121.5 68 c 128,-1,55
 95 103 95 103 85.5 149.5 c 128,-1,56
 76 196 76 196 87 248 c 256,57,58
 98 300 98 300 128 345.5 c 128,-1,59
 158 391 158 391 199 425 c 128,-1,60
 240 459 240 459 289.5 478.5 c 128,-1,61
 339 498 339 498 390 498 c 0,62,63
 438 498 438 498 477 482.5 c 128,-1,64
 516 467 516 467 541 439.5 c 128,-1,65
 566 412 566 412 575.5 373.5 c 128,-1,66
 585 335 585 335 575 289 c 0,67,68
 566 249 566 249 544.5 215 c 128,-1,69
 523 181 523 181 495.5 156 c 128,-1,70
 468 131 468 131 437.5 116.5 c 128,-1,71
 407 102 407 102 381 102 c 0,72,73
 363 102 363 102 352 113 c 128,-1,74
 341 124 341 124 343 141 c 1,75,-1
 342 141 l 1,76,77
 322 124 322 124 300.5 113 c 128,-1,78
 279 102 279 102 253 102 c 0,79,80
 231 102 231 102 216.5 110.5 c 128,-1,81
 202 119 202 119 193.5 133 c 128,-1,82
 185 147 185 147 183.5 165 c 128,-1,83
 182 183 182 183 186 203 c 0,84,85
 194 240 194 240 210.5 273.5 c 128,-1,86
 227 307 227 307 252 332.5 c 128,-1,87
 277 358 277 358 309 373 c 128,-1,88
 341 388 341 388 378 388 c 0,89,90
 401 388 401 388 416.5 375.5 c 128,-1,91
 432 363 432 363 431 338 c 1,92,-1
 453 374 l 1,16,-1
EndSplineSet
EndChar
StartChar: A
Encoding: 65 65 34
Width: 463
Flags: W
Fore
352 185 m 1,0,-1
 321 420 l 1,1,-1
 190 185 l 1,2,-1
 352 185 l 1,0,-1
296 485 m 1,3,-1
 374 485 l 1,4,-1
 443 0 l 1,5,-1
 371 0 l 1,6,-1
 355 131 l 1,7,-1
 162 131 l 1,8,-1
 92 0 l 1,9,-1
 20 0 l 1,10,-1
 296 485 l 1,3,-1
EndSplineSet
EndChar
StartChar: B
Encoding: 66 66 35
Width: 427
Flags: W
Fore
367 271 m 1,0,1
 385 267 385 267 398.5 254.5 c 128,-1,2
 412 242 412 242 420 225.5 c 128,-1,3
 428 209 428 209 430.5 189.5 c 128,-1,4
 433 170 433 170 428 150 c 0,5,6
 421 117 421 117 406.5 89.5 c 128,-1,7
 392 62 392 62 368.5 42 c 128,-1,8
 345 22 345 22 311 11 c 128,-1,9
 277 0 277 0 231 0 c 2,10,-1
 60 0 l 1,11,-1
 163 486 l 1,12,-1
 336 486 l 2,13,14
 374 486 374 486 398 477 c 128,-1,15
 422 468 422 468 435 452.5 c 128,-1,16
 448 437 448 437 450.5 416.5 c 128,-1,17
 453 396 453 396 448 373 c 0,18,19
 440 333 440 333 418 306.5 c 128,-1,20
 396 280 396 280 367 271 c 1,0,1
219 431 m 1,21,-1
 190 294 l 1,22,-1
 275 294 l 2,23,24
 323 294 323 294 346.5 316.5 c 128,-1,25
 370 339 370 339 378 373 c 0,26,27
 384 402 384 402 372 416.5 c 128,-1,28
 360 431 360 431 324 431 c 2,29,-1
 219 431 l 1,21,-1
232 52 m 2,30,31
 259 52 259 52 280 56.5 c 128,-1,32
 301 61 301 61 316.5 72 c 128,-1,33
 332 83 332 83 342 102 c 128,-1,34
 352 121 352 121 358 150 c 0,35,36
 363 174 363 174 362 192 c 128,-1,37
 361 210 361 210 350.5 221.5 c 128,-1,38
 340 233 340 233 318.5 238.5 c 128,-1,39
 297 244 297 244 262 244 c 2,40,-1
 179 244 l 1,41,-1
 139 52 l 1,42,-1
 232 52 l 2,30,31
EndSplineSet
EndChar
StartChar: C
Encoding: 67 67 36
Width: 379
Flags: W
Fore
91 242 m 256,0,1
 105 308 105 308 124 355 c 128,-1,2
 143 402 143 402 171 432.5 c 128,-1,3
 199 463 199 463 237.5 477 c 128,-1,4
 276 491 276 491 328 491 c 0,5,6
 361 491 361 491 396 480.5 c 128,-1,7
 431 470 431 470 454 449 c 1,8,-1
 413 401 l 1,9,10
 394 421 394 421 369.5 429 c 128,-1,11
 345 437 345 437 315 437 c 0,12,13
 280 437 280 437 255.5 427 c 128,-1,14
 231 417 231 417 213.5 394 c 128,-1,15
 196 371 196 371 183.5 334 c 128,-1,16
 171 297 171 297 159 242 c 256,17,18
 147 187 147 187 144 150 c 128,-1,19
 141 113 141 113 149 90 c 128,-1,20
 157 67 157 67 177 57 c 128,-1,21
 197 47 197 47 232 47 c 0,22,23
 262 47 262 47 290.5 55 c 128,-1,24
 319 63 319 63 345 83 c 1,25,-1
 366 35 l 1,26,27
 334 14 334 14 294.5 3.5 c 128,-1,28
 255 -7 255 -7 222 -7 c 0,29,30
 170 -7 170 -7 137.5 7 c 128,-1,31
 105 21 105 21 90 51.5 c 128,-1,32
 75 82 75 82 76 129 c 128,-1,33
 77 176 77 176 91 242 c 256,0,1
EndSplineSet
EndChar
StartChar: D
Encoding: 68 68 37
Width: 467
Flags: W
Fore
222 434 m 1,0,-1
 141 52 l 1,1,-1
 232 52 l 2,2,3
 274 52 274 52 302.5 62 c 128,-1,4
 331 72 331 72 350 93.5 c 128,-1,5
 369 115 369 115 381.5 150 c 128,-1,6
 394 185 394 185 405 236 c 0,7,8
 417 292 417 292 420 329.5 c 128,-1,9
 423 367 423 367 413 390.5 c 128,-1,10
 403 414 403 414 379 424 c 128,-1,11
 355 434 355 434 313 434 c 2,12,-1
 222 434 l 1,0,-1
60 0 m 1,13,-1
 163 486 l 1,14,-1
 324 486 l 2,15,16
 431 486 431 486 467 423.5 c 128,-1,17
 503 361 503 361 477 236 c 0,18,19
 452 118 452 118 390 59 c 128,-1,20
 328 0 328 0 221 0 c 2,21,-1
 60 0 l 1,13,-1
EndSplineSet
EndChar
StartChar: E
Encoding: 69 69 38
Width: 366
Flags: W
Fore
141 52 m 1,0,-1
 354 52 l 1,1,-1
 343 0 l 1,2,-1
 60 0 l 1,3,-1
 163 486 l 1,4,-1
 449 486 l 1,5,-1
 438 434 l 1,6,-1
 222 434 l 1,7,-1
 189 280 l 1,8,-1
 375 280 l 1,9,-1
 364 228 l 1,10,-1
 178 228 l 1,11,-1
 141 52 l 1,0,-1
EndSplineSet
EndChar
StartChar: F
Encoding: 70 70 39
Width: 366
Flags: W
Fore
130 0 m 1,0,-1
 60 0 l 1,1,-1
 163 486 l 1,2,-1
 449 486 l 1,3,-1
 438 434 l 1,4,-1
 222 434 l 1,5,-1
 189 280 l 1,6,-1
 375 280 l 1,7,-1
 364 228 l 1,8,-1
 178 228 l 1,9,-1
 130 0 l 1,0,-1
EndSplineSet
EndChar
StartChar: G
Encoding: 71 71 40
Width: 435
Flags: W
Fore
361 206 m 1,0,-1
 340 206 l 2,1,2
 321 206 321 206 309.5 204 c 128,-1,3
 298 202 298 202 292 201 c 128,-1,4
 286 200 286 200 284 201 c 128,-1,5
 282 202 282 202 280 208 c 0,6,7
 276 218 276 218 279 235.5 c 128,-1,8
 282 253 282 253 287 259 c 1,9,-1
 440 259 l 1,10,-1
 396 54 l 1,11,12
 371 33 371 33 329.5 13 c 128,-1,13
 288 -7 288 -7 232 -7 c 0,14,15
 180 -7 180 -7 147.5 7 c 128,-1,16
 115 21 115 21 100 51.5 c 128,-1,17
 85 82 85 82 86 129 c 128,-1,18
 87 176 87 176 101 242 c 256,19,20
 115 308 115 308 134 355 c 128,-1,21
 153 402 153 402 181 432.5 c 128,-1,22
 209 463 209 463 247.5 477 c 128,-1,23
 286 491 286 491 338 491 c 0,24,25
 371 491 371 491 406 480.5 c 128,-1,26
 441 470 441 470 464 449 c 1,27,-1
 423 401 l 1,28,29
 404 421 404 421 379.5 429 c 128,-1,30
 355 437 355 437 325 437 c 0,31,32
 290 437 290 437 265.5 427 c 128,-1,33
 241 417 241 417 223.5 394 c 128,-1,34
 206 371 206 371 193.5 334 c 128,-1,35
 181 297 181 297 169 242 c 256,36,37
 157 187 157 187 154 150 c 128,-1,38
 151 113 151 113 159 90 c 128,-1,39
 167 67 167 67 187 57 c 128,-1,40
 207 47 207 47 242 47 c 0,41,42
 257 47 257 47 283 55 c 128,-1,43
 309 63 309 63 335 83 c 1,44,-1
 361 206 l 1,0,-1
EndSplineSet
EndChar
StartChar: H
Encoding: 72 72 41
Width: 456
Flags: W
Fore
385 280 m 1,0,-1
 429 486 l 1,1,-1
 499 486 l 1,2,-1
 396 0 l 1,3,-1
 326 0 l 1,4,-1
 374 228 l 1,5,-1
 178 228 l 1,6,-1
 130 0 l 1,7,-1
 60 0 l 1,8,-1
 163 486 l 1,9,-1
 233 486 l 1,10,-1
 189 280 l 1,11,-1
 385 280 l 1,0,-1
EndSplineSet
EndChar
StartChar: I
Encoding: 73 73 42
Width: 276
Flags: W
Fore
180 47 m 1,0,-1
 262 47 l 1,1,-1
 253 0 l 1,2,-1
 20 0 l 1,3,-1
 29 47 l 1,4,-1
 111 47 l 1,5,-1
 195 439 l 1,6,-1
 116 439 l 1,7,-1
 126 486 l 1,8,-1
 359 486 l 1,9,-1
 349 439 l 1,10,-1
 264 439 l 1,11,-1
 180 47 l 1,0,-1
EndSplineSet
EndChar
StartChar: J
Encoding: 74 74 43
Width: 331
Flags: W
Fore
317 219 m 2,0,1
 303 153 303 153 288 109.5 c 128,-1,2
 273 66 273 66 252.5 40 c 128,-1,3
 232 14 232 14 203 3.5 c 128,-1,4
 174 -7 174 -7 133 -7 c 0,5,6
 100 -7 100 -7 70 3.5 c 128,-1,7
 40 14 40 14 17 35 c 1,8,-1
 58 83 l 1,9,10
 77 63 77 63 96 55 c 128,-1,11
 115 47 115 47 145 47 c 0,12,13
 165 47 165 47 179 53.5 c 128,-1,14
 193 60 193 60 204.5 78.5 c 128,-1,15
 216 97 216 97 225.5 130.5 c 128,-1,16
 235 164 235 164 247 219 c 2,17,-1
 304 486 l 1,18,-1
 374 486 l 1,19,-1
 317 219 l 2,0,1
EndSplineSet
EndChar
StartChar: K
Encoding: 75 75 44
Width: 434
Flags: W
Fore
60 0 m 1,0,-1
 163 486 l 1,1,-1
 233 486 l 1,2,-1
 189 280 l 1,3,-1
 409 486 l 1,4,-1
 498 486 l 1,5,-1
 275 282 l 1,6,-1
 397 0 l 1,7,-1
 313 0 l 1,8,-1
 222 236 l 1,9,-1
 170 190 l 1,10,-1
 130 0 l 1,11,-1
 60 0 l 1,0,-1
EndSplineSet
EndChar
StartChar: L
Encoding: 76 76 45
Width: 356
Flags: W
Fore
141 52 m 1,0,-1
 357 52 l 1,1,-1
 346 0 l 1,2,-1
 60 0 l 1,3,-1
 163 486 l 1,4,-1
 233 486 l 1,5,-1
 141 52 l 1,0,-1
EndSplineSet
EndChar
StartChar: M
Encoding: 77 77 46
Width: 582
Flags: W
Fore
522 486 m 1,0,-1
 625 486 l 1,1,-1
 522 0 l 1,2,-1
 454 0 l 1,3,-1
 539 404 l 1,4,-1
 326 0 l 1,5,-1
 256 0 l 1,6,-1
 213 404 l 1,7,-1
 128 0 l 1,8,-1
 60 0 l 1,9,-1
 163 486 l 1,10,-1
 266 486 l 1,11,-1
 308 80 l 1,12,-1
 522 486 l 1,0,-1
EndSplineSet
EndChar
StartChar: N
Encoding: 78 78 47
Width: 476
Flags: W
Fore
60 0 m 1,0,-1
 163 486 l 1,1,-1
 256 486 l 1,2,-1
 370 115 l 1,3,-1
 449 486 l 1,4,-1
 519 486 l 1,5,-1
 416 0 l 1,6,-1
 336 0 l 1,7,-1
 215 404 l 1,8,-1
 130 0 l 1,9,-1
 60 0 l 1,0,-1
EndSplineSet
EndChar
StartChar: O
Encoding: 79 79 48
Width: 472
Flags: W
Fore
246 51 m 0,0,1
 281 51 281 51 307 61 c 128,-1,2
 333 71 333 71 352 93.5 c 128,-1,3
 371 116 371 116 385 151 c 128,-1,4
 399 186 399 186 410 237 c 0,5,6
 422 293 422 293 423.5 330.5 c 128,-1,7
 425 368 425 368 415.5 391 c 128,-1,8
 406 414 406 414 384.5 424 c 128,-1,9
 363 434 363 434 328 434 c 256,10,11
 293 434 293 434 267 424 c 128,-1,12
 241 414 241 414 221.5 391 c 128,-1,13
 202 368 202 368 188 330.5 c 128,-1,14
 174 293 174 293 162 237 c 0,15,16
 140 136 140 136 158 93.5 c 128,-1,17
 176 51 176 51 246 51 c 0,0,1
234 -6 m 0,18,19
 128 -6 128 -6 96.5 57 c 128,-1,20
 65 120 65 120 90 237 c 0,21,22
 116 362 116 362 174 425.5 c 128,-1,23
 232 489 232 489 339 489 c 0,24,25
 392 489 392 489 426 473 c 128,-1,26
 460 457 460 457 477 425.5 c 128,-1,27
 494 394 494 394 494.5 346.5 c 128,-1,28
 495 299 495 299 482 237 c 0,29,30
 457 120 457 120 399 57 c 128,-1,31
 341 -6 341 -6 234 -6 c 0,18,19
EndSplineSet
EndChar
StartChar: P
Encoding: 80 80 49
Width: 427
Flags: W
Fore
222 434 m 1,0,-1
 179 232 l 1,1,-1
 260 232 l 2,2,3
 323 232 323 232 354 253.5 c 128,-1,4
 385 275 385 275 397 331 c 0,5,6
 409 390 409 390 388.5 412 c 128,-1,7
 368 434 368 434 313 434 c 2,8,-1
 222 434 l 1,0,-1
168 180 m 1,9,-1
 130 0 l 1,10,-1
 60 0 l 1,11,-1
 163 486 l 1,12,-1
 324 486 l 2,13,14
 374 486 374 486 405.5 476.5 c 128,-1,15
 437 467 437 467 453.5 448 c 128,-1,16
 470 429 470 429 472.5 400 c 128,-1,17
 475 371 475 371 467 331 c 0,18,19
 451 259 451 259 398.5 219.5 c 128,-1,20
 346 180 346 180 239 180 c 2,21,-1
 168 180 l 1,9,-1
EndSplineSet
EndChar
StartChar: Q
Encoding: 81 81 50
Width: 512
Flags: W
Fore
266 51 m 0,0,1
 301 51 301 51 327 61 c 128,-1,2
 353 71 353 71 372 93.5 c 128,-1,3
 391 116 391 116 405 151 c 128,-1,4
 419 186 419 186 430 237 c 0,5,6
 442 293 442 293 443.5 330.5 c 128,-1,7
 445 368 445 368 435.5 391 c 128,-1,8
 426 414 426 414 404.5 424 c 128,-1,9
 383 434 383 434 348 434 c 256,10,11
 313 434 313 434 287 424 c 128,-1,12
 261 414 261 414 241.5 391 c 128,-1,13
 222 368 222 368 208 330.5 c 128,-1,14
 194 293 194 293 182 237 c 0,15,16
 160 136 160 136 178 93.5 c 128,-1,17
 196 51 196 51 266 51 c 0,0,1
254 -6 m 0,18,19
 148 -6 148 -6 116.5 57 c 128,-1,20
 85 120 85 120 110 237 c 0,21,22
 136 362 136 362 194 425.5 c 128,-1,23
 252 489 252 489 359 489 c 0,24,25
 412 489 412 489 446 473 c 128,-1,26
 480 457 480 457 497 425.5 c 128,-1,27
 514 394 514 394 514.5 346.5 c 128,-1,28
 515 299 515 299 502 237 c 0,29,30
 477 120 477 120 419 57 c 128,-1,31
 361 -6 361 -6 254 -6 c 0,18,19
333 146 m 1,32,-1
 444 -36 l 1,33,-1
 370 -52 l 1,34,-1
 277 131 l 1,35,-1
 333 146 l 1,32,-1
EndSplineSet
EndChar
StartChar: R
Encoding: 82 82 51
Width: 437
Flags: W
Fore
324 486 m 2,0,1
 374 486 374 486 405.5 477 c 128,-1,2
 437 468 437 468 453.5 450 c 128,-1,3
 470 432 470 432 473.5 406 c 128,-1,4
 477 380 477 380 470 346 c 0,5,6
 464 319 464 319 451.5 298 c 128,-1,7
 439 277 439 277 421 261 c 128,-1,8
 403 245 403 245 381.5 235.5 c 128,-1,9
 360 226 360 226 337 223 c 1,10,-1
 395 0 l 1,11,-1
 313 0 l 1,12,-1
 265 220 l 1,13,-1
 176 220 l 1,14,-1
 130 0 l 1,15,-1
 60 0 l 1,16,-1
 163 486 l 1,17,-1
 324 486 l 2,0,1
187 272 m 1,18,-1
 288 272 l 2,19,20
 328 272 328 272 358.5 288 c 128,-1,21
 389 304 389 304 398 346 c 0,22,23
 407 390 407 390 385.5 407 c 128,-1,24
 364 424 364 424 311 424 c 2,25,-1
 220 424 l 1,26,-1
 187 272 l 1,18,-1
EndSplineSet
EndChar
StartChar: S
Encoding: 83 83 52
Width: 446
Flags: W
Fore
140 158 m 1,0,1
 141 126 141 126 151 105.5 c 128,-1,2
 161 85 161 85 177 73 c 128,-1,3
 193 61 193 61 213.5 56 c 128,-1,4
 234 51 234 51 255 51 c 0,5,6
 274 51 274 51 292 56.5 c 128,-1,7
 310 62 310 62 324 71.5 c 128,-1,8
 338 81 338 81 348 93.5 c 128,-1,9
 358 106 358 106 361 121 c 0,10,11
 367 150 367 150 350 167.5 c 128,-1,12
 333 185 333 185 305 198.5 c 128,-1,13
 277 212 277 212 243 223.5 c 128,-1,14
 209 235 209 235 181 252 c 128,-1,15
 153 269 153 269 138 295 c 128,-1,16
 123 321 123 321 131 361 c 0,17,18
 143 418 143 418 191.5 453 c 128,-1,19
 240 488 240 488 318 488 c 0,20,21
 384 488 384 488 423 454 c 128,-1,22
 462 420 462 420 468 355 c 1,23,-1
 401 342 l 1,24,25
 396 389 396 389 374 410.5 c 128,-1,26
 352 432 352 432 306 432 c 0,27,28
 264 432 264 432 236 411.5 c 128,-1,29
 208 391 208 391 201 361 c 0,30,31
 195 334 195 334 212.5 317.5 c 128,-1,32
 230 301 230 301 258.5 288 c 128,-1,33
 287 275 287 275 321 263 c 128,-1,34
 355 251 355 251 382.5 234 c 128,-1,35
 410 217 410 217 425.5 192 c 128,-1,36
 441 167 441 167 433 128 c 0,37,38
 420 70 420 70 370 32 c 128,-1,39
 320 -6 320 -6 242 -6 c 0,40,41
 157 -6 157 -6 117 30 c 128,-1,42
 77 66 77 66 70 144 c 1,43,-1
 140 158 l 1,0,1
EndSplineSet
EndChar
StartChar: T
Encoding: 84 84 53
Width: 370
Flags: W
Fore
220 0 m 1,0,-1
 150 0 l 1,1,-1
 242 434 l 1,2,-1
 102 434 l 1,3,-1
 113 486 l 1,4,-1
 463 486 l 1,5,-1
 452 434 l 1,6,-1
 312 434 l 1,7,-1
 220 0 l 1,0,-1
EndSplineSet
EndChar
StartChar: U
Encoding: 85 85 54
Width: 492
Flags: W
Fore
465 486 m 1,0,-1
 535 486 l 1,1,-1
 475 204 l 2,2,3
 463 146 463 146 445 105.5 c 128,-1,4
 427 65 427 65 400 40.5 c 128,-1,5
 373 16 373 16 335 5 c 128,-1,6
 297 -6 297 -6 244 -6 c 256,7,8
 191 -6 191 -6 157.5 5 c 128,-1,9
 124 16 124 16 108 40.5 c 128,-1,10
 92 65 92 65 91.5 105.5 c 128,-1,11
 91 146 91 146 103 204 c 2,12,-1
 163 486 l 1,13,-1
 233 486 l 1,14,-1
 173 204 l 2,15,16
 162 153 162 153 162 123 c 128,-1,17
 162 93 162 93 172.5 76.5 c 128,-1,18
 183 60 183 60 204 55 c 128,-1,19
 225 50 225 50 256 50 c 256,20,21
 287 50 287 50 310 55 c 128,-1,22
 333 60 333 60 350.5 76.5 c 128,-1,23
 368 93 368 93 381 123 c 128,-1,24
 394 153 394 153 405 204 c 2,25,-1
 465 486 l 1,0,-1
EndSplineSet
EndChar
StartChar: V
Encoding: 86 86 55
Width: 443
Flags: W
Fore
452 486 m 1,0,-1
 526 486 l 1,1,-1
 258 0 l 1,2,-1
 186 0 l 1,3,-1
 123 486 l 1,4,-1
 197 486 l 1,5,-1
 234 61 l 1,6,-1
 452 486 l 1,0,-1
EndSplineSet
EndChar
StartChar: W
Encoding: 87 87 56
Width: 566
Flags: W
Fore
420 486 m 1,0,-1
 431 81 l 1,1,-1
 431 81 l 1,2,-1
 575 486 l 1,3,-1
 649 486 l 1,4,-1
 458 0 l 1,5,-1
 378 0 l 1,6,-1
 371 416 l 1,7,-1
 188 0 l 1,8,-1
 108 0 l 1,9,-1
 123 486 l 1,10,-1
 197 486 l 1,11,-1
 169 81 l 1,12,-1
 169 81 l 1,13,-1
 352 486 l 1,14,-1
 420 486 l 1,0,-1
EndSplineSet
EndChar
StartChar: X
Encoding: 88 88 57
Width: 419
Flags: W
Fore
123 486 m 1,0,-1
 203 486 l 1,1,-1
 268 289 l 1,2,-1
 416 486 l 1,3,-1
 496 486 l 1,4,-1
 299 241 l 1,5,-1
 409 0 l 1,6,-1
 328 0 l 1,7,-1
 246 188 l 1,8,-1
 89 0 l 1,9,-1
 10 0 l 1,10,-1
 218 241 l 1,11,-1
 123 486 l 1,0,-1
EndSplineSet
EndChar
StartChar: Y
Encoding: 89 89 58
Width: 423
Flags: W
Fore
246 0 m 1,0,-1
 176 0 l 1,1,-1
 216 190 l 1,2,-1
 123 486 l 1,3,-1
 202 486 l 1,4,-1
 266 256 l 1,5,-1
 427 486 l 1,6,-1
 506 486 l 1,7,-1
 286 190 l 1,8,-1
 246 0 l 1,0,-1
EndSplineSet
EndChar
StartChar: Z
Encoding: 90 90 59
Width: 396
Flags: W
Fore
368 433 m 1,0,-1
 132 433 l 1,1,-1
 143 486 l 1,2,-1
 454 486 l 1,3,-1
 442 430 l 1,4,-1
 131 52 l 1,5,-1
 367 52 l 1,6,-1
 356 0 l 1,7,-1
 42 0 l 1,8,-1
 53 52 l 1,9,-1
 368 433 l 1,0,-1
EndSplineSet
EndChar
StartChar: bracketleft
Encoding: 91 91 60
Width: 270
Flags: W
Fore
346 585 m 1,0,-1
 337 545 l 1,1,-1
 255 545 l 1,2,-1
 135 -19 l 1,3,-1
 217 -19 l 1,4,-1
 209 -59 l 1,5,-1
 58 -59 l 1,6,-1
 195 585 l 1,7,-1
 346 585 l 1,0,-1
EndSplineSet
EndChar
StartChar: backslash
Encoding: 92 92 61
Width: 225
Flags: W
Fore
116 593 m 1,0,-1
 181 593 l 1,1,-1
 233 -8 l 1,2,-1
 165 -8 l 1,3,-1
 116 593 l 1,0,-1
EndSplineSet
EndChar
StartChar: bracketright
Encoding: 93 93 62
Width: 270
Flags: W
Fore
35 -59 m 1,0,-1
 43 -19 l 1,1,-1
 125 -19 l 1,2,-1
 245 545 l 1,3,-1
 163 545 l 1,4,-1
 172 585 l 1,5,-1
 323 585 l 1,6,-1
 186 -59 l 1,7,-1
 35 -59 l 1,0,-1
EndSplineSet
EndChar
StartChar: asciicircum
Encoding: 94 94 63
Width: 456
Flags: W
Fore
374 549 m 1,0,-1
 460 225 l 1,1,-1
 390 225 l 1,2,-1
 326 474 l 1,3,-1
 160 225 l 1,4,-1
 90 225 l 1,5,-1
 313 549 l 1,6,-1
 374 549 l 1,0,-1
EndSplineSet
EndChar
StartChar: underscore
Encoding: 95 95 64
Width: 475
Flags: W
Fore
-25 -119 m 1,0,-1
 -12 -61 l 1,1,-1
 462 -61 l 1,2,-1
 449 -119 l 1,3,-1
 -25 -119 l 1,0,-1
EndSplineSet
EndChar
StartChar: grave
Encoding: 96 96 65
Width: 169
Flags: W
Fore
183 544 m 1,0,-1
 225 439 l 1,1,-1
 176 439 l 1,2,-1
 105 544 l 1,3,-1
 183 544 l 1,0,-1
EndSplineSet
EndChar
StartChar: a
Encoding: 97 97 66
Width: 380
Flags: W
Fore
88 322 m 1,0,1
 100 335 100 335 120 349 c 128,-1,2
 140 363 140 363 163.5 375 c 128,-1,3
 187 387 187 387 213 395 c 128,-1,4
 239 403 239 403 263 403 c 0,5,6
 295 403 295 403 319 396.5 c 128,-1,7
 343 390 343 390 358 375.5 c 128,-1,8
 373 361 373 361 378 337.5 c 128,-1,9
 383 314 383 314 375 279 c 2,10,-1
 341 119 l 2,11,12
 333 81 333 81 333 53 c 128,-1,13
 333 25 333 25 338 8 c 1,14,15
 327 2 327 2 307 -1.5 c 128,-1,16
 287 -5 287 -5 279 -5 c 0,17,18
 275 -5 275 -5 271.5 -3.5 c 128,-1,19
 268 -2 268 -2 266 5 c 0,20,21
 265 10 265 10 265 17 c 128,-1,22
 265 31 l 0,23,24
 265 39 265 39 266 48 c 1,25,26
 248 33 248 33 232.5 22.5 c 128,-1,27
 217 12 217 12 201 5.5 c 128,-1,28
 185 -1 185 -1 167 -4.5 c 128,-1,29
 149 -8 149 -8 126 -8 c 0,30,31
 80 -8 80 -8 55.5 24 c 128,-1,32
 31 56 31 56 42 106 c 0,33,34
 51 146 51 146 69.5 171 c 128,-1,35
 88 196 88 196 119 210.5 c 128,-1,36
 150 225 150 225 195.5 231 c 128,-1,37
 241 237 241 237 304 240 c 1,38,-1
 314 287 l 2,39,40
 319 308 319 308 314 322 c 128,-1,41
 309 336 309 336 300 343.5 c 128,-1,42
 291 351 291 351 279.5 354 c 128,-1,43
 268 357 268 357 259 357 c 0,44,45
 221 357 221 357 191.5 338.5 c 128,-1,46
 162 320 162 320 130 290 c 0,47,48
 127 287 127 287 121.5 289 c 128,-1,49
 116 291 116 291 110 296.5 c 128,-1,50
 104 302 104 302 98 309 c 128,-1,51
 92 316 92 316 88 322 c 1,0,1
292 193 m 1,52,53
 229 192 229 192 193 183.5 c 128,-1,54
 157 175 157 175 138 162 c 128,-1,55
 119 149 119 149 112.5 132 c 128,-1,56
 106 115 106 115 102 97 c 0,57,58
 97 71 97 71 105 55 c 128,-1,59
 113 39 113 39 144 39 c 0,60,61
 176 39 176 39 206 56.5 c 128,-1,62
 236 74 236 74 273 104 c 1,63,-1
 292 193 l 1,52,53
EndSplineSet
Substitution: 0 65534 'L031' uni0E38
Substitution: 0 65534 'L031' uni0E38
EndChar
StartChar: b
Encoding: 98 98 67
Width: 415
Flags: W
Fore
156 111 m 1,0,1
 171 80 171 80 196.5 59.5 c 128,-1,2
 222 39 222 39 249 39 c 0,3,4
 294 39 294 39 320 77.5 c 128,-1,5
 346 116 346 116 362 192 c 0,6,7
 371 234 371 234 375 265.5 c 128,-1,8
 379 297 379 297 374.5 317 c 128,-1,9
 370 337 370 337 355.5 347 c 128,-1,10
 341 357 341 357 314 357 c 0,11,12
 288 357 288 357 258 343.5 c 128,-1,13
 228 330 228 330 198 310 c 1,14,-1
 156 111 l 1,0,1
211 369 m 1,15,16
 243 386 243 386 273.5 394.5 c 128,-1,17
 304 403 304 403 336 403 c 0,18,19
 375 403 375 403 398 389 c 128,-1,20
 421 375 421 375 431.5 349 c 128,-1,21
 442 323 442 323 440.5 285 c 128,-1,22
 439 247 439 247 429 200 c 0,23,24
 406 91 406 91 358.5 41.5 c 128,-1,25
 311 -8 311 -8 242 -8 c 0,26,27
 221 -8 221 -8 206.5 -4.5 c 128,-1,28
 192 -1 192 -1 180.5 6 c 128,-1,29
 169 13 169 13 158.5 24.5 c 128,-1,30
 148 36 148 36 136 51 c 1,31,32
 134 40 134 40 130 31 c 0,33,34
 127 23 127 23 124 16 c 128,-1,35
 121 9 121 9 119 5 c 1,36,37
 114 0 114 0 110.5 -1.5 c 128,-1,38
 107 -3 107 -3 103 -3 c 256,39,40
 99 -3 99 -3 92 -2.5 c 128,-1,41
 85 -2 85 -2 77.5 -1 c 128,-1,42
 70 0 70 0 63.5 1.5 c 128,-1,43
 57 3 57 3 53 5 c 1,44,45
 56 11 56 11 61.5 23 c 128,-1,46
 67 35 67 35 73 51 c 128,-1,47
 79 67 79 67 85 85.5 c 128,-1,48
 91 104 91 104 95 122 c 2,49,-1
 186 549 l 1,50,-1
 249 549 l 1,51,-1
 211 369 l 1,15,16
EndSplineSet
Substitution: 0 65534 'L031' uni0E39
Substitution: 0 65534 'L031' uni0E39
EndChar
StartChar: c
Encoding: 99 99 68
Width: 362
Flags: W
Fore
70 198 m 0,0,1
 90 293 90 293 138.5 348 c 128,-1,2
 187 403 187 403 271 403 c 0,3,4
 320 403 320 403 351 380 c 128,-1,5
 382 357 382 357 402 322 c 1,6,7
 395 316 395 316 386 309 c 128,-1,8
 377 302 377 302 369 296.5 c 128,-1,9
 361 291 361 291 354.5 289 c 128,-1,10
 348 287 348 287 346 290 c 0,11,12
 337 305 337 305 329 317.5 c 128,-1,13
 321 330 321 330 311 339 c 128,-1,14
 301 348 301 348 287.5 352.5 c 128,-1,15
 274 357 274 357 255 357 c 0,16,17
 240 357 240 357 223.5 353.5 c 128,-1,18
 207 350 207 350 191.5 334 c 128,-1,19
 176 318 176 318 161.5 286 c 128,-1,20
 147 254 147 254 135 198 c 256,21,22
 123 142 123 142 124 110 c 128,-1,23
 125 78 125 78 134 62.5 c 128,-1,24
 143 47 143 47 158 43 c 128,-1,25
 173 39 173 39 188 39 c 0,26,27
 226 39 226 39 251 57 c 128,-1,28
 276 75 276 75 307 106 c 0,29,30
 310 109 310 109 316 107 c 128,-1,31
 322 105 322 105 328 99.5 c 128,-1,32
 334 94 334 94 339.5 87 c 128,-1,33
 345 80 345 80 349 74 c 1,34,35
 314 39 314 39 273.5 16 c 128,-1,36
 233 -7 233 -7 184 -7 c 0,37,38
 142 -7 142 -7 115 7 c 128,-1,39
 88 21 88 21 74.5 47.5 c 128,-1,40
 61 74 61 74 60.5 112 c 128,-1,41
 60 150 60 150 70 198 c 0,0,1
EndSplineSet
Substitution: 0 65534 'L031' uni0E3A
Substitution: 0 65534 'L031' uni0E3A
EndChar
StartChar: d
Encoding: 100 100 69
Width: 415
Flags: W
Fore
347 310 m 1,0,1
 331 330 331 330 308 343.5 c 128,-1,2
 285 357 285 357 251 357 c 0,3,4
 224 357 224 357 205.5 347 c 128,-1,5
 187 337 187 337 174 317 c 128,-1,6
 161 297 161 297 151.5 265.5 c 128,-1,7
 142 234 142 234 133 192 c 0,8,9
 117 116 117 116 127 77.5 c 128,-1,10
 137 39 137 39 182 39 c 0,11,12
 203 39 203 39 219.5 44.5 c 128,-1,13
 236 50 236 50 250.5 59.5 c 128,-1,14
 265 69 265 69 278 82.5 c 128,-1,15
 291 96 291 96 305 111 c 1,16,-1
 347 310 l 1,0,1
398 549 m 1,17,-1
 461 549 l 1,18,-1
 370 122 l 2,19,20
 366 104 366 104 364.5 85.5 c 128,-1,21
 363 67 363 67 362.5 51 c 128,-1,22
 362 35 362 35 362.5 23 c 128,-1,23
 363 11 363 11 364 5 c 1,24,25
 355 1 355 1 336.5 -1 c 128,-1,26
 318 -3 318 -3 310 -3 c 0,27,28
 300 -3 300 -3 298 5 c 1,29,30
 296 9 296 9 296 16 c 128,-1,31
 296 23 296 23 297 31 c 2,32,-1
 299 51 l 1,33,34
 281 36 281 36 266 24.5 c 128,-1,35
 251 13 251 13 236.5 6 c 128,-1,36
 222 -1 222 -1 206 -4.5 c 128,-1,37
 190 -8 190 -8 169 -8 c 0,38,39
 100 -8 100 -8 73.5 41.5 c 128,-1,40
 47 91 47 91 70 200 c 0,41,42
 90 295 90 295 133.5 349 c 128,-1,43
 177 403 177 403 254 403 c 0,44,45
 274 403 274 403 288.5 401 c 128,-1,46
 303 399 303 399 315 395.5 c 128,-1,47
 327 392 327 392 338 386.5 c 128,-1,48
 349 381 349 381 361 374 c 1,49,-1
 398 549 l 1,17,-1
EndSplineSet
EndChar
StartChar: e
Encoding: 101 101 70
Width: 384
Flags: W
Fore
335 228 m 1,0,1
 349 294 349 294 333.5 325.5 c 128,-1,2
 318 357 318 357 266 357 c 0,3,4
 221 357 221 357 188.5 327 c 128,-1,5
 156 297 156 297 141 228 c 1,6,-1
 335 228 l 1,0,1
131 181 m 1,7,8
 122 141 122 141 125.5 114.5 c 128,-1,9
 129 88 129 88 139.5 72.5 c 128,-1,10
 150 57 150 57 166 50.5 c 128,-1,11
 182 44 182 44 199 44 c 0,12,13
 241 44 241 44 270 57.5 c 128,-1,14
 299 71 299 71 328 103 c 0,15,16
 331 106 331 106 336.5 104 c 128,-1,17
 342 102 342 102 348.5 97 c 128,-1,18
 355 92 355 92 361 85 c 128,-1,19
 367 78 367 78 371 72 c 1,20,21
 336 37 336 37 289.5 14 c 128,-1,22
 243 -9 243 -9 194 -9 c 0,23,24
 113 -9 113 -9 80 42 c 128,-1,25
 47 93 47 93 69 196 c 1,26,-1
 70 198 l 1,27,28
 93 305 93 305 146 354 c 128,-1,29
 199 403 199 403 275 403 c 0,30,31
 326 403 326 403 353.5 385.5 c 128,-1,32
 381 368 381 368 391.5 338 c 128,-1,33
 402 308 402 308 399 267.5 c 128,-1,34
 396 227 396 227 386 181 c 1,35,-1
 131 181 l 1,36,-1
 131 181 l 1,7,8
EndSplineSet
EndChar
StartChar: f
Encoding: 102 102 71
Width: 212
Flags: W
Fore
332 550 m 1,0,1
 334 544 334 544 333 534 c 128,-1,2
 332 524 332 524 330 515 c 128,-1,3
 328 506 328 506 324.5 499.5 c 128,-1,4
 321 493 321 493 317 495 c 0,5,6
 297 505 297 505 272 505 c 0,7,8
 260 505 260 505 245 494.5 c 128,-1,9
 230 484 230 484 225 457 c 2,10,-1
 211 395 l 1,11,-1
 282 395 l 1,12,-1
 273 349 l 1,13,-1
 202 349 l 1,14,-1
 128 0 l 1,15,-1
 63 0 l 1,16,-1
 137 349 l 1,17,-1
 82 349 l 1,18,-1
 91 395 l 1,19,-1
 146 395 l 1,20,-1
 158 451 l 2,21,22
 169 503 169 503 201.5 530 c 128,-1,23
 234 557 234 557 285 557 c 0,24,25
 308 557 308 557 332 550 c 1,0,1
EndSplineSet
EndChar
StartChar: g
Encoding: 103 103 72
Width: 380
Flags: W
Fore
352 379 m 1,0,1
 372 396 372 396 397.5 409 c 128,-1,2
 423 422 423 422 444 422 c 0,3,4
 456 422 456 422 454 410 c 0,5,6
 450 394 450 394 446 382 c 0,7,8
 443 375 443 375 440 369 c 1,9,10
 420 369 420 369 406 364.5 c 128,-1,11
 392 360 392 360 378 350 c 1,12,13
 388 333 388 333 391 315 c 128,-1,14
 394 297 394 297 387 268 c 0,15,16
 380 232 380 232 362 205.5 c 128,-1,17
 344 179 344 179 319.5 162.5 c 128,-1,18
 295 146 295 146 265.5 138 c 128,-1,19
 236 130 236 130 205 130 c 0,20,21
 181 130 181 130 152 143 c 1,22,23
 132 135 132 135 122 125.5 c 128,-1,24
 112 116 112 116 110 105 c 0,25,26
 106 88 106 88 129 79 c 128,-1,27
 152 70 152 70 214 70 c 0,28,29
 303 70 303 70 337 43 c 128,-1,30
 371 16 371 16 361 -32 c 0,31,32
 356 -54 356 -54 343 -73.5 c 128,-1,33
 330 -93 330 -93 306 -108 c 128,-1,34
 282 -123 282 -123 245.5 -131.5 c 128,-1,35
 209 -140 209 -140 158 -140 c 256,36,37
 107 -140 107 -140 75 -132 c 128,-1,38
 43 -124 43 -124 26.5 -111 c 128,-1,39
 10 -98 10 -98 6 -81 c 128,-1,40
 2 -64 2 -64 5 -47 c 0,41,42
 10 -21 10 -21 28.5 0.5 c 128,-1,43
 47 22 47 22 92 37 c 1,44,-1
 93 39 l 1,45,46
 66 44 66 44 56.5 59.5 c 128,-1,47
 47 75 47 75 51 92 c 0,48,49
 56 118 56 118 74.5 136.5 c 128,-1,50
 93 155 93 155 119 163 c 1,51,52
 102 174 102 174 92 201.5 c 128,-1,53
 82 229 82 229 89 260 c 0,54,55
 103 326 103 326 153.5 364.5 c 128,-1,56
 204 403 204 403 276 403 c 0,57,58
 305 403 305 403 325.5 393.5 c 128,-1,59
 346 384 346 384 352 379 c 1,0,1
182 19 m 0,60,61
 129 19 129 19 101 3.5 c 128,-1,62
 73 -12 73 -12 67 -38 c 0,63,64
 61 -67 61 -67 87.5 -80.5 c 128,-1,65
 114 -94 114 -94 161 -94 c 0,66,67
 220 -94 220 -94 256 -80.5 c 128,-1,68
 292 -67 292 -67 299 -36 c 0,69,70
 302 -24 302 -24 300.5 -13.5 c 128,-1,71
 299 -3 299 -3 287.5 4 c 128,-1,72
 276 11 276 11 251 15 c 128,-1,73
 226 19 226 19 182 19 c 0,60,61
156 265 m 0,74,75
 150 240 150 240 154.5 222.5 c 128,-1,76
 159 205 159 205 169 195 c 128,-1,77
 179 185 179 185 192.5 180.5 c 128,-1,78
 206 176 206 176 219 176 c 0,79,80
 252 176 252 176 281 195 c 128,-1,81
 310 214 310 214 321 265 c 0,82,83
 326 291 326 291 323 308.5 c 128,-1,84
 320 326 320 326 311 337 c 128,-1,85
 302 348 302 348 288 352.5 c 128,-1,86
 274 357 274 357 257 357 c 0,87,88
 225 357 225 357 195.5 334.5 c 128,-1,89
 166 312 166 312 156 265 c 0,74,75
EndSplineSet
EndChar
StartChar: h
Encoding: 104 104 73
Width: 433
Flags: W
Fore
63 0 m 1,0,-1
 179 549 l 1,1,-1
 244 549 l 1,2,-1
 200 343 l 1,3,4
 231 372 231 372 270 387.5 c 128,-1,5
 309 403 309 403 338 403 c 0,6,7
 400 403 400 403 420.5 368.5 c 128,-1,8
 441 334 441 334 427 270 c 2,9,-1
 370 0 l 1,10,-1
 304 0 l 1,11,-1
 360 265 l 2,12,13
 371 315 371 315 360.5 336 c 128,-1,14
 350 357 350 357 319 357 c 0,15,16
 304 357 304 357 287.5 351.5 c 128,-1,17
 271 346 271 346 253.5 337 c 128,-1,18
 236 328 236 328 219.5 316 c 128,-1,19
 203 304 203 304 189 291 c 1,20,-1
 128 0 l 1,21,-1
 63 0 l 1,0,-1
EndSplineSet
EndChar
StartChar: i
Encoding: 105 105 74
Width: 179
Flags: W
Fore
122 0 m 1,0,-1
 57 0 l 1,1,-1
 140 395 l 1,2,-1
 205 395 l 1,3,-1
 122 0 l 1,0,-1
159 482 m 1,4,-1
 173 549 l 1,5,-1
 238 549 l 1,6,-1
 224 482 l 1,7,-1
 159 482 l 1,4,-1
EndSplineSet
EndChar
StartChar: j
Encoding: 106 106 75
Width: 169
Flags: W
Fore
-57 -67 m 0,0,1
 -51 -71 -51 -71 -33.5 -77 c 128,-1,2
 -16 -83 -16 -83 -2 -83 c 0,3,4
 13 -83 13 -83 24.5 -76 c 128,-1,5
 36 -69 36 -69 41 -48 c 2,6,-1
 135 395 l 1,7,-1
 200 395 l 1,8,-1
 107 -43 l 2,9,10
 97 -91 97 -91 64.5 -115.5 c 128,-1,11
 32 -140 32 -140 -8 -140 c 0,12,13
 -13 -140 -13 -140 -23 -139.5 c 128,-1,14
 -33 -139 -33 -139 -43.5 -138.5 c 128,-1,15
 -54 -138 -54 -138 -63 -137 c 128,-1,16
 -72 -136 -72 -136 -75 -134 c 1,17,18
 -79 -126 -79 -126 -78.5 -113.5 c 128,-1,19
 -78 -101 -78 -101 -75 -89.5 c 128,-1,20
 -72 -78 -72 -78 -67 -71 c 128,-1,21
 -62 -64 -62 -64 -57 -67 c 0,0,1
154 482 m 1,22,-1
 168 549 l 1,23,-1
 233 549 l 1,24,-1
 219 482 l 1,25,-1
 154 482 l 1,22,-1
EndSplineSet
EndChar
StartChar: k
Encoding: 107 107 76
Width: 398
Flags: W
Fore
63 0 m 1,0,-1
 179 549 l 1,1,-1
 242 549 l 1,2,-1
 175 233 l 1,3,-1
 359 395 l 1,4,-1
 445 395 l 1,5,-1
 234 218 l 1,6,-1
 381 0 l 1,7,-1
 296 0 l 1,8,-1
 184 178 l 1,9,-1
 158 154 l 1,10,-1
 126 0 l 1,11,-1
 63 0 l 1,0,-1
EndSplineSet
EndChar
StartChar: l
Encoding: 108 108 77
Width: 179
Flags: W
Fore
173 549 m 1,0,-1
 238 549 l 1,1,-1
 122 0 l 1,2,-1
 57 0 l 1,3,-1
 173 549 l 1,0,-1
EndSplineSet
EndChar
StartChar: m
Encoding: 109 109 78
Width: 643
Flags: W
Fore
63 0 m 1,0,-1
 146 395 l 1,1,-1
 211 395 l 1,2,-1
 201 345 l 1,3,4
 238 377 238 377 272 390 c 128,-1,5
 306 403 306 403 329 403 c 0,6,7
 409 403 409 403 412 341 c 1,8,9
 446 372 446 372 479.5 387.5 c 128,-1,10
 513 403 513 403 556 403 c 0,11,12
 608 403 608 403 630.5 375.5 c 128,-1,13
 653 348 653 348 642 295 c 2,14,-1
 580 0 l 1,15,-1
 514 0 l 1,16,-1
 577 300 l 2,17,18
 581 317 581 317 578 327 c 128,-1,19
 575 337 575 337 568.5 342.5 c 128,-1,20
 562 348 562 348 553 350 c 128,-1,21
 544 352 544 352 535 352 c 0,22,23
 501 352 501 352 469 331 c 128,-1,24
 437 310 437 310 413 281 c 1,25,-1
 354 0 l 1,26,-1
 289 0 l 1,27,-1
 352 300 l 2,28,29
 357 326 357 326 346 339 c 128,-1,30
 335 352 335 352 309 352 c 0,31,32
 296 352 296 352 279.5 346.5 c 128,-1,33
 263 341 263 341 246.5 331 c 128,-1,34
 230 321 230 321 214.5 308 c 128,-1,35
 199 295 199 295 187 281 c 1,36,-1
 128 0 l 1,37,-1
 63 0 l 1,0,-1
EndSplineSet
EndChar
StartChar: n
Encoding: 110 110 79
Width: 443
Flags: W
Fore
63 0 m 1,0,-1
 146 395 l 1,1,-1
 211 395 l 1,2,-1
 200 343 l 1,3,4
 232 376 232 376 272 389.5 c 128,-1,5
 312 403 312 403 348 403 c 0,6,7
 371 403 371 403 390.5 394 c 128,-1,8
 410 385 410 385 422.5 368 c 128,-1,9
 435 351 435 351 439.5 326.5 c 128,-1,10
 444 302 444 302 437 270 c 2,11,-1
 380 0 l 1,12,-1
 314 0 l 1,13,-1
 370 265 l 2,14,15
 375 290 375 290 373.5 306.5 c 128,-1,16
 372 323 372 323 364.5 333 c 128,-1,17
 357 343 357 343 345 347.5 c 128,-1,18
 333 352 333 352 318 352 c 0,19,20
 289 352 289 352 253 332.5 c 128,-1,21
 217 313 217 313 187 281 c 1,22,-1
 128 0 l 1,23,-1
 63 0 l 1,0,-1
EndSplineSet
EndChar
StartChar: o
Encoding: 111 111 80
Width: 390
Flags: W
Fore
270 357 m 256,0,1
 212 357 212 357 182 318 c 128,-1,2
 152 279 152 279 135 198 c 256,3,4
 118 117 118 117 131.5 78 c 128,-1,5
 145 39 145 39 203 39 c 256,6,7
 261 39 261 39 291.5 78 c 128,-1,8
 322 117 322 117 339 198 c 256,9,10
 356 279 356 279 342 318 c 128,-1,11
 328 357 328 357 270 357 c 256,0,1
280 403 m 0,12,13
 327 403 327 403 355.5 389 c 128,-1,14
 384 375 384 375 398.5 348.5 c 128,-1,15
 413 322 413 322 413.5 284 c 128,-1,16
 414 246 414 246 404 198 c 0,17,18
 383 102 383 102 334.5 47 c 128,-1,19
 286 -8 286 -8 193 -8 c 0,20,21
 147 -8 147 -8 118 6 c 128,-1,22
 89 20 89 20 75 47 c 128,-1,23
 61 74 61 74 60.5 112 c 128,-1,24
 60 150 60 150 70 198 c 0,25,26
 90 293 90 293 139 348 c 128,-1,27
 188 403 188 403 280 403 c 0,12,13
EndSplineSet
EndChar
StartChar: p
Encoding: 112 112 81
Width: 412
Flags: W
Fore
147 70 m 1,0,1
 162 56 162 56 180 47 c 128,-1,2
 198 38 198 38 217 38 c 0,3,4
 280 38 280 38 313.5 78 c 128,-1,5
 347 118 347 118 365 203 c 0,6,7
 374 245 374 245 377 274 c 128,-1,8
 380 303 380 303 375.5 321 c 128,-1,9
 371 339 371 339 356.5 347.5 c 128,-1,10
 342 356 342 356 316 356 c 0,11,12
 274 356 274 356 246 335.5 c 128,-1,13
 218 315 218 315 193 284 c 1,14,-1
 147 70 l 1,0,1
140 385 m 1,15,16
 150 387 150 387 160 390 c 0,17,18
 178 395 178 395 195 395 c 0,19,20
 204 395 204 395 208.5 386 c 128,-1,21
 213 377 213 377 208 355 c 2,22,-1
 206 344 l 1,23,-1
 207 344 l 1,24,25
 237 379 237 379 269.5 391 c 128,-1,26
 302 403 302 403 334 403 c 0,27,28
 369 403 369 403 392.5 392 c 128,-1,29
 416 381 416 381 428 356.5 c 128,-1,30
 440 332 440 332 440 292.5 c 128,-1,31
 440 253 440 253 428 195 c 0,32,33
 408 100 408 100 352.5 46 c 128,-1,34
 297 -8 297 -8 219 -8 c 0,35,36
 170 -8 170 -8 135 11 c 1,37,-1
 103 -140 l 1,38,-1
 40 -140 l 1,39,-1
 125 262 l 2,40,41
 127 271 127 271 130 288.5 c 128,-1,42
 133 306 133 306 136 324.5 c 128,-1,43
 139 343 139 343 140.5 360 c 128,-1,44
 142 377 142 377 140 385 c 1,15,16
EndSplineSet
EndChar
StartChar: q
Encoding: 113 113 82
Width: 415
Flags: W
Fore
359 349 m 1,0,1
 370 395 370 395 386 395 c 256,2,3
 402 395 402 395 420 390 c 0,4,5
 430 387 430 387 439 385 c 1,6,7
 435 377 435 377 429 361.5 c 128,-1,8
 423 346 423 346 417.5 328 c 128,-1,9
 412 310 412 310 407.5 292.5 c 128,-1,10
 403 275 403 275 400 262 c 2,11,-1
 315 -140 l 1,12,-1
 252 -140 l 1,13,-1
 286 21 l 1,14,15
 250 3 250 3 222 -2.5 c 128,-1,16
 194 -8 194 -8 177 -8 c 0,17,18
 99 -8 99 -8 74 46 c 128,-1,19
 49 100 49 100 69 195 c 0,20,21
 92 304 92 304 137 353.5 c 128,-1,22
 182 403 182 403 251 403 c 0,23,24
 292 403 292 403 315 389.5 c 128,-1,25
 338 376 338 376 359 349 c 1,0,1
342 284 m 1,26,27
 327 315 327 315 305.5 335.5 c 128,-1,28
 284 356 284 356 249 356 c 0,29,30
 204 356 204 356 178 317.5 c 128,-1,31
 152 279 152 279 136 203 c 0,32,33
 127 161 127 161 122.5 129.5 c 128,-1,34
 118 98 118 98 123.5 78 c 128,-1,35
 129 58 129 58 146.5 48 c 128,-1,36
 164 38 164 38 199 38 c 0,37,38
 218 38 218 38 248 48.5 c 128,-1,39
 278 59 278 59 299 80 c 1,40,-1
 342 284 l 1,26,27
EndSplineSet
EndChar
StartChar: r
Encoding: 114 114 83
Width: 288
Flags: W
Fore
298 332 m 256,0,1
 279 332 279 332 259 324 c 128,-1,2
 239 316 239 316 221 301 c 128,-1,3
 203 286 203 286 189.5 264 c 128,-1,4
 176 242 176 242 170 213 c 2,5,-1
 125 0 l 1,6,-1
 59 0 l 1,7,-1
 142 395 l 1,8,-1
 208 395 l 1,9,-1
 195 330 l 1,10,-1
 196 330 l 1,11,12
 219 367 219 367 253 385 c 128,-1,13
 287 403 287 403 325 403 c 0,14,15
 330 403 330 403 341.5 402 c 128,-1,16
 353 401 353 401 358 398 c 1,17,18
 360 391 360 391 356.5 378.5 c 128,-1,19
 353 366 353 366 348 353.5 c 128,-1,20
 343 341 343 341 337.5 332 c 128,-1,21
 332 323 332 323 330 323 c 1,22,23
 317 332 317 332 298 332 c 256,0,1
EndSplineSet
EndChar
StartChar: s
Encoding: 115 115 84
Width: 347
Flags: W
Fore
170 -8 m 0,0,1
 124 -8 124 -8 88.5 11 c 128,-1,2
 53 30 53 30 34 72 c 1,3,4
 43 80 43 80 51 86 c 0,5,6
 58 91 58 91 65 96.5 c 128,-1,7
 72 102 72 102 76 104 c 0,8,9
 82 107 82 107 86.5 105.5 c 128,-1,10
 91 104 91 104 93 100 c 0,11,12
 111 67 111 67 134 53 c 128,-1,13
 157 39 157 39 183 39 c 0,14,15
 194 39 194 39 207 43.5 c 128,-1,16
 220 48 220 48 232 56 c 128,-1,17
 244 64 244 64 253 76.5 c 128,-1,18
 262 89 262 89 265 105 c 0,19,20
 271 131 271 131 258 145.5 c 128,-1,21
 245 160 245 160 223.5 169.5 c 128,-1,22
 202 179 202 179 175.5 186.5 c 128,-1,23
 149 194 149 194 128 206.5 c 128,-1,24
 107 219 107 219 96 239.5 c 128,-1,25
 85 260 85 260 92 295 c 0,26,27
 98 323 98 323 112.5 343.5 c 128,-1,28
 127 364 127 364 147.5 377 c 128,-1,29
 168 390 168 390 192 396.5 c 128,-1,30
 216 403 216 403 241 403 c 0,31,32
 283 403 283 403 315.5 384.5 c 128,-1,33
 348 366 348 366 362 332 c 1,34,35
 354 324 354 324 346 318 c 0,36,37
 339 313 339 313 331.5 308 c 128,-1,38
 324 303 324 303 316 301 c 256,39,40
 308 299 308 299 303 309 c 0,41,42
 290 332 290 332 272.5 344.5 c 128,-1,43
 255 357 255 357 229 357 c 0,44,45
 220 357 220 357 209.5 354.5 c 128,-1,46
 199 352 199 352 189 345 c 128,-1,47
 179 338 179 338 171 326.5 c 128,-1,48
 163 315 163 315 159 297 c 0,49,50
 154 275 154 275 167 263 c 128,-1,51
 180 251 180 251 202 242.5 c 128,-1,52
 224 234 224 234 250 225.5 c 128,-1,53
 276 217 276 217 296.5 203 c 128,-1,54
 317 189 317 189 328 166 c 128,-1,55
 339 143 339 143 331 105 c 0,56,57
 325 78 325 78 309.5 57 c 128,-1,58
 294 36 294 36 271.5 21.5 c 128,-1,59
 249 7 249 7 223 -0.5 c 128,-1,60
 197 -8 197 -8 170 -8 c 0,0,1
EndSplineSet
EndChar
StartChar: t
Encoding: 116 116 85
Width: 241
Flags: W
Fore
223 -2 m 1,0,1
 209 -6 209 -6 197 -6.5 c 128,-1,2
 185 -7 185 -7 171 -8 c 0,3,4
 122 -8 122 -8 97 8.5 c 128,-1,5
 72 25 72 25 80 62 c 2,6,-1
 141 349 l 1,7,-1
 82 349 l 1,8,-1
 91 395 l 1,9,-1
 150 395 l 1,10,-1
 178 524 l 1,11,-1
 243 524 l 1,12,-1
 215 395 l 1,13,-1
 303 395 l 1,14,-1
 294 349 l 1,15,-1
 206 349 l 1,16,-1
 150 89 l 2,17,18
 142 49 142 49 183 49 c 0,19,20
 207 49 207 49 232 60 c 0,21,22
 237 62 237 62 237.5 54.5 c 128,-1,23
 238 47 238 47 236 36.5 c 128,-1,24
 234 26 234 26 230.5 15 c 128,-1,25
 227 4 227 4 223 -2 c 1,0,1
EndSplineSet
EndChar
StartChar: u
Encoding: 117 117 86
Width: 443
Flags: W
Fore
330 53 m 1,0,1
 316 38 316 38 298 27 c 128,-1,2
 280 16 280 16 260.5 8 c 128,-1,3
 241 0 241 0 222 -4 c 128,-1,4
 203 -8 203 -8 188 -8 c 0,5,6
 125 -8 125 -8 100 26.5 c 128,-1,7
 75 61 75 61 89 125 c 2,8,-1
 146 395 l 1,9,-1
 211 395 l 1,10,-1
 155 130 l 2,11,12
 144 81 144 81 159.5 60 c 128,-1,13
 175 39 175 39 206 39 c 0,14,15
 217 39 217 39 233.5 44 c 128,-1,16
 250 49 250 49 268 58.5 c 128,-1,17
 286 68 286 68 304.5 82.5 c 128,-1,18
 323 97 323 97 338 115 c 1,19,-1
 397 395 l 1,20,-1
 463 395 l 1,21,-1
 401 102 l 2,22,23
 396 75 396 75 394.5 46.5 c 128,-1,24
 393 18 393 18 394 8 c 1,25,26
 385 4 385 4 368 2 c 128,-1,27
 351 0 351 0 343 0 c 0,28,29
 339 0 339 0 333.5 1.5 c 128,-1,30
 328 3 328 3 326 8 c 0,31,32
 325 12 325 12 325.5 19 c 128,-1,33
 326 26 326 26 327 34 c 0,34,35
 328 43 328 43 330 53 c 1,0,1
EndSplineSet
EndChar
StartChar: v
Encoding: 118 118 87
Width: 357
Flags: W
Fore
93 395 m 1,0,-1
 162 395 l 1,1,-1
 194 80 l 1,2,-1
 196 80 l 1,3,-1
 361 395 l 1,4,-1
 430 395 l 1,5,-1
 211 0 l 1,6,-1
 146 0 l 1,7,-1
 93 395 l 1,0,-1
EndSplineSet
EndChar
StartChar: w
Encoding: 119 119 88
Width: 527
Flags: W
Fore
89 395 m 1,0,-1
 154 395 l 1,1,-1
 167 88 l 1,2,-1
 168 88 l 1,3,-1
 313 395 l 1,4,-1
 379 395 l 1,5,-1
 391 88 l 1,6,-1
 393 88 l 1,7,-1
 537 395 l 1,8,-1
 604 395 l 1,9,-1
 406 0 l 1,10,-1
 351 0 l 1,11,-1
 328 307 l 1,12,-1
 326 307 l 1,13,-1
 172 0 l 1,14,-1
 116 0 l 1,15,-1
 89 395 l 1,0,-1
EndSplineSet
EndChar
StartChar: x
Encoding: 120 120 89
Width: 358
Flags: W
Fore
83 0 m 1,0,-1
 8 0 l 1,1,-1
 186 210 l 1,2,-1
 106 395 l 1,3,-1
 181 395 l 1,4,-1
 234 263 l 1,5,-1
 343 395 l 1,6,-1
 417 395 l 1,7,-1
 260 210 l 1,8,-1
 350 0 l 1,9,-1
 276 0 l 1,10,-1
 212 156 l 1,11,-1
 83 0 l 1,0,-1
EndSplineSet
EndChar
StartChar: y
Encoding: 121 121 90
Width: 357
Flags: W
Fore
93 395 m 1,0,-1
 162 395 l 1,1,-1
 197 94 l 1,2,-1
 198 94 l 1,3,-1
 362 395 l 1,4,-1
 432 395 l 1,5,-1
 194 -29 l 2,6,7
 162 -86 162 -86 115.5 -113 c 128,-1,8
 69 -140 69 -140 15 -140 c 0,9,10
 -8 -140 -8 -140 -32 -133 c 1,11,12
 -34 -127 -34 -127 -33 -116.5 c 128,-1,13
 -32 -106 -32 -106 -29 -95.5 c 128,-1,14
 -26 -85 -26 -85 -22.5 -78 c 128,-1,15
 -19 -71 -19 -71 -15 -73 c 0,16,17
 5 -84 5 -84 30 -84 c 0,18,19
 42 -84 42 -84 56 -81.5 c 128,-1,20
 70 -79 70 -79 85.5 -69.5 c 128,-1,21
 101 -60 101 -60 116.5 -42 c 128,-1,22
 132 -24 132 -24 147 6 c 1,23,-1
 93 395 l 1,0,-1
EndSplineSet
EndChar
StartChar: z
Encoding: 122 122 91
Width: 337
Flags: W
Fore
120 395 m 1,0,-1
 391 395 l 1,1,-1
 383 357 l 1,2,-1
 109 46 l 1,3,-1
 323 46 l 1,4,-1
 314 0 l 1,5,-1
 19 0 l 1,6,-1
 27 39 l 1,7,-1
 301 349 l 1,8,-1
 111 349 l 1,9,-1
 120 395 l 1,0,-1
EndSplineSet
EndChar
StartChar: braceleft
Encoding: 123 123 92
Width: 273
Flags: W
Fore
89 265 m 1,0,1
 115 265 115 265 128.5 281.5 c 128,-1,2
 142 298 142 298 148 327 c 2,3,-1
 178 470 l 2,4,5
 187 512 187 512 209.5 534.5 c 128,-1,6
 232 557 232 557 264 557 c 2,7,-1
 331 557 l 1,8,-1
 323 519 l 1,9,-1
 285 519 l 2,10,11
 270 519 270 519 260 510 c 128,-1,12
 250 501 250 501 243 469 c 2,13,-1
 213 329 l 2,14,15
 205 291 205 291 187.5 273 c 128,-1,16
 170 255 170 255 142 248 c 1,17,-1
 142 246 l 1,18,19
 167 240 167 240 177 221.5 c 128,-1,20
 187 203 187 203 179 165 c 2,21,-1
 149 25 l 2,22,23
 142 -7 142 -7 148 -16 c 128,-1,24
 154 -25 154 -25 169 -25 c 2,25,-1
 207 -25 l 1,26,-1
 199 -63 l 1,27,-1
 132 -63 l 2,28,29
 100 -63 100 -63 87.5 -40.5 c 128,-1,30
 75 -18 75 -18 84 24 c 2,31,-1
 114 167 l 2,32,33
 120 196 120 196 113.5 212.5 c 128,-1,34
 107 229 107 229 81 229 c 1,35,-1
 89 265 l 1,0,1
EndSplineSet
EndChar
StartChar: bar
Encoding: 124 124 93
Width: 179
Flags: W
Fore
177 557 m 1,0,-1
 238 557 l 1,1,-1
 118 -8 l 1,2,-1
 57 -8 l 1,3,-1
 177 557 l 1,0,-1
EndSplineSet
EndChar
StartChar: braceright
Encoding: 125 125 94
Width: 273
Flags: W
Fore
288 229 m 1,0,1
 262 229 262 229 248.5 212.5 c 128,-1,2
 235 196 235 196 229 167 c 2,3,-1
 199 24 l 2,4,5
 190 -18 190 -18 167.5 -40.5 c 128,-1,6
 145 -63 145 -63 113 -63 c 2,7,-1
 46 -63 l 1,8,-1
 54 -25 l 1,9,-1
 92 -25 l 2,10,11
 107 -25 107 -25 117 -16 c 128,-1,12
 127 -7 127 -7 134 25 c 2,13,-1
 164 165 l 2,14,15
 172 203 172 203 189.5 221.5 c 128,-1,16
 207 240 207 240 235 246 c 1,17,-1
 235 248 l 1,18,19
 210 255 210 255 200 273 c 128,-1,20
 190 291 190 291 198 329 c 2,21,-1
 228 469 l 2,22,23
 235 501 235 501 229 510 c 128,-1,24
 223 519 223 519 208 519 c 2,25,-1
 170 519 l 1,26,-1
 178 557 l 1,27,-1
 245 557 l 2,28,29
 277 557 277 557 289.5 534.5 c 128,-1,30
 302 512 302 512 293 470 c 2,31,-1
 263 327 l 2,32,33
 257 298 257 298 263.5 281.5 c 128,-1,34
 270 265 270 265 296 265 c 1,35,-1
 288 229 l 1,0,1
EndSplineSet
EndChar
StartChar: asciitilde
Encoding: 126 126 95
Width: 456
Flags: W
Fore
462 215 m 1,0,1
 444 191 444 191 416.5 171 c 128,-1,2
 389 151 389 151 346 151 c 0,3,4
 326 151 326 151 304.5 158 c 128,-1,5
 283 165 283 165 261 176 c 0,6,7
 240 185 240 185 219.5 193 c 128,-1,8
 199 201 199 201 182 201 c 0,9,10
 157 201 157 201 143 189.5 c 128,-1,11
 129 178 129 178 110 158 c 1,12,-1
 79 191 l 1,13,14
 96 214 96 214 124.5 234 c 128,-1,15
 153 254 153 254 195 254 c 0,16,17
 215 254 215 254 236.5 247 c 128,-1,18
 258 240 258 240 280 229 c 0,19,20
 301 220 301 220 321.5 212 c 128,-1,21
 342 204 342 204 359 204 c 0,22,23
 384 204 384 204 398 215.5 c 128,-1,24
 412 227 412 227 431 247 c 1,25,-1
 462 215 l 1,0,1
EndSplineSet
EndChar
StartChar: uni0E33.alt1
Encoding: 65537 -1 96
Width: 349
Flags: W
Fore
-47 534 m 256,0,1
 -53 506 -53 506 -76.5 486.5 c 128,-1,2
 -100 467 -100 467 -128 467 c 256,3,4
 -156 467 -156 467 -171.5 486.5 c 128,-1,5
 -187 506 -187 506 -181 534 c 256,6,7
 -175 562 -175 562 -151.5 581.5 c 128,-1,8
 -128 601 -128 601 -100 601 c 256,9,10
 -72 601 -72 601 -56.5 581.5 c 128,-1,11
 -41 562 -41 562 -47 534 c 256,0,1
-87 534 m 256,12,13
 -85 545 -85 545 -91 553 c 128,-1,14
 -97 561 -97 561 -108 561 c 256,15,16
 -119 561 -119 561 -129 553 c 128,-1,17
 -139 545 -139 545 -141 534 c 256,18,19
 -143 523 -143 523 -137 515 c 128,-1,20
 -131 507 -131 507 -120 507 c 256,21,22
 -109 507 -109 507 -99 515 c 128,-1,23
 -89 523 -89 523 -87 534 c 256,12,13
227 0 m 1,24,25
 234 31 234 31 240 60 c 0,26,27
 245 85 245 85 250.5 111 c 128,-1,28
 256 137 256 137 259 153 c 0,29,30
 266 185 266 185 273 209 c 128,-1,31
 280 233 280 233 288 268 c 0,32,33
 295 301 295 301 289 319.5 c 128,-1,34
 283 338 283 338 271.5 347 c 128,-1,35
 260 356 260 356 247.5 358.5 c 128,-1,36
 235 361 235 361 229 361 c 0,37,38
 194 361 194 361 168 343 c 128,-1,39
 142 325 142 325 110 295 c 0,40,41
 107 292 107 292 101.5 294 c 128,-1,42
 96 296 96 296 90 301 c 128,-1,43
 84 306 84 306 78 313 c 128,-1,44
 72 320 72 320 69 326 c 1,45,46
 81 339 81 339 101 353 c 128,-1,47
 121 367 121 367 144 379 c 128,-1,48
 167 391 167 391 190.5 398.5 c 128,-1,49
 214 406 214 406 233 406 c 0,50,51
 261 406 261 406 285.5 399 c 128,-1,52
 310 392 310 392 327 377 c 128,-1,53
 344 362 344 362 351 337.5 c 128,-1,54
 358 313 358 313 351 278 c 0,55,56
 343 246 343 246 335.5 217.5 c 128,-1,57
 328 189 328 189 321 158 c 0,58,59
 319 147 319 147 314.5 126 c 128,-1,60
 310 105 310 105 306 82.5 c 128,-1,61
 302 60 302 60 298.5 41 c 128,-1,62
 295 22 295 22 295 14 c 0,63,64
 295 4 295 4 292.5 2 c 128,-1,65
 290 0 290 0 286 0 c 2,66,-1
 227 0 l 1,67,-1
 227 0 l 1,24,25
EndSplineSet
EndChar
StartChar: exclamdown
Encoding: 161 161 100
Width: 190
Flags: W
Fore
19 -154 m 1,0,-1
 112 216 l 1,1,-1
 170 216 l 1,2,-1
 105 -154 l 1,3,-1
 19 -154 l 1,0,-1
221 395 m 1,4,-1
 205 317 l 1,5,-1
 119 317 l 1,6,-1
 135 395 l 1,7,-1
 221 395 l 1,4,-1
EndSplineSet
EndChar
StartChar: cent
Encoding: 162 162 101
Width: 423
Flags: W
Fore
293 327 m 1,0,1
 279 331 l 128,-1,2
 272 333 272 333 264 333 c 0,3,4
 243 333 243 333 224 326.5 c 128,-1,5
 205 320 205 320 188.5 303.5 c 128,-1,6
 172 287 172 287 159 258 c 128,-1,7
 146 229 146 229 137 185 c 0,8,9
 126 133 126 133 129 104.5 c 128,-1,10
 132 76 132 76 146 58 c 1,11,-1
 293 327 l 1,0,1
174 43 m 1,12,13
 179 41 179 41 186.5 39.5 c 128,-1,14
 194 38 194 38 202 38 c 0,15,16
 225 38 225 38 240.5 42 c 128,-1,17
 256 46 256 46 268 54 c 128,-1,18
 280 62 280 62 289.5 74 c 128,-1,19
 299 86 299 86 309 103 c 1,20,-1
 348 82 l 1,21,22
 325 45 325 45 287.5 19 c 128,-1,23
 250 -7 250 -7 192 -7 c 0,24,25
 171 -7 171 -7 154 -2 c 1,26,-1
 111 -81 l 1,27,-1
 75 -81 l 1,28,-1
 125 10 l 1,29,30
 90 32 90 32 77.5 72.5 c 128,-1,31
 65 113 65 113 81 185 c 0,32,33
 92 238 92 238 111 274.5 c 128,-1,34
 130 311 130 311 155 333.5 c 128,-1,35
 180 356 180 356 210 366.5 c 128,-1,36
 240 377 240 377 274 377 c 0,37,38
 294 377 294 377 312 371 c 1,39,-1
 352 443 l 1,40,-1
 388 443 l 1,41,-1
 340 357 l 1,42,43
 376 331 376 331 380 281 c 1,44,-1
 334 261 l 1,45,46
 332 275 332 275 329 286.5 c 128,-1,47
 326 298 326 298 318 308 c 1,48,-1
 174 43 l 1,12,13
EndSplineSet
EndChar
StartChar: sterling
Encoding: 163 163 102
Width: 395
Flags: W
Fore
20 44 m 1,0,1
 47 53 47 53 65.5 67.5 c 128,-1,2
 84 82 84 82 96 100 c 128,-1,3
 108 118 108 118 115 138.5 c 128,-1,4
 122 159 122 159 127 181 c 0,5,6
 129 192 129 192 130 203.5 c 128,-1,7
 131 215 131 215 133 226 c 1,8,-1
 58 226 l 1,9,-1
 66 266 l 1,10,-1
 137 266 l 1,11,12
 140 292 140 292 141 312 c 128,-1,13
 142 332 142 332 147 357 c 0,14,15
 161 419 161 419 205 456 c 128,-1,16
 249 493 249 493 311 493 c 0,17,18
 369 493 369 493 399.5 459.5 c 128,-1,19
 430 426 430 426 428 369 c 1,20,-1
 377 351 l 1,21,22
 377 396 377 396 360.5 421.5 c 128,-1,23
 344 447 344 447 302 447 c 0,24,25
 266 447 266 447 240 423.5 c 128,-1,26
 214 400 214 400 204 355 c 0,27,28
 199 330 199 330 198.5 310 c 128,-1,29
 198 290 198 290 197 266 c 1,30,-1
 276 266 l 1,31,-1
 268 226 l 1,32,-1
 191 226 l 1,33,34
 190 218 190 218 189 208.5 c 128,-1,35
 188 199 188 199 186 190 c 0,36,37
 179 157 179 157 168.5 131.5 c 128,-1,38
 158 106 158 106 138 76 c 1,39,40
 158 61 158 61 178.5 49.5 c 128,-1,41
 199 38 199 38 228 38 c 0,42,43
 256 38 256 38 286 57 c 128,-1,44
 316 76 316 76 340 129 c 1,45,-1
 383 112 l 1,46,47
 360 55 360 55 320.5 24 c 128,-1,48
 281 -7 281 -7 225 -7 c 0,49,50
 201 -7 201 -7 184 -4 c 128,-1,51
 167 -1 167 -1 153 4.5 c 128,-1,52
 139 10 139 10 127.5 18 c 128,-1,53
 116 26 116 26 102 36 c 1,54,55
 84 18 84 18 58.5 8 c 128,-1,56
 33 -2 33 -2 9 -7 c 1,57,-1
 20 44 l 1,0,1
EndSplineSet
EndChar
StartChar: currency
Encoding: 164 164 103
Width: 423
Flags: W
Fore
485 404 m 1,0,-1
 436 363 l 1,1,2
 452 337 452 337 455.5 307 c 128,-1,3
 459 277 459 277 452 245 c 0,4,5
 444 213 444 213 428 182 c 128,-1,6
 412 151 412 151 385 126 c 1,7,-1
 418 85 l 1,8,-1
 382 56 l 1,9,-1
 349 97 l 1,10,11
 288 56 288 56 222 56 c 0,12,13
 190 56 190 56 162 66.5 c 128,-1,14
 134 77 134 77 114 97 c 1,15,-1
 62 56 l 1,16,-1
 41 85 l 1,17,-1
 90 126 l 1,18,19
 73 151 73 151 70 182 c 128,-1,20
 67 213 67 213 75 245 c 0,21,22
 82 277 82 277 97.5 307 c 128,-1,23
 113 337 113 337 141 363 c 1,24,-1
 108 404 l 1,25,-1
 143 433 l 1,26,-1
 177 391 l 1,27,28
 206 412 206 412 238.5 422.5 c 128,-1,29
 271 433 271 433 303 433 c 0,30,31
 370 433 370 433 412 391 c 1,32,-1
 463 433 l 1,33,-1
 485 404 l 1,0,-1
234 110 m 256,34,35
 261 110 261 110 287.5 121 c 128,-1,36
 314 132 314 132 335.5 150.5 c 128,-1,37
 357 169 357 169 372.5 193.5 c 128,-1,38
 388 218 388 218 394 245 c 256,39,40
 400 272 400 272 394.5 296.5 c 128,-1,41
 389 321 389 321 375.5 339.5 c 128,-1,42
 362 358 362 358 340 369 c 128,-1,43
 318 380 318 380 291 380 c 256,44,45
 264 380 264 380 238 369 c 128,-1,46
 212 358 212 358 190.5 339.5 c 128,-1,47
 169 321 169 321 154 296.5 c 128,-1,48
 139 272 139 272 133 245 c 256,49,50
 127 218 127 218 132 193.5 c 128,-1,51
 137 169 137 169 150.5 150.5 c 128,-1,52
 164 132 164 132 185.5 121 c 128,-1,53
 207 110 207 110 234 110 c 256,34,35
EndSplineSet
EndChar
StartChar: yen
Encoding: 165 165 104
Width: 406
Flags: W
Fore
405 255 m 1,0,-1
 312 255 l 1,1,-1
 275 206 l 1,2,-1
 273 197 l 1,3,-1
 392 197 l 1,4,-1
 384 157 l 1,5,-1
 265 157 l 1,6,-1
 232 0 l 1,7,-1
 169 0 l 1,8,-1
 202 157 l 1,9,-1
 82 157 l 1,10,-1
 90 197 l 1,11,-1
 210 197 l 1,12,-1
 212 206 l 1,13,-1
 198 255 l 1,14,-1
 103 255 l 1,15,-1
 111 296 l 1,16,-1
 187 296 l 1,17,-1
 128 486 l 1,18,-1
 190 486 l 1,19,-1
 254 263 l 1,20,-1
 423 486 l 1,21,-1
 484 486 l 1,22,-1
 339 296 l 1,23,-1
 413 296 l 1,24,-1
 405 255 l 1,0,-1
EndSplineSet
EndChar
StartChar: brokenbar
Encoding: 166 166 105
Width: 189
Flags: W
Fore
105 195 m 1,0,-1
 166 195 l 1,1,-1
 123 -8 l 1,2,-1
 62 -8 l 1,3,-1
 105 195 l 1,0,-1
169 497 m 1,4,-1
 230 497 l 1,5,-1
 187 294 l 1,6,-1
 126 294 l 1,7,-1
 169 497 l 1,4,-1
EndSplineSet
EndChar
StartChar: section
Encoding: 167 167 106
Width: 366
Flags: W
Fore
347 388 m 1,0,1
 339 416 339 416 323.5 432 c 128,-1,2
 308 448 308 448 283 448 c 0,3,4
 257 448 257 448 243 436 c 128,-1,5
 229 424 229 424 225 407 c 0,6,7
 221 391 221 391 231.5 377 c 128,-1,8
 242 363 242 363 258.5 348.5 c 128,-1,9
 275 334 275 334 294.5 318 c 128,-1,10
 314 302 314 302 329.5 282 c 128,-1,11
 345 262 345 262 353 237 c 128,-1,12
 361 212 361 212 354 180 c 0,13,14
 346 141 346 141 318 122 c 128,-1,15
 290 103 290 103 254 100 c 1,16,17
 267 80 267 80 275.5 63 c 128,-1,18
 284 46 284 46 279 19 c 0,19,20
 269 -26 269 -26 235 -43.5 c 128,-1,21
 201 -61 201 -61 161 -61 c 0,22,23
 143 -61 143 -61 126.5 -56 c 128,-1,24
 110 -51 110 -51 96.5 -41.5 c 128,-1,25
 83 -32 83 -32 73 -19 c 128,-1,26
 63 -6 63 -6 60 10 c 1,27,-1
 107 40 l 1,28,29
 112 16 112 16 131 -1 c 128,-1,30
 150 -18 150 -18 170 -18 c 0,31,32
 202 -18 202 -18 215.5 -4 c 128,-1,33
 229 10 229 10 232 24 c 256,34,35
 235 38 235 38 224.5 52.5 c 128,-1,36
 214 67 214 67 198 83 c 128,-1,37
 182 99 182 99 163 117 c 128,-1,38
 144 135 144 135 128.5 156.5 c 128,-1,39
 113 178 113 178 105.5 202.5 c 128,-1,40
 98 227 98 227 104 256 c 0,41,42
 112 293 112 293 141 310.5 c 128,-1,43
 170 328 170 328 207 328 c 1,44,-1
 210 330 l 1,45,46
 193 344 193 344 182.5 363.5 c 128,-1,47
 172 383 172 383 178 413 c 0,48,49
 186 452 186 452 216 472 c 128,-1,50
 246 492 246 492 291 492 c 0,51,52
 330 492 330 492 357 472 c 128,-1,53
 384 452 384 452 393 417 c 1,54,-1
 347 388 l 1,0,1
208 289 m 256,55,56
 191 289 191 289 177 280.5 c 128,-1,57
 163 272 163 272 161 259 c 0,58,59
 156 236 156 236 164 214.5 c 128,-1,60
 172 193 172 193 185.5 176 c 128,-1,61
 199 159 199 159 215.5 149 c 128,-1,62
 232 139 232 139 245 139 c 0,63,64
 269 139 269 139 281.5 150.5 c 128,-1,65
 294 162 294 162 297 178 c 0,66,67
 302 199 302 199 294.5 218.5 c 128,-1,68
 287 238 287 238 273.5 254 c 128,-1,69
 260 270 260 270 242.5 279.5 c 128,-1,70
 225 289 225 289 208 289 c 256,55,56
EndSplineSet
EndChar
StartChar: dieresis
Encoding: 168 168 107
Width: 209
Flags: W
Fore
182 529 m 1,0,-1
 165 447 l 1,1,-1
 95 447 l 1,2,-1
 112 529 l 1,3,-1
 182 529 l 1,0,-1
321 529 m 1,4,-1
 304 447 l 1,5,-1
 234 447 l 1,6,-1
 251 529 l 1,7,-1
 321 529 l 1,4,-1
EndSplineSet
EndChar
StartChar: copyright
Encoding: 169 169 108
Width: 608
Flags: W
Fore
373 493 m 256,0,1
 425 493 425 493 466 473 c 128,-1,2
 507 453 507 453 534 419 c 128,-1,3
 561 385 561 385 571 339.5 c 128,-1,4
 581 294 581 294 570 243 c 256,5,6
 559 192 559 192 530 146.5 c 128,-1,7
 501 101 501 101 459.5 67 c 128,-1,8
 418 33 418 33 368.5 13 c 128,-1,9
 319 -7 319 -7 267 -7 c 256,10,11
 215 -7 215 -7 174 13 c 128,-1,12
 133 33 133 33 106 67 c 128,-1,13
 79 101 79 101 69 146.5 c 128,-1,14
 59 192 59 192 70 243 c 256,15,16
 81 294 81 294 110 339.5 c 128,-1,17
 139 385 139 385 180.5 419 c 128,-1,18
 222 453 222 453 271.5 473 c 128,-1,19
 321 493 321 493 373 493 c 256,0,1
277 38 m 0,20,21
 320 38 320 38 360 54 c 128,-1,22
 400 70 400 70 432.5 98 c 128,-1,23
 465 126 465 126 488 163 c 128,-1,24
 511 200 511 200 520 243 c 256,25,26
 529 286 529 286 522 323.5 c 128,-1,27
 515 361 515 361 494 388.5 c 128,-1,28
 473 416 473 416 440 432 c 128,-1,29
 407 448 407 448 364 448 c 0,30,31
 322 448 322 448 282 432 c 128,-1,32
 242 416 242 416 209 388.5 c 128,-1,33
 176 361 176 361 152.5 323.5 c 128,-1,34
 129 286 129 286 120 243 c 256,35,36
 111 200 111 200 118.5 163 c 128,-1,37
 126 126 126 126 147 98 c 128,-1,38
 168 70 168 70 201.5 54 c 128,-1,39
 235 38 235 38 277 38 c 0,20,21
432 195 m 1,40,41
 413 153 413 153 382 123 c 128,-1,42
 351 93 351 93 296 93 c 0,43,44
 229 93 229 93 204 132.5 c 128,-1,45
 179 172 179 172 194 244 c 0,46,47
 210 316 210 316 250 354.5 c 128,-1,48
 290 393 290 393 357 393 c 0,49,50
 411 393 411 393 434.5 367.5 c 128,-1,51
 458 342 458 342 453 293 c 1,52,-1
 399 293 l 1,53,54
 400 321 400 321 389 336 c 128,-1,55
 378 351 378 351 349 351 c 0,56,57
 306 351 306 351 284 325.5 c 128,-1,58
 262 300 262 300 250 244 c 0,59,60
 239 190 239 190 251 162.5 c 128,-1,61
 263 135 263 135 305 135 c 0,62,63
 332 135 332 135 349.5 150.5 c 128,-1,64
 367 166 367 166 378 195 c 1,65,-1
 432 195 l 1,40,41
EndSplineSet
EndChar
StartChar: ordfeminine
Encoding: 170 170 109
Width: 228
Flags: W
Fore
128 504 m 1,0,1
 151 533 151 533 176.5 545 c 128,-1,2
 202 557 202 557 238 557 c 0,3,4
 281 557 281 557 296.5 539.5 c 128,-1,5
 312 522 312 522 304 484 c 2,6,-1
 279 365 l 2,7,8
 275 348 275 348 274 338.5 c 128,-1,9
 273 329 273 329 274 316 c 1,10,-1
 230 316 l 1,11,-1
 231 342 l 1,12,13
 217 332 217 332 196.5 322 c 128,-1,14
 176 312 176 312 147 312 c 0,15,16
 116 312 116 312 99 328 c 128,-1,17
 82 344 82 344 89 373 c 0,18,19
 95 403 95 403 114.5 420.5 c 128,-1,20
 134 438 134 438 158.5 448 c 128,-1,21
 183 458 183 458 209 463 c 128,-1,22
 235 468 235 468 254 473 c 1,23,-1
 258 492 l 2,24,25
 264 521 264 521 226 521 c 0,26,27
 209 521 209 521 192.5 514.5 c 128,-1,28
 176 508 176 508 158 488 c 1,29,-1
 128 504 l 1,0,1
246 436 m 1,30,31
 229 432 229 432 211 428.5 c 128,-1,32
 193 425 193 425 178 419 c 128,-1,33
 163 413 163 413 151.5 403.5 c 128,-1,34
 140 394 140 394 137 378 c 0,35,36
 134 364 134 364 141.5 356.5 c 128,-1,37
 149 349 149 349 160 349 c 0,38,39
 200 349 200 349 235 382 c 1,40,-1
 246 436 l 1,30,31
EndSplineSet
EndChar
StartChar: guillemotleft
Encoding: 171 171 110
Width: 380
Flags: W
Fore
284 200 m 1,0,-1
 334 81 l 1,1,-1
 265 81 l 1,2,-1
 217 200 l 1,3,-1
 314 314 l 1,4,-1
 383 314 l 1,5,-1
 284 200 l 1,0,-1
172 200 m 1,6,-1
 221 81 l 1,7,-1
 151 81 l 1,8,-1
 105 200 l 1,9,-1
 200 314 l 1,10,-1
 270 314 l 1,11,-1
 172 200 l 1,6,-1
EndSplineSet
EndChar
StartChar: logicalnot
Encoding: 172 172 111
Width: 456
Flags: W
Fore
416 243 m 1,0,-1
 81 243 l 1,1,-1
 92 295 l 1,2,-1
 488 295 l 1,3,-1
 447 101 l 1,4,-1
 386 101 l 1,5,-1
 416 243 l 1,0,-1
EndSplineSet
EndChar
StartChar: registered
Encoding: 174 174 112
Width: 608
Flags: W
Fore
256 101 m 1,0,-1
 203 101 l 1,1,-1
 263 384 l 1,2,-1
 371 384 l 2,3,4
 419 384 419 384 435.5 361.5 c 128,-1,5
 452 339 452 339 444 301 c 0,6,7
 436 264 436 264 411.5 243.5 c 128,-1,8
 387 223 387 223 362 218 c 1,9,-1
 406 101 l 1,10,-1
 349 101 l 1,11,-1
 316 218 l 1,12,-1
 281 218 l 1,13,-1
 256 101 l 1,0,-1
319 259 m 2,14,15
 333 259 333 259 344.5 259 c 128,-1,16
 356 259 356 259 365 262.5 c 128,-1,17
 374 266 374 266 381 275 c 128,-1,18
 388 284 388 284 392 302 c 0,19,20
 398 331 398 331 387 337 c 128,-1,21
 376 343 376 343 353 343 c 2,22,-1
 307 343 l 1,23,-1
 290 259 l 1,24,-1
 319 259 l 2,14,15
373 493 m 256,25,26
 425 493 425 493 466 473 c 128,-1,27
 507 453 507 453 534 419 c 128,-1,28
 561 385 561 385 571 339.5 c 128,-1,29
 581 294 581 294 570 243 c 256,30,31
 559 192 559 192 530 146.5 c 128,-1,32
 501 101 501 101 459.5 67 c 128,-1,33
 418 33 418 33 368.5 13 c 128,-1,34
 319 -7 319 -7 267 -7 c 256,35,36
 215 -7 215 -7 174 13 c 128,-1,37
 133 33 133 33 106 67 c 128,-1,38
 79 101 79 101 69 146.5 c 128,-1,39
 59 192 59 192 70 243 c 256,40,41
 81 294 81 294 110 339.5 c 128,-1,42
 139 385 139 385 180.5 419 c 128,-1,43
 222 453 222 453 271.5 473 c 128,-1,44
 321 493 321 493 373 493 c 256,25,26
277 38 m 0,45,46
 320 38 320 38 360 54 c 128,-1,47
 400 70 400 70 432.5 98 c 128,-1,48
 465 126 465 126 488 163 c 128,-1,49
 511 200 511 200 520 243 c 256,50,51
 529 286 529 286 522 323.5 c 128,-1,52
 515 361 515 361 494 388.5 c 128,-1,53
 473 416 473 416 440 432 c 128,-1,54
 407 448 407 448 364 448 c 0,55,56
 322 448 322 448 282 432 c 128,-1,57
 242 416 242 416 209 388.5 c 128,-1,58
 176 361 176 361 152.5 323.5 c 128,-1,59
 129 286 129 286 120 243 c 256,60,61
 111 200 111 200 118.5 163 c 128,-1,62
 126 126 126 126 147 98 c 128,-1,63
 168 70 168 70 201.5 54 c 128,-1,64
 235 38 235 38 277 38 c 0,45,46
EndSplineSet
EndChar
StartChar: macron
Encoding: 175 175 113
Width: 169
Flags: W
Fore
80 513 m 1,0,-1
 306 513 l 1,1,-1
 294 459 l 1,2,-1
 68 459 l 1,3,-1
 80 513 l 1,0,-1
EndSplineSet
EndChar
StartChar: degree
Encoding: 176 176 114
Width: 304
Flags: W
Fore
261 513 m 256,0,1
 232 513 232 513 209.5 494 c 128,-1,2
 187 475 187 475 181 446 c 256,3,4
 175 417 175 417 189 398 c 128,-1,5
 203 379 203 379 232 379 c 256,6,7
 261 379 261 379 283 398 c 128,-1,8
 305 417 305 417 311 446 c 256,9,10
 317 475 317 475 303.5 494 c 128,-1,11
 290 513 290 513 261 513 c 256,0,1
270 557 m 256,12,13
 294 557 294 557 312 548 c 128,-1,14
 330 539 330 539 342 524 c 128,-1,15
 354 509 354 509 358 489 c 128,-1,16
 362 469 362 469 357 446 c 256,17,18
 352 423 352 423 339 402.5 c 128,-1,19
 326 382 326 382 308 367 c 128,-1,20
 290 352 290 352 268 343 c 128,-1,21
 246 334 246 334 222 334 c 0,22,23
 174 334 174 334 149.5 366.5 c 128,-1,24
 125 399 125 399 135 446 c 0,25,26
 140 469 140 469 153 489 c 128,-1,27
 166 509 166 509 184 524 c 128,-1,28
 202 539 202 539 224 548 c 128,-1,29
 246 557 246 557 270 557 c 256,12,13
EndSplineSet
EndChar
StartChar: plusminus
Encoding: 177 177 115
Width: 456
Flags: W
Fore
285 415 m 1,0,-1
 347 415 l 1,1,-1
 317 275 l 1,2,-1
 484 275 l 1,3,-1
 473 224 l 1,4,-1
 306 224 l 1,5,-1
 276 83 l 1,6,-1
 214 83 l 1,7,-1
 244 224 l 1,8,-1
 77 224 l 1,9,-1
 88 275 l 1,10,-1
 255 275 l 1,11,-1
 285 415 l 1,0,-1
40 51 m 1,12,-1
 436 51 l 1,13,-1
 426 0 l 1,14,-1
 30 0 l 1,15,-1
 40 51 l 1,12,-1
EndSplineSet
EndChar
StartChar: twosuperior
Encoding: 178 178 116
Width: 231
Flags: W
Fore
105 409 m 1,0,1
 122 449 122 449 154 471 c 128,-1,2
 186 493 186 493 228 493 c 256,3,4
 270 493 270 493 290 470 c 128,-1,5
 310 447 310 447 302 405 c 0,6,7
 298 384 298 384 285.5 367.5 c 128,-1,8
 273 351 273 351 257 338 c 128,-1,9
 241 325 241 325 222 314.5 c 128,-1,10
 203 304 203 304 185 295 c 0,11,12
 163 284 163 284 149.5 276 c 128,-1,13
 136 268 136 268 129 261 c 128,-1,14
 122 254 122 254 119.5 248.5 c 128,-1,15
 117 243 117 243 116 237 c 1,16,-1
 265 237 l 1,17,-1
 256 196 l 1,18,-1
 56 196 l 1,19,-1
 63 229 l 2,20,21
 68 255 68 255 86 277.5 c 128,-1,22
 104 300 104 300 155 324 c 0,23,24
 184 338 184 338 202 349 c 128,-1,25
 220 360 220 360 230.5 369.5 c 128,-1,26
 241 379 241 379 245.5 388.5 c 128,-1,27
 250 398 250 398 252 408 c 0,28,29
 256 425 256 425 248 439 c 128,-1,30
 240 453 240 453 222 453 c 0,31,32
 199 453 199 453 181.5 444 c 128,-1,33
 164 435 164 435 150 404 c 1,34,-1
 105 409 l 1,0,1
EndSplineSet
EndChar
StartChar: threesuperior
Encoding: 179 179 117
Width: 244
Flags: W
Fore
105 271 m 1,0,1
 116 253 116 253 132 242.5 c 128,-1,2
 148 232 148 232 172 232 c 0,3,4
 192 232 192 232 212 242 c 128,-1,5
 232 252 232 252 238 278 c 0,6,7
 244 309 244 309 232 320 c 128,-1,8
 220 331 220 331 179 331 c 2,9,-1
 150 331 l 1,10,-1
 158 371 l 1,11,-1
 182 371 l 2,12,13
 220 371 220 371 235.5 381 c 128,-1,14
 251 391 251 391 258 419 c 0,15,16
 262 439 262 439 253.5 446 c 128,-1,17
 245 453 245 453 222 453 c 0,18,19
 204 453 204 453 186.5 447.5 c 128,-1,20
 169 442 169 442 155 424 c 1,21,-1
 124 445 l 1,22,23
 149 471 149 471 176.5 482 c 128,-1,24
 204 493 204 493 233 493 c 0,25,26
 284 493 284 493 300 475.5 c 128,-1,27
 316 458 316 458 308 421 c 0,28,29
 303 396 303 396 291 379.5 c 128,-1,30
 279 363 279 363 248 352 c 1,31,32
 273 344 273 344 283.5 326.5 c 128,-1,33
 294 309 294 309 288 278 c 0,34,35
 269 193 269 193 162 193 c 0,36,37
 124 193 124 193 99.5 208 c 128,-1,38
 75 223 75 223 67 245 c 1,39,-1
 105 271 l 1,0,1
EndSplineSet
EndChar
StartChar: acute
Encoding: 180 180 118
Width: 169
Flags: W
Fore
295 544 m 1,0,-1
 178 439 l 1,1,-1
 129 439 l 1,2,-1
 216 544 l 1,3,-1
 295 544 l 1,0,-1
EndSplineSet
EndChar
StartChar: mu
Encoding: 181 181 119
Width: 423
Flags: W
Fore
443 395 m 1,0,-1
 360 0 l 1,1,-1
 294 0 l 1,2,-1
 305 53 l 1,3,4
 277 21 277 21 243 6.5 c 128,-1,5
 209 -8 209 -8 183 -8 c 0,6,7
 168 -8 168 -8 152.5 -4 c 128,-1,8
 137 0 137 0 130 10 c 1,9,-1
 98 -140 l 1,10,-1
 33 -140 l 1,11,-1
 146 395 l 1,12,-1
 211 395 l 1,13,-1
 155 130 l 2,14,15
 144 81 144 81 158.5 60 c 128,-1,16
 173 39 173 39 196 39 c 256,17,18
 219 39 219 39 248.5 54.5 c 128,-1,19
 278 70 278 70 316 105 c 1,20,-1
 377 395 l 1,21,-1
 443 395 l 1,0,-1
EndSplineSet
EndChar
StartChar: paragraph
Encoding: 182 182 120
Width: 380
Flags: W
Fore
223 256 m 1,0,1
 190 256 190 256 164 267.5 c 128,-1,2
 138 279 138 279 121 298.5 c 128,-1,3
 104 318 104 318 97.5 344 c 128,-1,4
 91 370 91 370 97 400 c 0,5,6
 112 472 112 472 164.5 510.5 c 128,-1,7
 217 549 217 549 297 549 c 2,8,-1
 498 549 l 1,9,-1
 489 505 l 1,10,-1
 452 505 l 1,11,-1
 332 -61 l 1,12,-1
 274 -61 l 1,13,-1
 394 505 l 1,14,-1
 334 505 l 1,15,-1
 214 -61 l 1,16,-1
 156 -61 l 1,17,-1
 223 256 l 1,0,1
EndSplineSet
EndChar
StartChar: periodcentered
Encoding: 183 183 121
Width: 211
Flags: W
Fore
156 244 m 0,0,1
 174 244 174 244 185.5 230.5 c 128,-1,2
 197 217 197 217 193 198 c 0,3,4
 188 179 188 179 171.5 165.5 c 128,-1,5
 155 152 155 152 137 152 c 0,6,7
 120 152 120 152 108 165.5 c 128,-1,8
 96 179 96 179 101 198 c 0,9,10
 105 217 105 217 122 230.5 c 128,-1,11
 139 244 139 244 156 244 c 0,0,1
EndSplineSet
EndChar
StartChar: cedilla
Encoding: 184 184 122
Width: 169
Flags: W
Fore
-14 -116 m 1,0,1
 -5 -119 -5 -119 7 -123 c 128,-1,2
 19 -127 19 -127 28 -127 c 0,3,4
 54 -127 54 -127 67 -120.5 c 128,-1,5
 80 -114 80 -114 84 -97 c 256,6,7
 88 -80 88 -80 78.5 -73 c 128,-1,8
 69 -66 69 -66 56 -66 c 0,9,10
 37 -66 37 -66 22 -72 c 1,11,-1
 13 -63 l 1,12,-1
 72 0 l 1,13,-1
 101 0 l 1,14,-1
 59 -38 l 1,15,-1
 61 -40 l 1,16,17
 69 -35 69 -35 85 -35 c 0,18,19
 113 -35 113 -35 125.5 -52 c 128,-1,20
 138 -69 138 -69 131 -99 c 0,21,22
 128 -114 128 -114 118 -125 c 128,-1,23
 108 -136 108 -136 94.5 -143.5 c 128,-1,24
 81 -151 81 -151 66 -154.5 c 128,-1,25
 51 -158 51 -158 39 -158 c 0,26,27
 20 -158 20 -158 2.5 -154.5 c 128,-1,28
 -15 -151 -15 -151 -30 -143 c 1,29,-1
 -14 -116 l 1,0,1
EndSplineSet
EndChar
StartChar: onesuperior
Encoding: 185 185 123
Width: 263
Flags: W
Fore
103 196 m 1,0,-1
 112 237 l 1,1,-1
 158 237 l 1,2,-1
 203 449 l 1,3,-1
 147 436 l 1,4,-1
 154 470 l 1,5,-1
 220 493 l 1,6,-1
 263 493 l 1,7,-1
 209 237 l 1,8,-1
 258 237 l 1,9,-1
 249 196 l 1,10,-1
 103 196 l 1,0,-1
EndSplineSet
EndChar
StartChar: ordmasculine
Encoding: 186 186 124
Width: 207
Flags: W
Fore
139 384 m 256,0,1
 132 352 132 352 139 336.5 c 128,-1,2
 146 321 146 321 172 321 c 256,3,4
 198 321 198 321 211 336.5 c 128,-1,5
 224 352 224 352 231 384 c 256,6,7
 238 416 238 416 231.5 432 c 128,-1,8
 225 448 225 448 199 448 c 256,9,10
 173 448 173 448 159.5 432 c 128,-1,11
 146 416 146 416 139 384 c 256,0,1
208 493 m 256,12,13
 235 493 235 493 251 484 c 128,-1,14
 267 475 267 475 274.5 460 c 128,-1,15
 282 445 282 445 282.5 425 c 128,-1,16
 283 405 283 405 278 384 c 0,17,18
 274 363 274 363 265 343.5 c 128,-1,19
 256 324 256 324 242 309 c 128,-1,20
 228 294 228 294 208.5 285 c 128,-1,21
 189 276 189 276 162 276 c 256,22,23
 135 276 135 276 119 285 c 128,-1,24
 103 294 103 294 95 309 c 128,-1,25
 87 324 87 324 87 343.5 c 128,-1,26
 87 363 87 363 91 384 c 0,27,28
 96 405 96 405 104.5 425 c 128,-1,29
 113 445 113 445 127 460 c 128,-1,30
 141 475 141 475 161 484 c 128,-1,31
 181 493 181 493 208 493 c 256,12,13
EndSplineSet
EndChar
StartChar: guillemotright
Encoding: 187 187 125
Width: 380
Flags: W
Fore
179 196 m 1,0,-1
 129 314 l 1,1,-1
 198 314 l 1,2,-1
 246 196 l 1,3,-1
 149 81 l 1,4,-1
 80 81 l 1,5,-1
 179 196 l 1,0,-1
291 196 m 1,6,-1
 242 314 l 1,7,-1
 312 314 l 1,8,-1
 358 196 l 1,9,-1
 263 81 l 1,10,-1
 193 81 l 1,11,-1
 291 196 l 1,6,-1
EndSplineSet
EndChar
StartChar: onequarter
Encoding: 188 188 126
Width: 616
Flags: W
Fore
525 493 m 1,0,-1
 574 493 l 1,1,-1
 180 -7 l 1,2,-1
 131 -7 l 1,3,-1
 525 493 l 1,0,-1
103 196 m 1,4,-1
 112 237 l 1,5,-1
 158 237 l 1,6,-1
 203 449 l 1,7,-1
 147 436 l 1,8,-1
 154 470 l 1,9,-1
 220 493 l 1,10,-1
 263 493 l 1,11,-1
 209 237 l 1,12,-1
 258 237 l 1,13,-1
 249 196 l 1,14,-1
 103 196 l 1,4,-1
400 104 m 1,15,-1
 484 104 l 1,16,-1
 511 231 l 1,17,-1
 509 231 l 1,18,-1
 400 104 l 1,15,-1
354 108 m 1,19,-1
 515 292 l 1,20,-1
 575 292 l 1,21,-1
 535 104 l 1,22,-1
 578 104 l 1,23,-1
 569 65 l 1,24,-1
 526 65 l 1,25,-1
 513 0 l 1,26,-1
 462 0 l 1,27,-1
 475 65 l 1,28,-1
 345 65 l 1,29,-1
 354 108 l 1,19,-1
EndSplineSet
Ligature: 0 0 'frac' one fraction four
Ligature: 0 0 'frac' one slash four
EndChar
StartChar: onehalf
Encoding: 189 189 127
Width: 613
Flags: W
Fore
517 493 m 1,0,-1
 565 493 l 1,1,-1
 172 -7 l 1,2,-1
 122 -7 l 1,3,-1
 517 493 l 1,0,-1
103 196 m 1,4,-1
 112 237 l 1,5,-1
 158 237 l 1,6,-1
 203 449 l 1,7,-1
 147 436 l 1,8,-1
 154 470 l 1,9,-1
 220 493 l 1,10,-1
 263 493 l 1,11,-1
 209 237 l 1,12,-1
 258 237 l 1,13,-1
 249 196 l 1,14,-1
 103 196 l 1,4,-1
401 213 m 1,15,16
 418 253 418 253 450 275 c 128,-1,17
 482 297 482 297 524 297 c 256,18,19
 566 297 566 297 586 274 c 128,-1,20
 606 251 606 251 597 209 c 0,21,22
 593 188 593 188 580.5 171.5 c 128,-1,23
 568 155 568 155 552 142 c 128,-1,24
 536 129 536 129 517.5 118.5 c 128,-1,25
 499 108 499 108 481 99 c 0,26,27
 458 88 458 88 444.5 80 c 128,-1,28
 431 72 431 72 424 65 c 128,-1,29
 417 58 417 58 414.5 52.5 c 128,-1,30
 412 47 412 47 411 41 c 1,31,-1
 560 41 l 1,32,-1
 552 0 l 1,33,-1
 352 0 l 1,34,-1
 359 33 l 2,35,36
 362 46 362 46 367 58 c 128,-1,37
 372 70 372 70 382 81.5 c 128,-1,38
 392 93 392 93 408.5 104.5 c 128,-1,39
 425 116 425 116 451 128 c 0,40,41
 480 142 480 142 498 153 c 128,-1,42
 516 164 516 164 526.5 173.5 c 128,-1,43
 537 183 537 183 541.5 192.5 c 128,-1,44
 546 202 546 202 548 212 c 0,45,46
 551 229 551 229 543 243 c 128,-1,47
 535 257 535 257 517 257 c 0,48,49
 494 257 494 257 477 248 c 128,-1,50
 460 239 460 239 446 208 c 1,51,-1
 401 213 l 1,15,16
EndSplineSet
Ligature: 0 0 'frac' one fraction two
Ligature: 0 0 'frac' one slash two
EndChar
StartChar: threequarters
Encoding: 190 190 128
Width: 615
Flags: W
Fore
400 104 m 1,0,-1
 484 104 l 1,1,-1
 511 231 l 1,2,-1
 509 231 l 1,3,-1
 400 104 l 1,0,-1
354 108 m 1,4,-1
 515 292 l 1,5,-1
 575 292 l 1,6,-1
 535 104 l 1,7,-1
 577 104 l 1,8,-1
 568 65 l 1,9,-1
 526 65 l 1,10,-1
 513 0 l 1,11,-1
 462 0 l 1,12,-1
 475 65 l 1,13,-1
 345 65 l 1,14,-1
 354 108 l 1,4,-1
535 493 m 1,15,-1
 583 493 l 1,16,-1
 191 -7 l 1,17,-1
 141 -7 l 1,18,-1
 535 493 l 1,15,-1
110 271 m 1,19,20
 121 253 121 253 137 242.5 c 128,-1,21
 153 232 153 232 177 232 c 0,22,23
 197 232 197 232 217 242 c 128,-1,24
 237 252 237 252 243 278 c 0,25,26
 249 309 249 309 237 320 c 128,-1,27
 225 331 225 331 184 331 c 2,28,-1
 155 331 l 1,29,-1
 163 371 l 1,30,-1
 187 371 l 2,31,32
 225 371 225 371 240.5 381 c 128,-1,33
 256 391 256 391 263 419 c 0,34,35
 267 439 267 439 258.5 446 c 128,-1,36
 250 453 250 453 227 453 c 0,37,38
 209 453 209 453 191.5 447.5 c 128,-1,39
 174 442 174 442 160 424 c 1,40,-1
 129 445 l 1,41,42
 154 471 154 471 181.5 482 c 128,-1,43
 209 493 209 493 238 493 c 0,44,45
 289 493 289 493 305 475.5 c 128,-1,46
 321 458 321 458 313 421 c 0,47,48
 308 396 308 396 296 379.5 c 128,-1,49
 284 363 284 363 253 352 c 1,50,51
 278 344 278 344 288.5 326.5 c 128,-1,52
 299 309 299 309 293 278 c 0,53,54
 274 193 274 193 167 193 c 0,55,56
 129 193 129 193 104.5 208 c 128,-1,57
 80 223 80 223 72 245 c 1,58,-1
 110 271 l 1,19,20
EndSplineSet
Ligature: 0 0 'frac' three fraction four
Ligature: 0 0 'frac' three slash four
EndChar
StartChar: questiondown
Encoding: 191 191 129
Width: 295
Flags: W
Fore
307 -62 m 1,0,1
 294 -85 294 -85 274.5 -103.5 c 128,-1,2
 255 -122 255 -122 232 -135 c 128,-1,3
 209 -148 209 -148 183 -155 c 128,-1,4
 157 -162 157 -162 131 -162 c 0,5,6
 101 -162 101 -162 77 -153.5 c 128,-1,7
 53 -145 53 -145 37.5 -128.5 c 128,-1,8
 22 -112 22 -112 16 -87 c 128,-1,9
 10 -62 10 -62 16 -30 c 0,10,11
 25 11 25 11 50.5 38.5 c 128,-1,12
 76 66 76 66 105 89 c 128,-1,13
 134 112 134 112 159 134.5 c 128,-1,14
 184 157 184 157 190 187 c 2,15,-1
 199 226 l 1,16,-1
 272 226 l 1,17,-1
 263 187 l 2,18,19
 258 161 258 161 244 141 c 128,-1,20
 230 121 230 121 212 104.5 c 128,-1,21
 194 88 194 88 174.5 72.5 c 128,-1,22
 155 57 155 57 137 40 c 128,-1,23
 119 23 119 23 105.5 3.5 c 128,-1,24
 92 -16 92 -16 87 -41 c 0,25,26
 82 -64 82 -64 96.5 -83.5 c 128,-1,27
 111 -103 111 -103 145 -103 c 0,28,29
 165 -103 165 -103 181.5 -96.5 c 128,-1,30
 198 -90 198 -90 211.5 -80 c 128,-1,31
 225 -70 225 -70 235 -57.5 c 128,-1,32
 245 -45 245 -45 253 -32 c 1,33,-1
 307 -62 l 1,0,1
323 394 m 1,34,-1
 306 311 l 1,35,-1
 206 311 l 1,36,-1
 223 394 l 1,37,-1
 323 394 l 1,34,-1
EndSplineSet
EndChar
StartChar: AE
Encoding: 198 198 136
Width: 649
Flags: W
Fore
424 52 m 1,0,-1
 637 52 l 1,1,-1
 626 0 l 1,2,-1
 348 0 l 1,3,-1
 375 131 l 1,4,-1
 193 131 l 1,5,-1
 99 0 l 1,6,-1
 20 0 l 1,7,-1
 392 486 l 1,8,-1
 732 486 l 1,9,-1
 721 434 l 1,10,-1
 505 434 l 1,11,-1
 472 280 l 1,12,-1
 658 280 l 1,13,-1
 647 228 l 1,14,-1
 461 228 l 1,15,-1
 424 52 l 1,0,-1
387 185 m 1,16,-1
 440 435 l 1,17,-1
 414 435 l 1,18,-1
 226 185 l 1,19,-1
 387 185 l 1,16,-1
EndSplineSet
EndChar
StartChar: Eth
Encoding: 208 208 146
Width: 467
Flags: W
Fore
27 222 m 1,0,-1
 37 272 l 1,1,-1
 117 272 l 1,2,-1
 163 486 l 1,3,-1
 344 486 l 2,4,5
 397 486 397 486 429.5 470.5 c 128,-1,6
 462 455 462 455 477 423.5 c 128,-1,7
 492 392 492 392 491 345 c 128,-1,8
 490 298 490 298 477 236 c 0,9,10
 465 178 465 178 446.5 133.5 c 128,-1,11
 428 89 428 89 400 59.5 c 128,-1,12
 372 30 372 30 333 15 c 128,-1,13
 294 0 294 0 241 0 c 2,14,-1
 60 0 l 1,15,-1
 107 222 l 1,16,-1
 27 222 l 1,0,-1
318 272 m 1,17,-1
 308 222 l 1,18,-1
 177 222 l 1,19,-1
 141 52 l 1,20,-1
 252 52 l 2,21,22
 287 52 287 52 311.5 62 c 128,-1,23
 336 72 336 72 353.5 93.5 c 128,-1,24
 371 115 371 115 383.5 150 c 128,-1,25
 396 185 396 185 407 236 c 0,26,27
 419 292 419 292 422 329.5 c 128,-1,28
 425 367 425 367 416.5 390.5 c 128,-1,29
 408 414 408 414 388 424 c 128,-1,30
 368 434 368 434 333 434 c 2,31,-1
 222 434 l 1,32,-1
 187 272 l 1,33,-1
 318 272 l 1,17,-1
EndSplineSet
EndChar
StartChar: multiply
Encoding: 215 215 153
Width: 384
Flags: W
Fore
268 211 m 1,0,-1
 377 73 l 1,1,-1
 332 36 l 1,2,-1
 223 174 l 1,3,-1
 56 36 l 1,4,-1
 27 73 l 1,5,-1
 194 211 l 1,6,-1
 86 350 l 1,7,-1
 131 387 l 1,8,-1
 239 248 l 1,9,-1
 407 387 l 1,10,-1
 436 350 l 1,11,-1
 268 211 l 1,0,-1
EndSplineSet
EndChar
StartChar: Oslash
Encoding: 216 216 154
Width: 472
Flags: W
Fore
33 -60 m 1,0,-1
 -10 -60 l 1,1,-1
 93 63 l 1,2,3
 79 94 79 94 78.5 137 c 128,-1,4
 78 180 78 180 90 237 c 0,5,6
 116 362 116 362 174 425.5 c 128,-1,7
 232 489 232 489 339 489 c 0,8,9
 400 489 400 489 436 468 c 1,10,-1
 513 556 l 1,11,-1
 563 556 l 1,12,-1
 465 444 l 1,13,14
 491 412 491 412 494 360.5 c 128,-1,15
 497 309 497 309 482 237 c 0,16,17
 457 120 457 120 399 57 c 128,-1,18
 341 -6 341 -6 234 -6 c 0,19,20
 151 -6 151 -6 113 34 c 1,21,-1
 33 -60 l 1,0,-1
246 51 m 0,22,23
 281 51 281 51 307 61 c 128,-1,24
 333 71 333 71 352 93.5 c 128,-1,25
 371 116 371 116 385 151 c 128,-1,26
 399 186 399 186 410 237 c 0,27,28
 416 267 416 267 419 289 c 128,-1,29
 422 311 422 311 423 329 c 128,-1,30
 424 347 424 347 422.5 362 c 128,-1,31
 421 377 421 377 418 393 c 1,32,-1
 159 84 l 1,33,34
 173 67 173 67 191.5 59 c 128,-1,35
 210 51 210 51 246 51 c 0,22,23
328 434 m 0,36,37
 293 434 293 434 267 424 c 128,-1,38
 241 414 241 414 221.5 391 c 128,-1,39
 202 368 202 368 188 330.5 c 128,-1,40
 174 293 174 293 162 237 c 0,41,42
 153 196 153 196 149.5 165.5 c 128,-1,43
 146 135 146 135 145 119 c 1,44,-1
 392 419 l 1,45,46
 378 427 378 427 365 430.5 c 128,-1,47
 352 434 352 434 328 434 c 0,36,37
EndSplineSet
EndChar
StartChar: Thorn
Encoding: 222 222 160
Width: 465
Flags: W
Fore
146 0 m 1,0,-1
 76 0 l 1,1,-1
 192 549 l 1,2,-1
 262 549 l 1,3,-1
 238 435 l 1,4,-1
 353 435 l 2,5,6
 402 435 402 435 432 424 c 128,-1,7
 462 413 462 413 476.5 393 c 128,-1,8
 491 373 491 373 493 345 c 128,-1,9
 495 317 495 317 487 282 c 0,10,11
 480 248 480 248 466.5 219.5 c 128,-1,12
 453 191 453 191 429.5 171 c 128,-1,13
 406 151 406 151 371.5 140 c 128,-1,14
 337 129 337 129 288 129 c 2,15,-1
 173 129 l 1,16,-1
 146 0 l 1,0,-1
184 180 m 1,17,-1
 299 180 l 2,18,19
 335 180 335 180 355.5 186 c 128,-1,20
 376 192 376 192 387.5 204 c 128,-1,21
 399 216 399 216 404.5 235.5 c 128,-1,22
 410 255 410 255 416 282 c 256,23,24
 422 309 422 309 424.5 328 c 128,-1,25
 427 347 427 347 420.5 359.5 c 128,-1,26
 414 372 414 372 396 377.5 c 128,-1,27
 378 383 378 383 342 383 c 2,28,-1
 227 383 l 1,29,-1
 184 180 l 1,17,-1
EndSplineSet
EndChar
StartChar: germandbls
Encoding: 223 223 161
Width: 380
Flags: W
Fore
58 0 m 1,0,-1
 133 355 l 2,1,2
 147 420 147 420 187 454.5 c 128,-1,3
 227 489 227 489 295 489 c 0,4,5
 353 489 353 489 382 455 c 128,-1,6
 411 421 411 421 399 363 c 0,7,8
 382 288 382 288 306 254 c 1,9,10
 354 238 354 238 373.5 207.5 c 128,-1,11
 393 177 393 177 382 123 c 0,12,13
 366 49 366 49 326.5 20.5 c 128,-1,14
 287 -8 287 -8 224 -8 c 0,15,16
 208 -8 208 -8 189 -3 c 128,-1,17
 170 2 170 2 159 10 c 1,18,-1
 190 59 l 1,19,20
 200 53 200 53 212 48.5 c 128,-1,21
 224 44 224 44 238 44 c 0,22,23
 262 44 262 44 284.5 61.5 c 128,-1,24
 307 79 307 79 317 127 c 0,25,26
 320 143 320 143 318 160 c 128,-1,27
 316 177 316 177 305.5 191.5 c 128,-1,28
 295 206 295 206 274.5 215 c 128,-1,29
 254 224 254 224 220 224 c 1,30,-1
 230 270 l 1,31,32
 254 271 254 271 271 275.5 c 128,-1,33
 288 280 288 280 300 290.5 c 128,-1,34
 312 301 312 301 319.5 319 c 128,-1,35
 327 337 327 337 333 365 c 0,36,37
 338 388 338 388 335.5 402 c 128,-1,38
 333 416 333 416 325 424 c 128,-1,39
 317 432 317 432 304.5 434.5 c 128,-1,40
 292 437 292 437 276 437 c 0,41,42
 244 437 244 437 226 416.5 c 128,-1,43
 208 396 208 396 200 358 c 2,44,-1
 124 0 l 1,45,-1
 58 0 l 1,0,-1
EndSplineSet
EndChar
StartChar: ae
Encoding: 230 230 168
Width: 623
Flags: W
Fore
366 191 m 1,0,1
 359 157 359 157 358.5 129 c 128,-1,2
 358 101 358 101 366.5 81 c 128,-1,3
 375 61 375 61 393 50 c 128,-1,4
 411 39 411 39 441 39 c 0,5,6
 479 39 479 39 507.5 53.5 c 128,-1,7
 536 68 536 68 567 114 c 1,8,-1
 603 89 l 1,9,10
 568 36 568 36 526 14 c 128,-1,11
 484 -8 484 -8 427 -8 c 0,12,13
 381 -8 381 -8 355 11.5 c 128,-1,14
 329 31 329 31 315 67 c 1,15,16
 293 48 293 48 273 34 c 128,-1,17
 253 20 253 20 232.5 10.5 c 128,-1,18
 212 1 212 1 188.5 -3.5 c 128,-1,19
 165 -8 165 -8 136 -8 c 0,20,21
 113 -8 113 -8 93.5 -1 c 128,-1,22
 74 6 74 6 60.5 20.5 c 128,-1,23
 47 35 47 35 41.5 56.5 c 128,-1,24
 36 78 36 78 42 106 c 0,25,26
 51 146 51 146 70.5 172 c 128,-1,27
 90 198 90 198 123 213 c 128,-1,28
 156 228 156 228 203 234 c 128,-1,29
 250 240 250 240 314 240 c 1,30,-1
 324 287 l 2,31,32
 332 327 332 327 312.5 342 c 128,-1,33
 293 357 293 357 257 357 c 0,34,35
 222 357 222 357 192 338 c 128,-1,36
 162 319 162 319 132 285 c 1,37,-1
 98 314 l 1,38,39
 139 362 139 362 183.5 382.5 c 128,-1,40
 228 403 228 403 269 403 c 0,41,42
 319 403 319 403 344.5 384 c 128,-1,43
 370 365 370 365 376 332 c 1,44,45
 402 362 402 362 435 382.5 c 128,-1,46
 468 403 468 403 513 403 c 0,47,48
 561 403 561 403 587.5 387 c 128,-1,49
 614 371 614 371 624.5 342.5 c 128,-1,50
 635 314 635 314 633 275.5 c 128,-1,51
 631 237 631 237 621 191 c 1,52,-1
 366 191 l 1,0,1
302 193 m 1,53,54
 236 193 236 193 198 186.5 c 128,-1,55
 160 180 160 180 140.5 168.5 c 128,-1,56
 121 157 121 157 114.5 141 c 128,-1,57
 108 125 108 125 104 107 c 0,58,59
 90 39 90 39 154 39 c 0,60,61
 185 39 185 39 216.5 51.5 c 128,-1,62
 248 64 248 64 280 94 c 1,63,-1
 302 193 l 1,53,54
575 238 m 1,64,65
 578 268 578 268 578 290.5 c 128,-1,66
 578 313 578 313 571 328 c 128,-1,67
 564 343 564 343 547.5 350 c 128,-1,68
 531 357 531 357 501 357 c 0,69,70
 479 357 479 357 458.5 347 c 128,-1,71
 438 337 438 337 421.5 320.5 c 128,-1,72
 405 304 405 304 393 282.5 c 128,-1,73
 381 261 381 261 376 238 c 1,74,-1
 575 238 l 1,64,65
EndSplineSet
EndChar
StartChar: eth
Encoding: 240 240 178
Width: 360
Flags: W
Fore
243 297 m 256,0,1
 216 297 216 297 197 287.5 c 128,-1,2
 178 278 178 278 165 261 c 128,-1,3
 152 244 152 244 143 220.5 c 128,-1,4
 134 197 134 197 128 168 c 256,5,6
 122 139 122 139 120.5 115 c 128,-1,7
 119 91 119 91 125 74 c 128,-1,8
 131 57 131 57 146 48 c 128,-1,9
 161 39 161 39 188 39 c 256,10,11
 215 39 215 39 234 48 c 128,-1,12
 253 57 253 57 266 74 c 128,-1,13
 279 91 279 91 287.5 115 c 128,-1,14
 296 139 296 139 302 168 c 256,15,16
 308 197 308 197 310 220.5 c 128,-1,17
 312 244 312 244 306 261 c 128,-1,18
 300 278 300 278 285 287.5 c 128,-1,19
 270 297 270 297 243 297 c 256,0,1
256 489 m 1,20,21
 269 479 269 479 280 469 c 128,-1,22
 291 459 291 459 301 448 c 1,23,-1
 386 489 l 1,24,-1
 402 459 l 1,25,-1
 323 421 l 1,26,27
 346 390 346 390 358.5 360 c 128,-1,28
 371 330 371 330 375.5 299.5 c 128,-1,29
 380 269 380 269 377.5 236.5 c 128,-1,30
 375 204 375 204 367 168 c 0,31,32
 350 87 350 87 303 39.5 c 128,-1,33
 256 -8 256 -8 178 -8 c 256,34,35
 100 -8 100 -8 73 39.5 c 128,-1,36
 46 87 46 87 63 168 c 256,37,38
 80 249 80 249 127 296 c 128,-1,39
 174 343 174 343 252 343 c 0,40,41
 275 343 275 343 287.5 338.5 c 128,-1,42
 300 334 300 334 314 326 c 1,43,-1
 316 328 l 1,44,45
 310 347 310 347 296 366 c 128,-1,46
 282 385 282 385 270 402 c 1,47,-1
 184 361 l 1,48,-1
 169 391 l 1,49,-1
 247 428 l 1,50,51
 230 451 230 451 201 469 c 1,52,-1
 256 489 l 1,20,21
EndSplineSet
EndChar
StartChar: divide
Encoding: 247 247 185
Width: 384
Flags: W
Fore
64 179 m 1,0,-1
 75 234 l 1,1,-1
 407 234 l 1,2,-1
 396 179 l 1,3,-1
 64 179 l 1,0,-1
276 399 m 256,4,5
 294 399 294 399 304.5 386 c 128,-1,6
 315 373 315 373 311 356 c 0,7,8
 307 338 307 338 291.5 325 c 128,-1,9
 276 312 276 312 258 312 c 256,10,11
 240 312 240 312 229.5 325 c 128,-1,12
 219 338 219 338 223 356 c 0,13,14
 227 373 227 373 242.5 386 c 128,-1,15
 258 399 258 399 276 399 c 256,4,5
213 101 m 256,16,17
 231 101 231 101 241.5 88 c 128,-1,18
 252 75 252 75 248 57 c 0,19,20
 244 40 244 40 228 27 c 128,-1,21
 212 14 212 14 194 14 c 256,22,23
 176 14 176 14 166 27 c 128,-1,24
 156 40 156 40 160 57 c 0,25,26
 164 75 164 75 179.5 88 c 128,-1,27
 195 101 195 101 213 101 c 256,16,17
EndSplineSet
EndChar
StartChar: oslash
Encoding: 248 248 186
Width: 380
Flags: W
Fore
323 336 m 1,0,1
 312 347 312 347 300 352 c 128,-1,2
 288 357 288 357 265 357 c 0,3,4
 231 357 231 357 209 347 c 128,-1,5
 187 337 187 337 173.5 317.5 c 128,-1,6
 160 298 160 298 151.5 268 c 128,-1,7
 143 238 143 238 135 198 c 0,8,9
 127 161 127 161 125 137 c 128,-1,10
 123 113 123 113 121 91 c 1,11,-1
 323 336 l 1,0,1
137 62 m 1,12,13
 148 51 148 51 160.5 45 c 128,-1,14
 173 39 173 39 198 39 c 0,15,16
 233 39 233 39 254.5 48.5 c 128,-1,17
 276 58 276 58 289.5 78 c 128,-1,18
 303 98 303 98 311.5 128 c 128,-1,19
 320 158 320 158 329 198 c 0,20,21
 337 236 337 236 338.5 261.5 c 128,-1,22
 340 287 340 287 340 308 c 1,23,-1
 137 62 l 1,12,13
30 -60 m 1,24,-1
 -10 -60 l 1,25,-1
 75 42 l 1,26,27
 60 68 60 68 59.5 107.5 c 128,-1,28
 59 147 59 147 70 198 c 0,29,30
 80 246 80 246 96 284 c 128,-1,31
 112 322 112 322 136.5 348.5 c 128,-1,32
 161 375 161 375 195 389 c 128,-1,33
 229 403 229 403 275 403 c 0,34,35
 332 403 332 403 364 380 c 1,36,-1
 438 466 l 1,37,-1
 479 466 l 1,38,-1
 385 357 l 1,39,40
 403 331 403 331 404 290.5 c 128,-1,41
 405 250 405 250 394 198 c 0,42,43
 384 150 384 150 367.5 112 c 128,-1,44
 351 74 351 74 327 47 c 128,-1,45
 303 20 303 20 269 6 c 128,-1,46
 235 -8 235 -8 188 -8 c 0,47,48
 156 -8 156 -8 133.5 -1.5 c 128,-1,49
 111 5 111 5 95 17 c 1,50,-1
 30 -60 l 1,24,-1
EndSplineSet
EndChar
StartChar: thorn
Encoding: 254 254 192
Width: 423
Flags: W
Fore
186 549 m 1,0,-1
 252 549 l 1,1,-1
 212 359 l 1,2,-1
 213 359 l 1,3,4
 234 374 234 374 266 388.5 c 128,-1,5
 298 403 298 403 337 403 c 0,6,7
 372 403 372 403 396.5 393 c 128,-1,8
 421 383 421 383 434 359 c 128,-1,9
 447 335 447 335 448 295 c 128,-1,10
 449 255 449 255 436 196 c 0,11,12
 423 133 423 133 403.5 93.5 c 128,-1,13
 384 54 384 54 360.5 31.5 c 128,-1,14
 337 9 337 9 310.5 0.5 c 128,-1,15
 284 -8 284 -8 257 -8 c 0,16,17
 225 -8 225 -8 192.5 2 c 128,-1,18
 160 12 160 12 143 36 c 1,19,-1
 106 -140 l 1,20,-1
 40 -140 l 1,21,-1
 186 549 l 1,0,-1
157 100 m 1,22,23
 160 90 160 90 169.5 79 c 128,-1,24
 179 68 179 68 192.5 59 c 128,-1,25
 206 50 206 50 222 44.5 c 128,-1,26
 238 39 238 39 255 39 c 0,27,28
 337 39 337 39 373 203 c 0,29,30
 379 234 379 234 382 262 c 128,-1,31
 385 290 385 290 381 311 c 128,-1,32
 377 332 377 332 363.5 344.5 c 128,-1,33
 350 357 350 357 324 357 c 0,34,35
 286 357 286 357 251.5 337.5 c 128,-1,36
 217 318 217 318 198 295 c 1,37,-1
 157 100 l 1,22,23
EndSplineSet
EndChar
StartChar: dotlessi
Encoding: 305 305 194
Width: 169
Flags: W
Fore
117 0 m 1,0,-1
 52 0 l 1,1,-1
 135 395 l 1,2,-1
 200 395 l 1,3,-1
 117 0 l 1,0,-1
EndSplineSet
EndChar
StartChar: Lslash
Encoding: 321 321 195
Width: 380
Flags: W
Fore
202 267 m 1,0,-1
 156 51 l 1,1,-1
 381 51 l 1,2,-1
 371 0 l 1,3,-1
 76 0 l 1,4,-1
 126 236 l 1,5,-1
 56 210 l 1,6,-1
 68 268 l 1,7,-1
 138 294 l 1,8,-1
 192 549 l 1,9,-1
 262 549 l 1,10,-1
 214 324 l 1,11,-1
 355 376 l 1,12,-1
 343 318 l 1,13,-1
 202 267 l 1,0,-1
EndSplineSet
EndChar
StartChar: lslash
Encoding: 322 322 196
Width: 189
Flags: W
Fore
127 0 m 1,0,-1
 62 0 l 1,1,-1
 113 244 l 1,2,-1
 46 212 l 1,3,-1
 58 271 l 1,4,-1
 126 302 l 1,5,-1
 178 549 l 1,6,-1
 243 549 l 1,7,-1
 196 326 l 1,8,-1
 263 357 l 1,9,-1
 251 299 l 1,10,-1
 183 267 l 1,11,-1
 127 0 l 1,0,-1
EndSplineSet
EndChar
StartChar: OE
Encoding: 338 338 197
Width: 658
Flags: W
Fore
442 424 m 1,0,1
 424 428 424 428 392 431.5 c 128,-1,2
 360 435 360 435 328 435 c 0,3,4
 293 435 293 435 266.5 425 c 128,-1,5
 240 415 240 415 220.5 391.5 c 128,-1,6
 201 368 201 368 186.5 330.5 c 128,-1,7
 172 293 172 293 160 237 c 0,8,9
 138 136 138 136 157 93 c 128,-1,10
 176 50 176 50 246 50 c 0,11,12
 278 50 278 50 312.5 54 c 128,-1,13
 347 58 347 58 365 65 c 1,14,-1
 442 424 l 1,0,1
730 434 m 1,15,-1
 514 434 l 1,16,-1
 481 280 l 1,17,-1
 667 280 l 1,18,-1
 656 228 l 1,19,-1
 470 228 l 1,20,-1
 433 52 l 1,21,-1
 646 52 l 1,22,-1
 635 0 l 1,23,-1
 352 0 l 2,24,25
 339 0 339 0 305.5 -3 c 128,-1,26
 272 -6 272 -6 234 -6 c 0,27,28
 128 -6 128 -6 96.5 57 c 128,-1,29
 65 120 65 120 90 237 c 0,30,31
 116 362 116 362 174 425.5 c 128,-1,32
 232 489 232 489 339 489 c 0,33,34
 368 489 368 489 401.5 487.5 c 128,-1,35
 435 486 435 486 455 486 c 2,36,-1
 741 486 l 1,37,-1
 730 434 l 1,15,-1
EndSplineSet
EndChar
StartChar: oe
Encoding: 339 339 198
Width: 633
Flags: W
Fore
135 198 m 0,0,1
 126 158 126 158 124 128 c 128,-1,2
 122 98 122 98 128.5 78 c 128,-1,3
 135 58 135 58 151.5 48.5 c 128,-1,4
 168 39 168 39 198 39 c 0,5,6
 253 39 253 39 282 78 c 128,-1,7
 311 117 311 117 328 198 c 256,8,9
 345 279 345 279 332.5 318 c 128,-1,10
 320 357 320 357 265 357 c 0,11,12
 235 357 235 357 214.5 347 c 128,-1,13
 194 337 194 337 179 317.5 c 128,-1,14
 164 298 164 298 153.5 268 c 128,-1,15
 143 238 143 238 135 198 c 0,0,1
392 191 m 1,16,17
 378 123 378 123 393.5 83.5 c 128,-1,18
 409 44 409 44 457 44 c 0,19,20
 480 44 480 44 512 58 c 128,-1,21
 544 72 544 72 583 118 c 1,22,-1
 624 89 l 1,23,24
 603 63 603 63 583 44.5 c 128,-1,25
 563 26 563 26 542 14.5 c 128,-1,26
 521 3 521 3 498 -2.5 c 128,-1,27
 475 -8 475 -8 447 -8 c 0,28,29
 399 -8 399 -8 367 9 c 128,-1,30
 335 26 335 26 330 69 c 1,31,32
 323 54 323 54 312.5 40.5 c 128,-1,33
 302 27 302 27 285.5 16 c 128,-1,34
 269 5 269 5 245.5 -1.5 c 128,-1,35
 222 -8 222 -8 188 -8 c 0,36,37
 147 -8 147 -8 118.5 2 c 128,-1,38
 90 12 90 12 75 36 c 128,-1,39
 60 60 60 60 58.5 99.5 c 128,-1,40
 57 139 57 139 70 198 c 0,41,42
 92 301 92 301 138.5 352 c 128,-1,43
 185 403 185 403 275 403 c 0,44,45
 334 403 334 403 359.5 379.5 c 128,-1,46
 385 356 385 356 386 327 c 1,47,48
 395 342 395 342 406.5 356 c 128,-1,49
 418 370 418 370 435.5 380.5 c 128,-1,50
 453 391 453 391 478 397 c 128,-1,51
 503 403 503 403 538 403 c 0,52,53
 617 403 617 403 641 354 c 128,-1,54
 665 305 665 305 641 191 c 1,55,-1
 392 191 l 1,16,17
586 238 m 1,56,57
 599 299 599 299 585 328 c 128,-1,58
 571 357 571 357 527 357 c 0,59,60
 496 357 496 357 475.5 348.5 c 128,-1,61
 455 340 455 340 441.5 324.5 c 128,-1,62
 428 309 428 309 419 287 c 128,-1,63
 410 265 410 265 402 238 c 1,64,-1
 586 238 l 1,56,57
EndSplineSet
EndChar
StartChar: florin
Encoding: 402 402 204
Width: 383
Flags: W
Fore
384 277 m 1,0,-1
 291 277 l 1,1,-1
 189 -9 l 2,2,3
 179 -36 179 -36 165 -59 c 128,-1,4
 151 -82 151 -82 130.5 -99 c 128,-1,5
 110 -116 110 -116 83 -126 c 128,-1,6
 56 -136 56 -136 20 -136 c 0,7,8
 12 -136 12 -136 5.5 -135.5 c 128,-1,9
 -1 -135 -1 -135 -8 -133 c 0,10,11
 -10 -132 -10 -132 -12.5 -129.5 c 128,-1,12
 -15 -127 -15 -127 -14.5 -121 c 128,-1,13
 -14 -115 -14 -115 -8.5 -104 c 128,-1,14
 -3 -93 -3 -93 10 -75 c 1,15,16
 15 -77 15 -77 21 -79 c 128,-1,17
 27 -81 27 -81 33 -81 c 0,18,19
 50 -81 50 -81 64 -75 c 128,-1,20
 78 -69 78 -69 89.5 -55.5 c 128,-1,21
 101 -42 101 -42 112 -21.5 c 128,-1,22
 123 -1 123 -1 134 29 c 2,23,-1
 222 277 l 1,24,-1
 123 277 l 1,25,-1
 133 322 l 1,26,-1
 237 322 l 1,27,28
 247 352 247 352 262.5 390 c 128,-1,29
 278 428 278 428 300.5 462 c 128,-1,30
 323 496 323 496 354 519 c 128,-1,31
 385 542 385 542 425 542 c 0,32,33
 442 542 442 542 454 540 c 128,-1,34
 466 538 466 538 476 536 c 1,35,36
 478 532 478 532 478.5 521.5 c 128,-1,37
 479 511 479 511 476.5 501.5 c 128,-1,38
 474 492 474 492 469.5 485 c 128,-1,39
 465 478 465 478 458 479 c 1,40,41
 453 481 453 481 442.5 483.5 c 128,-1,42
 432 486 432 486 421 486 c 0,43,44
 398 486 398 486 381 471 c 128,-1,45
 364 456 364 456 351 432.5 c 128,-1,46
 338 409 338 409 327.5 380 c 128,-1,47
 317 351 317 351 306 322 c 1,48,-1
 394 322 l 1,49,-1
 384 277 l 1,0,-1
EndSplineSet
EndChar
StartChar: circumflex
Encoding: 710 710 205
Width: 169
Flags: W
Fore
290 439 m 1,0,-1
 229 439 l 1,1,-1
 192 506 l 1,2,-1
 125 439 l 1,3,-1
 64 439 l 1,4,-1
 174 544 l 1,5,-1
 225 544 l 1,6,-1
 290 439 l 1,0,-1
EndSplineSet
EndChar
StartChar: caron
Encoding: 711 711 206
Width: 169
Flags: W
Fore
86 544 m 1,0,-1
 157 544 l 1,1,-1
 186 477 l 1,2,-1
 241 544 l 1,3,-1
 312 544 l 1,4,-1
 203 439 l 1,5,-1
 152 439 l 1,6,-1
 86 544 l 1,0,-1
EndSplineSet
EndChar
StartChar: breve
Encoding: 728 728 207
Width: 169
Flags: W
Fore
190 494 m 0,0,1
 219 494 219 494 233 505 c 128,-1,2
 247 516 247 516 254 539 c 1,3,-1
 308 539 l 1,4,5
 296 494 296 494 265 468.5 c 128,-1,6
 234 443 234 443 179 443 c 0,7,8
 123 443 123 443 103 468.5 c 128,-1,9
 83 494 83 494 89 539 c 1,10,-1
 143 539 l 1,11,12
 141 516 141 516 150 505 c 128,-1,13
 159 494 159 494 190 494 c 0,0,1
EndSplineSet
EndChar
StartChar: dotaccent
Encoding: 729 729 208
Width: 169
Flags: W
Fore
229 519 m 1,0,-1
 214 447 l 1,1,-1
 144 447 l 1,2,-1
 159 519 l 1,3,-1
 229 519 l 1,0,-1
EndSplineSet
EndChar
StartChar: ring
Encoding: 730 730 209
Width: 169
Flags: W
Fore
209 588 m 0,0,1
 239 588 239 588 257.5 566 c 128,-1,2
 276 544 276 544 269 512 c 256,3,4
 262 480 262 480 234.5 458 c 128,-1,5
 207 436 207 436 177 436 c 0,6,7
 146 436 146 436 128 458 c 128,-1,8
 110 480 110 480 117 512 c 256,9,10
 124 544 124 544 151 566 c 128,-1,11
 178 588 178 588 209 588 c 0,0,1
201 548 m 256,12,13
 186 548 186 548 173 538 c 128,-1,14
 160 528 160 528 156 512 c 0,15,16
 153 497 153 497 162 486.5 c 128,-1,17
 171 476 171 476 186 476 c 256,18,19
 201 476 201 476 213.5 486.5 c 128,-1,20
 226 497 226 497 229 512 c 0,21,22
 233 528 233 528 224.5 538 c 128,-1,23
 216 548 216 548 201 548 c 256,12,13
EndSplineSet
EndChar
StartChar: ogonek
Encoding: 731 731 210
Width: 169
Flags: W
Fore
162 -2 m 1,0,1
 145 -7 145 -7 124.5 -15.5 c 128,-1,2
 104 -24 104 -24 86 -35 c 128,-1,3
 68 -46 68 -46 55 -59 c 128,-1,4
 42 -72 42 -72 39 -85 c 0,5,6
 37 -94 37 -94 41 -101.5 c 128,-1,7
 45 -109 45 -109 62 -109 c 0,8,9
 71 -109 71 -109 83.5 -105 c 128,-1,10
 96 -101 96 -101 108.5 -95.5 c 128,-1,11
 121 -90 121 -90 133 -84 c 128,-1,12
 145 -78 145 -78 154 -74 c 1,13,-1
 156 -117 l 1,14,15
 144 -124 144 -124 129 -131 c 128,-1,16
 114 -138 114 -138 98.5 -144 c 128,-1,17
 83 -150 83 -150 67.5 -153.5 c 128,-1,18
 52 -157 52 -157 39 -157 c 0,19,20
 10 -157 10 -157 -7.5 -143.5 c 128,-1,21
 -25 -130 -25 -130 -18 -96 c 0,22,23
 -12 -68 -12 -68 9.5 -48 c 128,-1,24
 31 -28 31 -28 59 -14.5 c 128,-1,25
 87 -1 87 -1 116.5 8 c 128,-1,26
 146 17 146 17 168 24 c 1,27,-1
 162 -2 l 1,0,1
EndSplineSet
EndChar
StartChar: tilde
Encoding: 732 732 211
Width: 169
Flags: W
Fore
60 447 m 1,0,1
 64 461 64 461 72 475.5 c 128,-1,2
 80 490 80 490 91.5 503 c 128,-1,3
 103 516 103 516 116.5 524 c 128,-1,4
 130 532 130 532 145 532 c 0,5,6
 159 532 159 532 171 526.5 c 128,-1,7
 183 521 183 521 194.5 515 c 128,-1,8
 206 509 206 509 216.5 503.5 c 128,-1,9
 227 498 227 498 236 498 c 0,10,11
 252 498 252 498 262.5 509.5 c 128,-1,12
 273 521 273 521 278 535 c 1,13,-1
 316 535 l 1,14,15
 311 520 311 520 303.5 505 c 128,-1,16
 296 490 296 490 285.5 478 c 128,-1,17
 275 466 275 466 261.5 458.5 c 128,-1,18
 248 451 248 451 231 451 c 0,19,20
 219 451 219 451 207 456.5 c 128,-1,21
 195 462 195 462 183 468 c 128,-1,22
 171 474 171 474 160.5 479.5 c 128,-1,23
 150 485 150 485 142 485 c 0,24,25
 126 485 126 485 115 473 c 128,-1,26
 104 461 104 461 99 447 c 1,27,-1
 60 447 l 1,0,1
EndSplineSet
EndChar
StartChar: hungarumlaut
Encoding: 733 733 212
Width: 169
Flags: W
Fore
253 544 m 1,0,-1
 136 439 l 1,1,-1
 87 439 l 1,2,-1
 174 544 l 1,3,-1
 253 544 l 1,0,-1
365 544 m 1,4,-1
 228 439 l 1,5,-1
 179 439 l 1,6,-1
 286 544 l 1,7,-1
 365 544 l 1,4,-1
EndSplineSet
EndChar
StartChar: uni0E01
Encoding: 3585 3585 214
Width: 440
Flags: W
Fore
317 406 m 0,0,1
 351 406 351 406 378 399 c 128,-1,2
 405 392 405 392 421.5 374 c 128,-1,3
 438 356 438 356 442.5 325.5 c 128,-1,4
 447 295 447 295 437 249 c 2,5,-1
 385 0 l 1,6,-1
 325 0 l 1,7,-1
 377 249 l 2,8,9
 385 288 385 288 385.5 310 c 128,-1,10
 386 332 386 332 378 343.5 c 128,-1,11
 370 355 370 355 352.5 358 c 128,-1,12
 335 361 335 361 307 361 c 0,13,14
 282 361 282 361 258 356.5 c 128,-1,15
 234 352 234 352 215.5 345.5 c 128,-1,16
 197 339 197 339 185 332.5 c 128,-1,17
 173 326 173 326 172 321 c 0,18,19
 171 315 171 315 178 302.5 c 128,-1,20
 185 290 185 290 191 290 c 0,21,22
 199 290 199 290 209.5 296.5 c 128,-1,23
 220 303 220 303 229 303 c 0,24,25
 232 303 232 303 236 296.5 c 128,-1,26
 240 290 240 290 243 282 c 128,-1,27
 246 274 246 274 247 267.5 c 128,-1,28
 248 261 248 261 244 261 c 0,29,30
 215 261 215 261 194 242.5 c 128,-1,31
 173 224 173 224 161 168 c 2,32,-1
 126 0 l 1,33,-1
 66 0 l 1,34,-1
 103 178 l 2,35,36
 111 216 111 216 122.5 233.5 c 128,-1,37
 134 251 134 251 154 268 c 1,38,39
 151 270 151 270 143.5 276 c 128,-1,40
 136 282 136 282 128.5 289.5 c 128,-1,41
 121 297 121 297 116 305 c 128,-1,42
 111 313 111 313 112 319 c 0,43,44
 114 328 114 328 133 343 c 128,-1,45
 152 358 152 358 181 372 c 128,-1,46
 210 386 210 386 245.5 396 c 128,-1,47
 281 406 281 406 317 406 c 0,0,1
EndSplineSet
EndChar
StartChar: uni0E02
Encoding: 3586 3586 215
Width: 419
Flags: W
Fore
222 345 m 1,0,-1
 234 316 l 1,1,2
 227 286 227 286 206.5 267.5 c 128,-1,3
 186 249 186 249 156 249 c 256,4,5
 126 249 126 249 113.5 268.5 c 128,-1,6
 101 288 101 288 107 317 c 0,7,8
 111 337 111 337 123 353 c 128,-1,9
 135 369 135 369 152 380.5 c 128,-1,10
 169 392 169 392 189 398 c 128,-1,11
 209 404 209 404 228 404 c 0,12,13
 248 404 248 404 265.5 398 c 128,-1,14
 283 392 283 392 295 380 c 128,-1,15
 307 368 307 368 312 349.5 c 128,-1,16
 317 331 317 331 312 306 c 0,17,18
 305 274 305 274 284 252.5 c 128,-1,19
 263 231 263 231 240 214 c 128,-1,20
 217 197 217 197 197.5 180.5 c 128,-1,21
 178 164 178 164 173 142 c 2,22,-1
 165 108 l 2,23,24
 157 70 157 70 174 54.5 c 128,-1,25
 191 39 191 39 229 39 c 0,26,27
 275 39 275 39 297 54 c 128,-1,28
 319 69 319 69 329 113 c 0,29,30
 332 130 332 130 335.5 151 c 128,-1,31
 339 172 339 172 344 197 c 2,32,-1
 388 400 l 1,33,-1
 449 400 l 1,34,-1
 389 118 l 2,35,36
 375 52 375 52 328 23 c 128,-1,37
 281 -6 281 -6 218 -6 c 0,38,39
 191 -6 191 -6 167.5 0 c 128,-1,40
 144 6 144 6 128 19 c 128,-1,41
 112 32 112 32 105 52.5 c 128,-1,42
 98 73 98 73 104 101 c 2,43,-1
 112 140 l 2,44,45
 118 170 118 170 140.5 190 c 128,-1,46
 163 210 163 210 188.5 227 c 128,-1,47
 214 244 214 244 235.5 262 c 128,-1,48
 257 280 257 280 263 306 c 0,49,50
 269 335 269 335 257.5 348 c 128,-1,51
 246 361 246 361 215 361 c 0,52,53
 208 361 208 361 197.5 359.5 c 128,-1,54
 187 358 187 358 177 353.5 c 128,-1,55
 167 349 167 349 159 340 c 128,-1,56
 151 331 151 331 148 317 c 0,57,58
 145 304 145 304 149.5 294.5 c 128,-1,59
 154 285 154 285 166 285 c 0,60,61
 177 285 177 285 186 292.5 c 128,-1,62
 195 300 195 300 199 316 c 2,63,-1
 205 345 l 1,64,-1
 222 345 l 1,0,-1
EndSplineSet
EndChar
StartChar: uni0E03
Encoding: 3587 3587 216
Width: 433
Flags: W
Fore
223 323 m 1,0,1
 213 335 213 335 207.5 344 c 128,-1,2
 202 353 202 353 197.5 358 c 128,-1,3
 193 363 193 363 188 365.5 c 128,-1,4
 183 368 183 368 175 368 c 0,5,6
 162 368 162 368 152.5 358.5 c 128,-1,7
 143 349 143 349 140 335 c 0,8,9
 136 320 136 320 141 310 c 128,-1,10
 146 300 146 300 161 300 c 0,11,12
 167 300 167 300 176 304.5 c 128,-1,13
 185 309 185 309 199 321 c 1,14,-1
 206 309 l 1,15,-1
 195 286 l 1,16,17
 173 265 173 265 153 265 c 0,18,19
 124 265 124 265 111.5 285 c 128,-1,20
 99 305 99 305 105 334 c 0,21,22
 113 369 113 369 136 386 c 128,-1,23
 159 403 159 403 182 403 c 0,24,25
 195 403 195 403 204.5 397.5 c 128,-1,26
 214 392 214 392 221 385 c 0,27,28
 229 377 229 377 235 367 c 1,29,-1
 283 407 l 1,30,31
 292 403 292 403 300.5 393.5 c 128,-1,32
 309 384 309 384 315 372 c 128,-1,33
 321 360 321 360 323.5 346 c 128,-1,34
 326 332 326 332 323 318 c 0,35,36
 314 275 314 275 294 253.5 c 128,-1,37
 274 232 274 232 252.5 217.5 c 128,-1,38
 231 203 231 203 212 188.5 c 128,-1,39
 193 174 193 174 187 145 c 2,40,-1
 177 98 l 2,41,42
 169 60 169 60 187 49.5 c 128,-1,43
 205 39 205 39 243 39 c 0,44,45
 289 39 289 39 311 54 c 128,-1,46
 333 69 333 69 343 113 c 0,47,48
 346 130 346 130 349.5 151 c 128,-1,49
 353 172 353 172 358 197 c 2,50,-1
 402 400 l 1,51,-1
 463 400 l 1,52,-1
 403 118 l 2,53,54
 389 52 389 52 342 23 c 128,-1,55
 295 -6 295 -6 232 -6 c 0,56,57
 205 -6 205 -6 181.5 -1.5 c 128,-1,58
 158 3 158 3 141.5 14.5 c 128,-1,59
 125 26 125 26 117.5 44.5 c 128,-1,60
 110 63 110 63 116 91 c 2,61,-1
 127 145 l 2,62,63
 132 169 132 169 144 185 c 128,-1,64
 156 201 156 201 171 212.5 c 128,-1,65
 186 224 186 224 202.5 233 c 128,-1,66
 219 242 219 242 233.5 253 c 128,-1,67
 248 264 248 264 259.5 279 c 128,-1,68
 271 294 271 294 276 316 c 0,69,70
 280 335 280 335 277.5 343 c 128,-1,71
 275 351 275 351 271 356 c 1,72,-1
 223 323 l 1,0,1
EndSplineSet
EndChar
StartChar: uni0E04
Encoding: 3588 3588 217
Width: 445
Flags: W
Fore
380 226 m 2,0,1
 388 265 388 265 388 291 c 128,-1,2
 388 317 388 317 378.5 332.5 c 128,-1,3
 369 348 369 348 350 354.5 c 128,-1,4
 331 361 331 361 301 361 c 0,5,6
 248 361 248 361 209 334.5 c 128,-1,7
 170 308 170 308 156 242 c 0,8,9
 151 221 151 221 149.5 201 c 128,-1,10
 148 181 148 181 151 166 c 1,11,12
 161 188 161 188 176 208.5 c 128,-1,13
 191 229 191 229 209.5 245 c 128,-1,14
 228 261 228 261 249 270.5 c 128,-1,15
 270 280 270 280 291 280 c 0,16,17
 322 280 322 280 338 261 c 128,-1,18
 354 242 354 242 347 207 c 0,19,20
 341 178 341 178 316.5 157.5 c 128,-1,21
 292 137 292 137 263 137 c 0,22,23
 235 137 235 137 219 157 c 1,24,-1
 221 188 l 1,25,-1
 234 200 l 1,26,-1
 249 182 l 2,27,28
 256 172 256 172 269 172 c 0,29,30
 284 172 284 172 295 182.5 c 128,-1,31
 306 193 306 193 310 208 c 0,32,33
 313 222 313 222 306.5 231.5 c 128,-1,34
 300 241 300 241 283 241 c 0,35,36
 264 241 264 241 241.5 223 c 128,-1,37
 219 205 219 205 197 173 c 128,-1,38
 175 141 175 141 155.5 97 c 128,-1,39
 136 53 136 53 124 0 c 1,40,-1
 70 0 l 2,41,42
 66 0 66 0 64.5 2 c 128,-1,43
 63 4 63 4 65 14 c 0,44,45
 70 32 70 32 84 60 c 128,-1,46
 98 88 98 88 109 106 c 0,47,48
 119 122 119 122 114 129 c 0,49,50
 103 148 103 148 98 175.5 c 128,-1,51
 93 203 93 203 101 242 c 256,52,53
 109 281 109 281 129 311.5 c 128,-1,54
 149 342 149 342 176.5 363 c 128,-1,55
 204 384 204 384 237.5 395 c 128,-1,56
 271 406 271 406 306 406 c 0,57,58
 402 406 402 406 430 364.5 c 128,-1,59
 458 323 458 323 440 236 c 2,60,-1
 390 0 l 1,61,-1
 332 0 l 1,62,-1
 380 226 l 2,0,1
EndSplineSet
EndChar
StartChar: uni0E05
Encoding: 3589 3589 218
Width: 445
Flags: W
Fore
151 166 m 1,0,1
 161 188 161 188 176 208.5 c 128,-1,2
 191 229 191 229 209.5 245 c 128,-1,3
 228 261 228 261 249 270.5 c 128,-1,4
 270 280 270 280 291 280 c 0,5,6
 322 280 322 280 338 261 c 128,-1,7
 354 242 354 242 347 207 c 0,8,9
 341 178 341 178 316.5 157.5 c 128,-1,10
 292 137 292 137 263 137 c 0,11,12
 235 137 235 137 219 157 c 1,13,-1
 221 188 l 1,14,-1
 234 200 l 1,15,-1
 249 182 l 2,16,17
 256 172 256 172 269 172 c 0,18,19
 284 172 284 172 295 182.5 c 128,-1,20
 306 193 306 193 310 208 c 0,21,22
 313 222 313 222 306.5 231.5 c 128,-1,23
 300 241 300 241 283 241 c 0,24,25
 264 241 264 241 241.5 223 c 128,-1,26
 219 205 219 205 197 173 c 128,-1,27
 175 141 175 141 155.5 97 c 128,-1,28
 136 53 136 53 124 0 c 1,29,-1
 70 0 l 2,30,31
 66 0 66 0 64.5 2 c 128,-1,32
 63 4 63 4 65 14 c 0,33,34
 70 32 70 32 84 60 c 128,-1,35
 98 88 98 88 109 106 c 0,36,37
 119 122 119 122 114 129 c 0,38,39
 103 148 103 148 98 175.5 c 128,-1,40
 93 203 93 203 101 242 c 0,41,42
 115 306 115 306 151.5 346 c 128,-1,43
 188 386 188 386 246 406 c 1,44,-1
 302 364 l 1,45,-1
 370 408 l 1,46,47
 430 397 430 397 442.5 353.5 c 128,-1,48
 455 310 455 310 440 236 c 2,49,-1
 390 0 l 1,50,-1
 332 0 l 1,51,-1
 384 248 l 2,52,53
 390 274 390 274 393 293 c 128,-1,54
 396 312 396 312 394 325.5 c 128,-1,55
 392 339 392 339 384 347.5 c 128,-1,56
 376 356 376 356 358 361 c 1,57,-1
 292 319 l 1,58,-1
 240 360 l 1,59,60
 204 349 204 349 185.5 321 c 128,-1,61
 167 293 167 293 156 242 c 0,62,63
 151 221 151 221 149.5 201 c 128,-1,64
 148 181 148 181 151 166 c 1,0,1
EndSplineSet
EndChar
StartChar: uni0E06
Encoding: 3590 3590 219
Width: 490
Flags: W
Fore
343 318 m 0,0,1
 338 294 338 294 324.5 277 c 128,-1,2
 311 260 311 260 296 245 c 128,-1,3
 281 230 281 230 267 214.5 c 128,-1,4
 253 199 253 199 246 178 c 1,5,6
 296 175 296 175 332.5 150 c 128,-1,7
 369 125 369 125 389 81 c 1,8,9
 391 93 391 93 394 110.5 c 128,-1,10
 397 128 397 128 400.5 146 c 128,-1,11
 404 164 404 164 407.5 181.5 c 128,-1,12
 411 199 411 199 413 211 c 2,13,-1
 454 400 l 1,14,-1
 514 400 l 1,15,-1
 476 222 l 2,16,17
 469 189 469 189 462 155 c 128,-1,18
 455 121 455 121 449.5 92.5 c 128,-1,19
 444 64 444 64 440 43 c 128,-1,20
 436 22 436 22 436 14 c 0,21,22
 436 4 436 4 433.5 2 c 128,-1,23
 431 0 431 0 427 0 c 2,24,-1
 368 0 l 1,25,26
 366 66 366 66 332.5 100.5 c 128,-1,27
 299 135 299 135 238 139 c 1,28,-1
 232 99 l 2,29,30
 228 79 228 79 220.5 61 c 128,-1,31
 213 43 213 43 201.5 29 c 128,-1,32
 190 15 190 15 174 6.5 c 128,-1,33
 158 -2 158 -2 135 -2 c 0,34,35
 105 -2 105 -2 92.5 18 c 128,-1,36
 80 38 80 38 88 79 c 0,37,38
 98 124 98 124 128.5 147.5 c 128,-1,39
 159 171 159 171 192 177 c 1,40,41
 198 205 198 205 212 221 c 128,-1,42
 226 237 226 237 241 250 c 128,-1,43
 256 263 256 263 269 277.5 c 128,-1,44
 282 292 282 292 287 316 c 0,45,46
 290 333 290 333 286 341.5 c 128,-1,47
 282 350 282 350 280 355 c 1,48,-1
 232 318 l 1,49,50
 212 343 212 343 201 353 c 128,-1,51
 190 363 190 363 174 363 c 0,52,53
 161 363 161 363 151 351 c 128,-1,54
 141 339 141 339 138 325 c 0,55,56
 134 310 134 310 139 300 c 128,-1,57
 144 290 144 290 159 290 c 0,58,59
 165 290 165 290 171.5 292 c 128,-1,60
 178 294 178 294 184 299 c 2,61,-1
 206 318 l 1,62,-1
 214 306 l 1,63,-1
 202 277 l 1,64,65
 175 255 175 255 151 255 c 0,66,67
 122 255 122 255 109.5 275 c 128,-1,68
 97 295 97 295 103 324 c 0,69,70
 111 359 111 359 135 381 c 128,-1,71
 159 403 159 403 182 403 c 0,72,73
 195 403 195 403 206 397.5 c 128,-1,74
 217 392 217 392 226 385 c 0,75,76
 237 377 237 377 245 367 c 1,77,-1
 303 407 l 1,78,79
 312 403 312 403 320.5 393.5 c 128,-1,80
 329 384 329 384 335 372 c 128,-1,81
 341 360 341 360 343.5 346 c 128,-1,82
 346 332 346 332 343 318 c 0,0,1
176 96 m 0,83,84
 178 107 178 107 179 114 c 128,-1,85
 180 121 180 121 184 137 c 1,86,87
 165 132 165 132 148 122 c 128,-1,88
 131 112 131 112 125 81 c 0,89,90
 120 59 120 59 126 46.5 c 128,-1,91
 132 34 132 34 143 34 c 0,92,93
 152 34 152 34 157.5 39 c 128,-1,94
 163 44 163 44 166 52.5 c 128,-1,95
 169 61 169 61 171 72.5 c 128,-1,96
 173 84 173 84 176 96 c 0,83,84
EndSplineSet
EndChar
StartChar: uni0E07
Encoding: 3591 3591 220
Width: 384
Flags: W
Fore
146 287 m 1,0,1
 168 259 168 259 181 197.5 c 128,-1,2
 194 136 194 136 192 44 c 0,3,4
 192 41 192 41 201.5 39 c 128,-1,5
 211 37 211 37 222.5 37 c 128,-1,6
 234 37 234 37 244 39 c 128,-1,7
 254 41 254 41 255 45 c 0,8,9
 262 77 262 77 273 110.5 c 128,-1,10
 284 144 284 144 294.5 175 c 128,-1,11
 305 206 305 206 314.5 233.5 c 128,-1,12
 324 261 324 261 328 281 c 0,13,14
 332 300 332 300 335.5 316.5 c 128,-1,15
 339 333 339 333 338 345 c 128,-1,16
 337 357 337 357 330 363.5 c 128,-1,17
 323 370 323 370 306 370 c 0,18,19
 292 370 292 370 280.5 361 c 128,-1,20
 269 352 269 352 267 339 c 0,21,22
 264 327 264 327 270 317.5 c 128,-1,23
 276 308 276 308 291 308 c 2,24,-1
 321 308 l 1,25,-1
 317 291 l 1,26,-1
 284 273 l 1,27,28
 254 273 254 273 239 291 c 128,-1,29
 224 309 224 309 231 339 c 0,30,31
 234 354 234 354 243.5 366 c 128,-1,32
 253 378 253 378 265.5 387 c 128,-1,33
 278 396 278 396 293.5 401 c 128,-1,34
 309 406 309 406 324 406 c 0,35,36
 371 406 371 406 386 372.5 c 128,-1,37
 401 339 401 339 390 288 c 0,38,39
 387 272 387 272 379 247.5 c 128,-1,40
 371 223 371 223 362 197.5 c 128,-1,41
 353 172 353 172 344.5 148 c 128,-1,42
 336 124 336 124 331 108 c 0,43,44
 327 96 327 96 323 82 c 128,-1,45
 319 68 319 68 315.5 54.5 c 128,-1,46
 312 41 312 41 309.5 30 c 128,-1,47
 307 19 307 19 306 13 c 0,48,49
 305 8 305 8 291.5 4.5 c 128,-1,50
 278 1 278 1 259 -0.5 c 128,-1,51
 240 -2 240 -2 217.5 -1.5 c 128,-1,52
 195 -1 195 -1 176.5 0.5 c 128,-1,53
 158 2 158 2 145.5 5.5 c 128,-1,54
 133 9 133 9 133 14 c 0,55,56
 135 62 135 62 134 94 c 128,-1,57
 133 126 133 126 127.5 151 c 128,-1,58
 122 176 122 176 111.5 197.5 c 128,-1,59
 101 219 101 219 84 245 c 0,60,61
 82 248 82 248 88.5 253.5 c 128,-1,62
 95 259 95 259 105.5 265.5 c 128,-1,63
 116 272 116 272 127.5 278 c 128,-1,64
 139 284 139 284 146 287 c 1,0,1
EndSplineSet
EndChar
StartChar: uni0E08
Encoding: 3592 3592 221
Width: 428
Flags: W
Fore
174 14 m 0,0,1
 184 55 184 55 193 92.5 c 128,-1,2
 202 130 202 130 204.5 159.5 c 128,-1,3
 207 189 207 189 201.5 206.5 c 128,-1,4
 196 224 196 224 178 224 c 0,5,6
 164 224 164 224 152.5 215 c 128,-1,7
 141 206 141 206 139 193 c 0,8,9
 136 182 136 182 142 172 c 128,-1,10
 148 162 148 162 163 162 c 2,11,-1
 193 162 l 1,12,-1
 189 145 l 1,13,-1
 155 127 l 1,14,15
 125 127 125 127 110.5 145 c 128,-1,16
 96 163 96 163 103 193 c 0,17,18
 109 223 109 223 132.5 241.5 c 128,-1,19
 156 260 156 260 186 260 c 0,20,21
 243 260 243 260 252.5 206.5 c 128,-1,22
 262 153 262 153 236 44 c 0,23,24
 235 41 235 41 245 39 c 128,-1,25
 255 37 255 37 269 37 c 256,26,27
 283 37 283 37 295.5 39 c 128,-1,28
 308 41 308 41 308 45 c 0,29,30
 313 78 313 78 321.5 110.5 c 128,-1,31
 330 143 330 143 339.5 172 c 128,-1,32
 349 201 349 201 357 225 c 128,-1,33
 365 249 365 249 369 267 c 0,34,35
 376 300 376 300 366.5 318 c 128,-1,36
 357 336 357 336 341.5 344.5 c 128,-1,37
 326 353 326 353 310.5 355 c 128,-1,38
 295 357 295 357 289 357 c 0,39,40
 243 357 243 357 207 338 c 128,-1,41
 171 319 171 319 140 289 c 0,42,43
 137 286 137 286 130 287.5 c 128,-1,44
 123 289 123 289 114.5 294 c 128,-1,45
 106 299 106 299 99 307 c 128,-1,46
 92 315 92 315 89 325 c 1,47,48
 101 338 101 338 124 352 c 128,-1,49
 147 366 147 366 175.5 378 c 128,-1,50
 204 390 204 390 235 397.5 c 128,-1,51
 266 405 266 405 294 405 c 0,52,53
 326 405 326 405 354 398 c 128,-1,54
 382 391 382 391 401.5 376 c 128,-1,55
 421 361 421 361 430 336.5 c 128,-1,56
 439 312 439 312 431 277 c 0,57,58
 428 261 428 261 421 238.5 c 128,-1,59
 414 216 414 216 405.5 192 c 128,-1,60
 397 168 397 168 389 146 c 128,-1,61
 381 124 381 124 376 108 c 0,62,63
 372 96 372 96 369 82 c 128,-1,64
 366 68 366 68 363 54.5 c 128,-1,65
 360 41 360 41 358 30 c 128,-1,66
 356 19 356 19 355 13 c 0,67,68
 354 9 354 9 346 6.5 c 128,-1,69
 338 4 338 4 325.5 2 c 128,-1,70
 313 0 313 0 297.5 -1 c 128,-1,71
 282 -2 282 -2 265 -2 c 256,72,73
 248 -2 248 -2 231 -1 c 128,-1,74
 214 0 214 0 201 2 c 128,-1,75
 188 4 188 4 180.5 7 c 128,-1,76
 173 10 173 10 174 14 c 0,0,1
EndSplineSet
EndChar
StartChar: uni0E09
Encoding: 3593 3593 222
Width: 470
Flags: W
Fore
413 277 m 2,0,1
 419 306 419 306 408.5 322 c 128,-1,2
 398 338 398 338 381 346 c 128,-1,3
 364 354 364 354 347 355.5 c 128,-1,4
 330 357 330 357 324 357 c 0,5,6
 279 357 279 357 236 340 c 128,-1,7
 193 323 193 323 162 293 c 0,8,9
 155 287 155 287 141 301 c 128,-1,10
 127 315 127 315 117 335 c 1,11,12
 158 364 158 364 215.5 384.5 c 128,-1,13
 273 405 273 405 335 405 c 0,14,15
 370 405 370 405 399 398 c 128,-1,16
 428 391 428 391 447 376 c 128,-1,17
 466 361 466 361 473.5 336.5 c 128,-1,18
 481 312 481 312 473 277 c 2,19,-1
 456 195 l 2,20,21
 454 186 454 186 447 173 c 128,-1,22
 440 160 440 160 431 152 c 1,23,24
 448 141 448 141 454 119 c 128,-1,25
 460 97 460 97 455 71 c 0,26,27
 446 30 446 30 417.5 13 c 128,-1,28
 389 -4 389 -4 359 -4 c 256,29,30
 329 -4 329 -4 309 13 c 128,-1,31
 289 30 289 30 297 66 c 0,32,33
 302 89 302 89 314 102.5 c 128,-1,34
 326 116 326 116 340 126 c 1,35,36
 336 127 336 127 330 127 c 0,37,38
 306 127 306 127 284 116.5 c 128,-1,39
 262 106 262 106 244.5 89 c 128,-1,40
 227 72 227 72 214.5 49 c 128,-1,41
 202 26 202 26 197 0 c 1,42,-1
 148 0 l 2,43,44
 144 0 144 0 142 2 c 128,-1,45
 140 4 140 4 143 14 c 0,46,47
 150 30 150 30 160.5 56.5 c 128,-1,48
 171 83 171 83 182 132 c 2,49,-1
 189 166 l 2,50,51
 194 189 194 189 188.5 203 c 128,-1,52
 183 217 183 217 168 217 c 0,53,54
 151 217 151 217 139 206 c 128,-1,55
 127 195 127 195 124 180 c 256,56,57
 121 165 121 165 127 154 c 128,-1,58
 133 143 133 143 149 143 c 2,59,-1
 174 143 l 1,60,-1
 170 125 l 1,61,-1
 139 109 l 1,62,63
 110 109 110 109 95.5 129.5 c 128,-1,64
 81 150 81 150 88 180 c 0,65,66
 94 210 94 210 119.5 231 c 128,-1,67
 145 252 145 252 175 252 c 0,68,69
 214 252 214 252 231.5 227 c 128,-1,70
 249 202 249 202 238 160 c 2,71,-1
 230 132 l 2,72,73
 227 122 227 122 220 107 c 0,74,75
 216 99 216 99 213 91 c 1,76,77
 238 129 238 129 276 149 c 128,-1,78
 314 169 314 169 347 169 c 0,79,80
 361 169 361 169 371 167 c 128,-1,81
 381 165 381 165 386 163 c 1,82,83
 388 168 388 168 391 177 c 128,-1,84
 394 186 394 186 396 195 c 2,85,-1
 413 277 l 2,0,1
400 73 m 0,86,87
 403 89 403 89 395.5 101.5 c 128,-1,88
 388 114 388 114 376 118 c 1,89,90
 357 107 357 107 346 94.5 c 128,-1,91
 335 82 335 82 333 71 c 0,92,93
 329 55 329 55 334 43.5 c 128,-1,94
 339 32 339 32 356 32 c 0,95,96
 391 32 391 32 400 73 c 0,86,87
EndSplineSet
EndChar
StartChar: uni0E0A
Encoding: 3594 3594 223
Width: 427
Flags: W
Fore
428 424 m 1,0,1
 439 422 439 422 449 418 c 0,2,3
 457 415 457 415 465.5 411.5 c 128,-1,4
 474 408 474 408 477 403 c 1,5,6
 479 401 479 401 479 397 c 1,7,8
 477 393 477 393 474 390 c 0,9,10
 455 368 455 368 434.5 348.5 c 128,-1,11
 414 329 414 329 393 316 c 1,12,13
 398 312 398 312 404.5 306.5 c 128,-1,14
 411 301 411 301 416.5 292.5 c 128,-1,15
 422 284 422 284 424.5 271 c 128,-1,16
 427 258 427 258 423 240 c 2,17,-1
 396 113 l 2,18,19
 389 80 389 80 372.5 57.5 c 128,-1,20
 356 35 356 35 333 20.5 c 128,-1,21
 310 6 310 6 282 0 c 128,-1,22
 254 -6 254 -6 222 -6 c 0,23,24
 195 -6 195 -6 171 -0.5 c 128,-1,25
 147 5 147 5 130.5 17 c 128,-1,26
 114 29 114 29 106.5 48.5 c 128,-1,27
 99 68 99 68 105 96 c 2,28,-1
 114 140 l 2,29,30
 121 172 121 172 141.5 192 c 128,-1,31
 162 212 162 212 184.5 229 c 128,-1,32
 207 246 207 246 227 264 c 128,-1,33
 247 282 247 282 253 311 c 256,34,35
 259 340 259 340 247 353 c 128,-1,36
 235 366 235 366 204 366 c 0,37,38
 181 366 181 366 162 357.5 c 128,-1,39
 143 349 143 349 137 320 c 0,40,41
 134 307 134 307 138.5 298 c 128,-1,42
 143 289 143 289 157 289 c 0,43,44
 168 289 168 289 177.5 296 c 128,-1,45
 187 303 187 303 190 319 c 2,46,-1
 196 348 l 1,47,-1
 213 348 l 1,48,-1
 225 319 l 1,49,50
 219 289 219 289 199 270.5 c 128,-1,51
 179 252 179 252 149 252 c 256,52,53
 119 252 119 252 105 271.5 c 128,-1,54
 91 291 91 291 98 320 c 0,55,56
 106 356 106 356 138 380 c 128,-1,57
 170 404 170 404 216 404 c 0,58,59
 264 404 264 404 284.5 380 c 128,-1,60
 305 356 305 356 296 314 c 0,61,62
 289 283 289 283 271.5 261.5 c 128,-1,63
 254 240 254 240 234.5 222.5 c 128,-1,64
 215 205 215 205 198 188.5 c 128,-1,65
 181 172 181 172 176 150 c 2,66,-1
 166 103 l 2,67,68
 158 65 158 65 176.5 52 c 128,-1,69
 195 39 195 39 233 39 c 0,70,71
 256 39 256 39 273 41.5 c 128,-1,72
 290 44 290 44 302.5 51.5 c 128,-1,73
 315 59 315 59 323 72.5 c 128,-1,74
 331 86 331 86 335 108 c 0,75,76
 337 117 337 117 339 126.5 c 128,-1,77
 341 136 341 136 344 150 c 128,-1,78
 347 164 347 164 351 185 c 128,-1,79
 355 206 355 206 362 238 c 0,80,81
 365 254 365 254 364.5 264 c 128,-1,82
 364 274 364 274 360.5 280 c 128,-1,83
 357 286 357 286 352.5 288.5 c 128,-1,84
 348 291 348 291 343 291 c 0,85,86
 337 291 337 291 334 288.5 c 128,-1,87
 331 286 331 286 324 286 c 0,88,89
 321 286 321 286 317.5 291.5 c 128,-1,90
 314 297 314 297 311.5 303.5 c 128,-1,91
 309 310 309 310 308.5 315.5 c 128,-1,92
 308 321 308 321 311 322 c 0,93,94
 328 326 328 326 340 330.5 c 128,-1,95
 352 335 352 335 364 344 c 0,96,97
 379 355 379 355 391 369 c 128,-1,98
 403 383 403 383 411 395 c 0,99,100
 421 409 421 409 428 424 c 1,0,1
EndSplineSet
EndChar
StartChar: uni0E0B
Encoding: 3595 3595 224
Width: 433
Flags: W
Fore
121 145 m 2,0,1
 129 181 129 181 148.5 201.5 c 128,-1,2
 168 222 168 222 190 237.5 c 128,-1,3
 212 253 212 253 231 270 c 128,-1,4
 250 287 250 287 256 316 c 0,5,6
 260 335 260 335 260 345 c 0,7,8
 260 350 260 350 259 353 c 1,9,-1
 216 323 l 1,10,11
 196 348 196 348 186.5 357 c 128,-1,12
 177 366 177 366 169 366 c 0,13,14
 156 366 156 366 147 357 c 128,-1,15
 138 348 138 348 134 334 c 0,16,17
 131 319 131 319 136 309 c 128,-1,18
 141 299 141 299 156 299 c 0,19,20
 162 299 162 299 171 303.5 c 128,-1,21
 180 308 180 308 194 320 c 1,22,-1
 201 308 l 1,23,-1
 190 285 l 1,24,25
 168 264 168 264 148 264 c 0,26,27
 119 264 119 264 106.5 284 c 128,-1,28
 94 304 94 304 100 333 c 0,29,30
 108 368 108 368 131 385.5 c 128,-1,31
 154 403 154 403 177 403 c 0,32,33
 190 403 190 403 199.5 397.5 c 128,-1,34
 209 392 209 392 215 384 c 0,35,36
 222 375 222 375 227 364 c 1,37,-1
 286 407 l 1,38,39
 301 393 301 393 302.5 369.5 c 128,-1,40
 304 346 304 346 298 318 c 0,41,42
 291 283 291 283 273 261 c 128,-1,43
 255 239 255 239 236 222.5 c 128,-1,44
 217 206 217 206 201.5 190 c 128,-1,45
 186 174 186 174 182 150 c 2,46,-1
 172 103 l 2,47,48
 164 65 164 65 182.5 52 c 128,-1,49
 201 39 201 39 239 39 c 0,50,51
 262 39 262 39 279 41.5 c 128,-1,52
 296 44 296 44 308.5 51.5 c 128,-1,53
 321 59 321 59 329 72.5 c 128,-1,54
 337 86 337 86 341 108 c 0,55,56
 343 117 343 117 345 126.5 c 128,-1,57
 347 136 347 136 350 150 c 128,-1,58
 353 164 353 164 357 185 c 128,-1,59
 361 206 361 206 368 238 c 0,60,61
 371 254 371 254 370.5 264 c 128,-1,62
 370 274 370 274 366.5 280 c 128,-1,63
 363 286 363 286 358.5 288.5 c 128,-1,64
 354 291 354 291 349 291 c 0,65,66
 343 291 343 291 340 288.5 c 128,-1,67
 337 286 337 286 330 286 c 0,68,69
 327 286 327 286 323.5 291.5 c 128,-1,70
 320 297 320 297 317.5 303.5 c 128,-1,71
 315 310 315 310 314.5 315.5 c 128,-1,72
 314 321 314 321 317 322 c 0,73,74
 334 326 334 326 346 330.5 c 128,-1,75
 358 335 358 335 370 344 c 0,76,77
 385 355 385 355 397 369 c 128,-1,78
 409 383 409 383 417 395 c 0,79,80
 427 409 427 409 434 424 c 1,81,82
 445 422 445 422 455 418 c 0,83,84
 463 415 463 415 471.5 411.5 c 128,-1,85
 480 408 480 408 483 403 c 1,86,87
 485 401 485 401 485 397 c 1,88,89
 483 393 483 393 480 390 c 0,90,91
 461 368 461 368 440.5 348.5 c 128,-1,92
 420 329 420 329 399 316 c 1,93,94
 404 312 404 312 410.5 306.5 c 128,-1,95
 417 301 417 301 422.5 292.5 c 128,-1,96
 428 284 428 284 430.5 271 c 128,-1,97
 433 258 433 258 429 240 c 2,98,-1
 402 113 l 2,99,100
 395 80 395 80 378.5 57.5 c 128,-1,101
 362 35 362 35 339 20.5 c 128,-1,102
 316 6 316 6 288 0 c 128,-1,103
 260 -6 260 -6 228 -6 c 0,104,105
 201 -6 201 -6 177 -0.5 c 128,-1,106
 153 5 153 5 136.5 17 c 128,-1,107
 120 29 120 29 112.5 48.5 c 128,-1,108
 105 68 105 68 111 96 c 2,109,-1
 121 145 l 2,0,1
EndSplineSet
EndChar
StartChar: uni0E0C
Encoding: 3596 3596 225
Width: 664
Flags: W
Fore
362 96 m 0,0,1
 364 103 364 103 364.5 111.5 c 128,-1,2
 365 120 365 120 368 137 c 1,3,4
 349 132 349 132 333 121.5 c 128,-1,5
 317 111 317 111 311 81 c 0,6,7
 306 59 306 59 312 46.5 c 128,-1,8
 318 34 318 34 329 34 c 0,9,10
 338 34 338 34 343.5 39 c 128,-1,11
 349 44 349 44 352 52.5 c 128,-1,12
 355 61 355 61 357 72.5 c 128,-1,13
 359 84 359 84 362 96 c 0,0,1
142 77 m 2,14,15
 137 54 137 54 143.5 41.5 c 128,-1,16
 150 29 150 29 165 29 c 0,17,18
 182 29 182 29 193 40 c 128,-1,19
 204 51 204 51 208 66 c 0,20,21
 211 81 211 81 204.5 91.5 c 128,-1,22
 198 102 198 102 183 102 c 2,23,-1
 155 102 l 1,24,-1
 159 118 l 1,25,-1
 191 137 l 1,26,27
 220 137 220 137 235 116.5 c 128,-1,28
 250 96 250 96 244 66 c 0,29,30
 237 36 237 36 212 15 c 128,-1,31
 187 -6 187 -6 157 -6 c 0,32,33
 140 -6 140 -6 124.5 0 c 128,-1,34
 109 6 109 6 98.5 18 c 128,-1,35
 88 30 88 30 84 48 c 128,-1,36
 80 66 80 66 85 90 c 2,37,-1
 103 178 l 2,38,39
 111 216 111 216 122.5 233.5 c 128,-1,40
 134 251 134 251 154 268 c 1,41,42
 151 270 151 270 143.5 276 c 128,-1,43
 136 282 136 282 128.5 289.5 c 128,-1,44
 121 297 121 297 116 305 c 128,-1,45
 111 313 111 313 112 319 c 0,46,47
 114 328 114 328 131.5 343 c 128,-1,48
 149 358 149 358 176 372 c 128,-1,49
 203 386 203 386 237 396 c 128,-1,50
 271 406 271 406 307 406 c 0,51,52
 341 406 341 406 371 399 c 128,-1,53
 401 392 401 392 421.5 374 c 128,-1,54
 442 356 442 356 449.5 325.5 c 128,-1,55
 457 295 457 295 447 249 c 2,56,-1
 432 178 l 1,57,58
 482 175 482 175 517 153.5 c 128,-1,59
 552 132 552 132 563 81 c 1,60,61
 565 93 565 93 568 110.5 c 128,-1,62
 571 128 571 128 574.5 146 c 128,-1,63
 578 164 578 164 581.5 181.5 c 128,-1,64
 585 199 585 199 587 211 c 2,65,-1
 628 400 l 1,66,-1
 688 400 l 1,67,-1
 650 222 l 2,68,69
 643 189 643 189 636 155 c 128,-1,70
 629 121 629 121 623.5 92.5 c 128,-1,71
 618 64 618 64 614 43 c 128,-1,72
 610 22 610 22 610 14 c 0,73,74
 610 4 610 4 607.5 2 c 128,-1,75
 605 0 605 0 601 0 c 2,76,-1
 542 0 l 1,77,78
 540 66 540 66 513 100 c 128,-1,79
 486 134 486 134 425 139 c 1,80,-1
 418 99 l 2,81,82
 414 79 414 79 406.5 61 c 128,-1,83
 399 43 399 43 387.5 29 c 128,-1,84
 376 15 376 15 360 6.5 c 128,-1,85
 344 -2 344 -2 321 -2 c 0,86,87
 291 -2 291 -2 278.5 18 c 128,-1,88
 266 38 266 38 274 79 c 0,89,90
 284 124 284 124 313.5 147 c 128,-1,91
 343 170 343 170 375 176 c 1,92,93
 376 182 376 182 378 192.5 c 128,-1,94
 380 203 380 203 381.5 214 c 128,-1,95
 383 225 383 225 384.5 235 c 128,-1,96
 386 245 386 245 387 249 c 0,97,98
 395 288 395 288 392.5 310 c 128,-1,99
 390 332 390 332 378 343.5 c 128,-1,100
 366 355 366 355 345.5 358 c 128,-1,101
 325 361 325 361 297 361 c 0,102,103
 272 361 272 361 250 356.5 c 128,-1,104
 228 352 228 352 210.5 345.5 c 128,-1,105
 193 339 193 339 183 332.5 c 128,-1,106
 173 326 173 326 172 321 c 0,107,108
 171 318 171 318 173.5 313 c 128,-1,109
 176 308 176 308 180 302.5 c 128,-1,110
 184 297 184 297 188.5 293.5 c 128,-1,111
 193 290 193 290 196 290 c 0,112,113
 204 290 204 290 214.5 296.5 c 128,-1,114
 225 303 225 303 234 303 c 0,115,116
 237 303 237 303 241 296.5 c 128,-1,117
 245 290 245 290 248 282 c 128,-1,118
 251 274 251 274 252 267.5 c 128,-1,119
 253 261 253 261 249 261 c 0,120,121
 234 261 234 261 221 258.5 c 128,-1,122
 208 256 208 256 197 247.5 c 128,-1,123
 186 239 186 239 177.5 222.5 c 128,-1,124
 169 206 169 206 163 178 c 2,125,-1
 142 77 l 2,14,15
EndSplineSet
EndChar
StartChar: uni0E0D
Encoding: 3597 3597 226
Width: 663
Flags: W
Fore
155 102 m 1,0,-1
 159 118 l 1,1,-1
 191 137 l 1,2,3
 220 137 220 137 235 116.5 c 128,-1,4
 250 96 250 96 244 66 c 0,5,6
 237 36 237 36 212 15 c 128,-1,7
 187 -6 187 -6 157 -6 c 0,8,9
 140 -6 140 -6 124.5 0 c 128,-1,10
 109 6 109 6 98.5 18 c 128,-1,11
 88 30 88 30 84 48 c 128,-1,12
 80 66 80 66 85 90 c 2,13,-1
 103 178 l 2,14,15
 111 216 111 216 122.5 233.5 c 128,-1,16
 134 251 134 251 154 268 c 1,17,18
 151 270 151 270 143.5 276 c 128,-1,19
 136 282 136 282 128.5 289.5 c 128,-1,20
 121 297 121 297 116 305 c 128,-1,21
 111 313 111 313 112 319 c 0,22,23
 114 328 114 328 130 343 c 128,-1,24
 146 358 146 358 171 372 c 128,-1,25
 196 386 196 386 228.5 396 c 128,-1,26
 261 406 261 406 297 406 c 0,27,28
 331 406 331 406 360 399 c 128,-1,29
 389 392 389 392 408.5 374 c 128,-1,30
 428 356 428 356 435 325.5 c 128,-1,31
 442 295 442 295 432 249 c 0,32,33
 429 237 429 237 425 220 c 128,-1,34
 417 186 l 128,-1,35
 413 169 413 169 409 153 c 128,-1,36
 405 137 405 137 403 127 c 0,37,38
 398 103 398 103 397.5 89.5 c 128,-1,39
 397 76 397 76 404 66 c 0,40,41
 413 52 413 52 430.5 45.5 c 128,-1,42
 448 39 448 39 471 39 c 0,43,44
 519 39 519 39 550 66 c 0,45,46
 560 76 560 76 564.5 85.5 c 128,-1,47
 569 95 569 95 574 115 c 0,48,49
 578 132 578 132 583.5 162 c 128,-1,50
 589 192 589 192 594 217 c 2,51,-1
 633 400 l 1,52,-1
 693 400 l 1,53,-1
 636 132 l 2,54,55
 628 94 628 94 619 72.5 c 128,-1,56
 610 51 610 51 593 35 c 0,57,58
 563 8 563 8 525.5 1 c 128,-1,59
 488 -6 488 -6 461 -6 c 0,60,61
 448 -6 448 -6 431.5 -4.5 c 128,-1,62
 415 -3 415 -3 399.5 1 c 128,-1,63
 384 5 384 5 370 13.5 c 128,-1,64
 356 22 356 22 347 35 c 0,65,66
 337 50 337 50 339 75 c 128,-1,67
 341 100 341 100 348 132 c 2,68,-1
 372 249 l 2,69,70
 380 288 380 288 378.5 310 c 128,-1,71
 377 332 377 332 365.5 343.5 c 128,-1,72
 354 355 354 355 334.5 358 c 128,-1,73
 315 361 315 361 287 361 c 0,74,75
 262 361 262 361 241.5 356.5 c 128,-1,76
 221 352 221 352 205.5 345.5 c 128,-1,77
 190 339 190 339 181.5 332.5 c 128,-1,78
 173 326 173 326 172 321 c 0,79,80
 171 318 171 318 173.5 313 c 128,-1,81
 176 308 176 308 180 302.5 c 128,-1,82
 184 297 184 297 188.5 293.5 c 128,-1,83
 193 290 193 290 196 290 c 0,84,85
 204 290 204 290 214.5 296.5 c 128,-1,86
 225 303 225 303 234 303 c 0,87,88
 237 303 237 303 241 296.5 c 128,-1,89
 245 290 245 290 248 282 c 128,-1,90
 251 274 251 274 252 267.5 c 128,-1,91
 253 261 253 261 249 261 c 0,92,93
 234 261 234 261 221 258.5 c 128,-1,94
 208 256 208 256 197 247.5 c 128,-1,95
 186 239 186 239 177.5 222.5 c 128,-1,96
 169 206 169 206 163 178 c 2,97,-1
 142 77 l 2,98,99
 137 54 137 54 143.5 41.5 c 128,-1,100
 150 29 150 29 165 29 c 0,101,102
 182 29 182 29 193 40 c 128,-1,103
 204 51 204 51 208 66 c 0,104,105
 211 81 211 81 204.5 91.5 c 128,-1,106
 198 102 198 102 183 102 c 2,107,-1
 155 102 l 1,0,-1
588 -48 m 1,108,109
 582 -77 582 -77 568 -102.5 c 128,-1,110
 554 -128 554 -128 532 -147 c 128,-1,111
 510 -166 510 -166 479.5 -177 c 128,-1,112
 449 -188 449 -188 409 -188 c 0,113,114
 346 -188 346 -188 323.5 -162 c 128,-1,115
 301 -136 301 -136 309 -101 c 0,116,117
 316 -71 316 -71 339 -56 c 128,-1,118
 362 -41 362 -41 384 -41 c 0,119,120
 407 -41 407 -41 419 -55.5 c 128,-1,121
 431 -70 431 -70 424 -99 c 1,122,-1
 402 -128 l 1,123,-1
 386 -128 l 1,124,-1
 392 -99 l 2,125,126
 395 -85 395 -85 390 -79.5 c 128,-1,127
 385 -74 385 -74 377 -74 c 0,128,129
 353 -74 353 -74 347 -101 c 0,130,131
 342 -126 342 -126 357 -137 c 128,-1,132
 372 -148 372 -148 414 -148 c 0,133,134
 440 -148 440 -148 459 -143.5 c 128,-1,135
 478 -139 478 -139 491.5 -127.5 c 128,-1,136
 505 -116 505 -116 514 -96.5 c 128,-1,137
 523 -77 523 -77 529 -48 c 1,138,-1
 588 -48 l 1,108,109
EndSplineSet
Substitution: 0 65534 'L031' uni0E0D.alt1
Substitution: 0 65534 'L031' uni0E0D.alt1
EndChar
StartChar: uni0E0E
Encoding: 3598 3598 227
Width: 484
Flags: W
Fore
331 361 m 0,0,1
 306 361 306 361 285.5 356.5 c 128,-1,2
 265 352 265 352 249.5 345.5 c 128,-1,3
 234 339 234 339 225.5 332.5 c 128,-1,4
 217 326 217 326 216 321 c 0,5,6
 215 318 215 318 217.5 312 c 128,-1,7
 220 306 220 306 224 300.5 c 128,-1,8
 228 295 228 295 232 290.5 c 128,-1,9
 236 286 236 286 239 286 c 0,10,11
 247 286 247 286 257.5 292.5 c 128,-1,12
 268 299 268 299 277 299 c 0,13,14
 280 299 280 299 283.5 292.5 c 128,-1,15
 287 286 287 286 289 278 c 128,-1,16
 291 270 291 270 291 263.5 c 128,-1,17
 291 257 291 257 287 257 c 0,18,19
 269 257 269 257 257.5 254.5 c 128,-1,20
 246 252 246 252 239.5 245 c 128,-1,21
 233 238 233 238 229 225.5 c 128,-1,22
 225 213 225 213 220 192 c 0,23,24
 217 175 217 175 215 161.5 c 128,-1,25
 213 148 213 148 211.5 134.5 c 128,-1,26
 210 121 210 121 207.5 106.5 c 128,-1,27
 205 92 205 92 201 73 c 0,28,29
 193 35 193 35 166 14.5 c 128,-1,30
 139 -6 139 -6 104 -6 c 256,31,32
 69 -6 69 -6 53 15 c 128,-1,33
 37 36 37 36 44 66 c 0,34,35
 50 96 50 96 72 116 c 128,-1,36
 94 136 94 136 122 136 c 1,37,-1
 142 119 l 1,38,-1
 138 103 l 1,39,-1
 115 103 l 2,40,41
 100 103 100 103 91.5 92 c 128,-1,42
 83 81 83 81 80 66 c 0,43,44
 76 51 76 51 83 40 c 128,-1,45
 90 29 90 29 107 29 c 0,46,47
 122 29 122 29 134 40.5 c 128,-1,48
 146 52 146 52 151 75 c 0,49,50
 154 86 154 86 155 102 c 128,-1,51
 156 118 156 118 157 135.5 c 128,-1,52
 158 153 158 153 159 170 c 128,-1,53
 160 187 160 187 163 200 c 0,54,55
 167 219 167 219 173 235.5 c 128,-1,56
 179 252 179 252 198 268 c 1,57,58
 195 270 195 270 187.5 276 c 128,-1,59
 180 282 180 282 172.5 289.5 c 128,-1,60
 165 297 165 297 160 305 c 128,-1,61
 155 313 155 313 156 319 c 0,62,63
 158 328 158 328 174 343 c 128,-1,64
 190 358 190 358 215 372 c 128,-1,65
 240 386 240 386 272.5 396 c 128,-1,66
 305 406 305 406 341 406 c 0,67,68
 375 406 375 406 405 399 c 128,-1,69
 435 392 435 392 455.5 374 c 128,-1,70
 476 356 476 356 483.5 325.5 c 128,-1,71
 491 295 491 295 481 249 c 2,72,-1
 390 -180 l 1,73,-1
 322 -180 l 1,74,75
 317 -167 317 -167 304.5 -147 c 128,-1,76
 292 -127 292 -127 270 -113 c 1,77,78
 253 -139 253 -139 222 -160.5 c 128,-1,79
 191 -182 191 -182 157 -182 c 0,80,81
 128 -182 128 -182 110.5 -167.5 c 128,-1,82
 93 -153 93 -153 101 -115 c 0,83,84
 116 -47 116 -47 197 -47 c 0,85,86
 216 -47 216 -47 230.5 -51 c 128,-1,87
 245 -55 245 -55 259 -61 c 1,88,89
 263 -54 263 -54 266 -47.5 c 128,-1,90
 269 -41 269 -41 271 -36 c 0,91,92
 274 -30 274 -30 276 -24 c 1,93,-1
 292 -28 l 2,94,95
 298 -30 298 -30 304.5 -32 c 128,-1,96
 311 -34 311 -34 314 -37 c 0,97,98
 316 -39 316 -39 315 -42.5 c 128,-1,99
 314 -46 314 -46 312 -49 c 0,100,101
 310 -53 310 -53 304 -62.5 c 128,-1,102
 298 -72 298 -72 293 -79 c 1,103,104
 310 -90 310 -90 323 -101.5 c 128,-1,105
 336 -113 336 -113 343 -124 c 1,106,107
 346 -112 346 -112 350 -91 c 128,-1,108
 354 -70 354 -70 362.5 -28.5 c 128,-1,109
 371 13 371 13 385 79.5 c 128,-1,110
 399 146 399 146 421 249 c 0,111,112
 429 288 429 288 426.5 310 c 128,-1,113
 424 332 424 332 412 343.5 c 128,-1,114
 400 355 400 355 379.5 358 c 128,-1,115
 359 361 359 361 331 361 c 0,0,1
165 -141 m 0,116,117
 188 -141 188 -141 205.5 -128 c 128,-1,118
 223 -115 223 -115 238 -97 c 1,119,120
 226 -92 226 -92 216 -89.5 c 128,-1,121
 206 -87 206 -87 192 -87 c 0,122,123
 168 -87 168 -87 156.5 -94 c 128,-1,124
 145 -101 145 -101 142 -117 c 0,125,126
 139 -130 139 -130 145.5 -135.5 c 128,-1,127
 152 -141 152 -141 165 -141 c 0,116,117
EndSplineSet
Substitution: 0 65534 'L031' uni0E0E.alt1
Substitution: 0 65534 'L031' uni0E0E.alt1
EndChar
StartChar: uni0E0F
Encoding: 3599 3599 228
Width: 484
Flags: W
Fore
185 -117 m 1,0,1
 175 -103 175 -103 167.5 -96 c 128,-1,2
 160 -89 160 -89 148 -89 c 0,3,4
 122 -89 122 -89 116 -117 c 0,5,6
 109 -145 109 -145 137 -145 c 0,7,8
 159 -145 159 -145 185 -117 c 1,0,1
341 406 m 0,9,10
 375 406 375 406 405 399 c 128,-1,11
 435 392 435 392 455.5 374 c 128,-1,12
 476 356 476 356 483.5 325.5 c 128,-1,13
 491 295 491 295 481 249 c 2,14,-1
 387 -190 l 1,15,-1
 324 -190 l 1,16,-1
 283 -155 l 1,17,-1
 229 -188 l 1,18,-1
 201 -150 l 1,19,20
 181 -167 181 -167 163 -176.5 c 128,-1,21
 145 -186 145 -186 125 -186 c 0,22,23
 99 -186 99 -186 83 -169.5 c 128,-1,24
 67 -153 67 -153 74 -118 c 0,25,26
 79 -96 79 -96 88 -82.5 c 128,-1,27
 97 -69 97 -69 108 -61.5 c 128,-1,28
 119 -54 119 -54 131 -51 c 128,-1,29
 143 -48 143 -48 154 -48 c 0,30,31
 174 -48 174 -48 187 -59 c 128,-1,32
 200 -70 200 -70 208 -79 c 1,33,34
 213 -70 213 -70 218 -55.5 c 128,-1,35
 223 -41 223 -41 225 -33 c 1,36,37
 233 -33 233 -33 240 -34 c 0,38,39
 254 -36 254 -36 263 -41 c 0,40,41
 266 -43 266 -43 265.5 -46.5 c 128,-1,42
 265 -50 265 -50 263 -55 c 0,43,44
 261 -62 261 -62 255.5 -71.5 c 128,-1,45
 250 -81 250 -81 245 -90 c 0,46,47
 239 -101 239 -101 232 -111 c 1,48,-1
 244 -132 l 1,49,-1
 292 -104 l 1,50,-1
 341 -134 l 1,51,52
 344 -122 344 -122 348.5 -99 c 128,-1,53
 353 -76 353 -76 362 -33 c 128,-1,54
 371 10 371 10 385 78 c 128,-1,55
 399 146 399 146 421 249 c 0,56,57
 429 288 429 288 426.5 310 c 128,-1,58
 424 332 424 332 412 343.5 c 128,-1,59
 400 355 400 355 379.5 358 c 128,-1,60
 359 361 359 361 331 361 c 0,61,62
 306 361 306 361 285.5 356.5 c 128,-1,63
 265 352 265 352 249.5 345.5 c 128,-1,64
 234 339 234 339 225.5 332.5 c 128,-1,65
 217 326 217 326 216 321 c 0,66,67
 215 318 215 318 217.5 312 c 128,-1,68
 220 306 220 306 224 300.5 c 128,-1,69
 228 295 228 295 232 290.5 c 128,-1,70
 236 286 236 286 239 286 c 0,71,72
 247 286 247 286 257.5 292.5 c 128,-1,73
 268 299 268 299 277 299 c 0,74,75
 280 299 280 299 283.5 292.5 c 128,-1,76
 287 286 287 286 289 278 c 128,-1,77
 291 270 291 270 291 263.5 c 128,-1,78
 291 257 291 257 287 257 c 0,79,80
 269 257 269 257 257.5 254.5 c 128,-1,81
 246 252 246 252 239.5 245 c 128,-1,82
 233 238 233 238 229 225.5 c 128,-1,83
 225 213 225 213 220 192 c 0,84,85
 217 175 217 175 215 161.5 c 128,-1,86
 213 148 213 148 211.5 134.5 c 128,-1,87
 210 121 210 121 207.5 106.5 c 128,-1,88
 205 92 205 92 201 73 c 0,89,90
 193 35 193 35 166 14.5 c 128,-1,91
 139 -6 139 -6 104 -6 c 256,92,93
 69 -6 69 -6 53 15 c 128,-1,94
 37 36 37 36 44 66 c 0,95,96
 50 96 50 96 72 116 c 128,-1,97
 94 136 94 136 122 136 c 1,98,-1
 142 119 l 1,99,-1
 138 103 l 1,100,-1
 115 103 l 2,101,102
 100 103 100 103 91.5 92 c 128,-1,103
 83 81 83 81 80 66 c 0,104,105
 76 51 76 51 83 40 c 128,-1,106
 90 29 90 29 107 29 c 0,107,108
 122 29 122 29 134 40.5 c 128,-1,109
 146 52 146 52 151 75 c 0,110,111
 154 86 154 86 155 102 c 128,-1,112
 156 118 156 118 157 135.5 c 128,-1,113
 158 153 158 153 159 170 c 128,-1,114
 160 187 160 187 163 200 c 0,115,116
 167 219 167 219 173 235.5 c 128,-1,117
 179 252 179 252 198 268 c 1,118,119
 195 270 195 270 187.5 276 c 128,-1,120
 180 282 180 282 172.5 289.5 c 128,-1,121
 165 297 165 297 160 305 c 128,-1,122
 155 313 155 313 156 319 c 0,123,124
 158 328 158 328 174 343 c 128,-1,125
 190 358 190 358 215 372 c 128,-1,126
 240 386 240 386 272.5 396 c 128,-1,127
 305 406 305 406 341 406 c 0,9,10
EndSplineSet
Substitution: 0 65534 'L031' uni0E0F.alt1
Substitution: 0 65534 'L031' uni0E0F.alt1
EndChar
StartChar: uni0E10
Encoding: 3600 3600 229
Width: 409
Flags: W
Fore
128 -133 m 1,0,1
 111 -108 111 -108 91 -108 c 0,2,3
 80 -108 80 -108 70 -114.5 c 128,-1,4
 60 -121 60 -121 57 -134 c 256,5,6
 54 -147 54 -147 62 -153 c 128,-1,7
 70 -159 70 -159 81 -159 c 256,8,9
 92 -159 92 -159 104 -154.5 c 128,-1,10
 116 -150 116 -150 128 -133 c 1,0,1
198 94 m 1,11,-1
 165 76 l 1,12,13
 135 76 135 76 120 94 c 128,-1,14
 105 112 105 112 112 142 c 0,15,16
 118 172 118 172 141.5 190.5 c 128,-1,17
 165 209 165 209 195 209 c 0,18,19
 227 209 227 209 242.5 198 c 128,-1,20
 258 187 258 187 262.5 165.5 c 128,-1,21
 267 144 267 144 261.5 113.5 c 128,-1,22
 256 83 256 83 246 44 c 0,23,24
 245 41 245 41 252 39 c 128,-1,25
 259 37 259 37 268.5 37 c 128,-1,26
 278 37 278 37 286.5 39 c 128,-1,27
 295 41 295 41 296 45 c 0,28,29
 310 90 310 90 324.5 126.5 c 128,-1,30
 339 163 339 163 347 198 c 0,31,32
 349 208 349 208 348 218 c 128,-1,33
 347 228 347 228 339 236 c 128,-1,34
 331 244 331 244 312.5 249 c 128,-1,35
 294 254 294 254 261 254 c 0,36,37
 230 254 230 254 202.5 250 c 128,-1,38
 175 246 175 246 155 246 c 0,39,40
 126 246 126 246 120 267.5 c 128,-1,41
 114 289 114 289 120 316 c 0,42,43
 128 357 128 357 155.5 378.5 c 128,-1,44
 183 400 183 400 220 400 c 0,45,46
 227 400 227 400 239.5 399 c 128,-1,47
 252 398 252 398 267 396.5 c 128,-1,48
 282 395 282 395 298 394 c 128,-1,49
 314 393 314 393 328 393 c 0,50,51
 346 393 346 393 365.5 395.5 c 128,-1,52
 385 398 385 398 402 401 c 0,53,54
 440 409 l 1,55,56
 441 399 441 399 441 390 c 0,57,58
 441 382 441 382 441.5 374.5 c 128,-1,59
 442 367 442 367 440 362 c 1,60,61
 439 356 439 356 429 352 c 1,62,63
 423 351 423 351 412 349 c 128,-1,64
 401 347 401 347 387 346 c 128,-1,65
 373 345 373 345 357.5 344 c 128,-1,66
 342 343 342 343 328 343 c 0,67,68
 315 343 315 343 301 345 c 128,-1,69
 287 347 287 347 273.5 349 c 128,-1,70
 260 351 260 351 249 353 c 128,-1,71
 238 355 238 355 232 355 c 0,72,73
 203 355 203 355 191.5 346 c 128,-1,74
 180 337 180 337 175 314 c 0,75,76
 173 303 173 303 177 297.5 c 128,-1,77
 181 292 181 292 201 292 c 256,78,79
 221 292 221 292 253.5 299 c 128,-1,80
 286 306 286 306 321 306 c 0,81,82
 347 306 347 306 365.5 297 c 128,-1,83
 384 288 384 288 394.5 273.5 c 128,-1,84
 405 259 405 259 408.5 241 c 128,-1,85
 412 223 412 223 408 204 c 0,86,87
 405 190 405 190 397.5 168.5 c 128,-1,88
 390 147 390 147 380 121.5 c 128,-1,89
 370 96 370 96 360 68 c 128,-1,90
 350 40 350 40 342 13 c 0,91,92
 341 8 341 8 329 4.5 c 128,-1,93
 317 1 317 1 300 -0.5 c 128,-1,94
 283 -2 283 -2 264 -1.5 c 128,-1,95
 245 -1 245 -1 229 0.5 c 128,-1,96
 213 2 213 2 203 5.5 c 128,-1,97
 193 9 193 9 194 14 c 0,98,99
 204 55 204 55 211 84.5 c 128,-1,100
 218 114 218 114 219 134 c 128,-1,101
 220 154 220 154 212.5 163.5 c 128,-1,102
 205 173 205 173 187 173 c 0,103,104
 173 173 173 173 161.5 164 c 128,-1,105
 150 155 150 155 148 142 c 0,106,107
 145 131 145 131 151 121 c 128,-1,108
 157 111 157 111 172 111 c 2,109,-1
 202 111 l 1,110,-1
 198 94 l 1,11,-1
149 -102 m 1,111,112
 154 -93 154 -93 156.5 -81.5 c 128,-1,113
 159 -70 159 -70 161 -62 c 1,114,115
 168 -62 168 -62 175 -63 c 0,116,117
 189 -65 189 -65 196 -69 c 0,118,119
 199 -71 199 -71 198.5 -74.5 c 128,-1,120
 198 -78 198 -78 196 -83 c 0,121,122
 194 -90 194 -90 189 -99 c 128,-1,123
 179 -117 l 0,124,125
 174 -128 174 -128 167 -138 c 1,126,-1
 178 -152 l 1,127,-1
 221 -131 l 1,128,-1
 265 -157 l 1,129,130
 270 -136 270 -136 284 -122 c 128,-1,131
 298 -108 298 -108 303 -87 c 0,132,133
 305 -76 305 -76 301.5 -67 c 128,-1,134
 298 -58 298 -58 286 -58 c 0,135,136
 264 -58 264 -58 259 -81 c 0,137,138
 257 -89 257 -89 260 -93.5 c 128,-1,139
 263 -98 263 -98 266 -101 c 2,140,-1
 277 -111 l 1,141,-1
 267 -122 l 1,142,-1
 244 -118 l 1,143,144
 237 -111 237 -111 233.5 -102 c 128,-1,145
 230 -93 230 -93 232 -83 c 0,146,147
 237 -58 237 -58 254.5 -44 c 128,-1,148
 272 -30 272 -30 294 -30 c 0,149,150
 323 -30 323 -30 334.5 -48 c 128,-1,151
 346 -66 346 -66 341 -86 c 0,152,153
 337 -104 337 -104 322.5 -133.5 c 128,-1,154
 308 -163 308 -163 301 -196 c 1,155,-1
 246 -196 l 1,156,-1
 213 -173 l 1,157,-1
 164 -198 l 1,158,-1
 139 -164 l 1,159,160
 121 -182 121 -182 105 -189.5 c 128,-1,161
 89 -197 89 -197 71 -197 c 0,162,163
 47 -197 47 -197 29.5 -182.5 c 128,-1,164
 12 -168 12 -168 19 -134 c 0,165,166
 23 -115 23 -115 32 -102.5 c 128,-1,167
 41 -90 41 -90 52 -82.5 c 128,-1,168
 63 -75 63 -75 75.5 -72 c 128,-1,169
 88 -69 88 -69 98 -69 c 0,170,171
 116 -69 116 -69 129 -80.5 c 128,-1,172
 142 -92 142 -92 149 -102 c 1,111,112
EndSplineSet
Substitution: 0 65534 'L031' uni0E10.alt1
Substitution: 0 65534 'L031' uni0E10.alt1
EndChar
StartChar: uni0E11
Encoding: 3601 3601 230
Width: 486
Flags: W
Fore
201 308 m 1,0,-1
 191 287 l 1,1,2
 170 267 170 267 148 267 c 0,3,4
 121 267 121 267 108 287 c 128,-1,5
 95 307 95 307 100 334 c 0,6,7
 108 369 108 369 131 386 c 128,-1,8
 154 403 154 403 175 403 c 0,9,10
 188 403 188 403 196.5 398 c 128,-1,11
 205 393 205 393 211 386 c 0,12,13
 218 378 218 378 222 368 c 1,14,-1
 271 407 l 1,15,16
 284 396 284 396 290.5 378 c 128,-1,17
 297 360 297 360 292 335 c 0,18,19
 287 312 287 312 275.5 297.5 c 128,-1,20
 264 283 264 283 250.5 268 c 128,-1,21
 237 253 237 253 223.5 232 c 128,-1,22
 210 211 210 211 202 174 c 2,23,-1
 188 119 l 1,24,25
 210 157 210 157 241.5 206 c 128,-1,26
 273 255 273 255 308 299 c 128,-1,27
 343 343 343 343 378.5 373 c 128,-1,28
 414 403 414 403 442 403 c 0,29,30
 483 402 483 402 496 384 c 128,-1,31
 509 366 509 366 498 317 c 2,32,-1
 431 0 l 1,33,-1
 371 0 l 1,34,-1
 436 308 l 2,35,36
 441 331 441 331 435.5 336.5 c 128,-1,37
 430 342 430 342 420 342 c 0,38,39
 405 342 405 342 385 327 c 128,-1,40
 365 312 365 312 343 286.5 c 128,-1,41
 321 261 321 261 298 229 c 128,-1,42
 275 197 275 197 252.5 162.5 c 128,-1,43
 230 128 230 128 210 94.5 c 128,-1,44
 190 61 190 61 174 34 c 1,45,-1
 166 0 l 1,46,-1
 112 0 l 2,47,48
 108 0 108 0 106 2 c 128,-1,49
 104 4 104 4 107 14 c 0,50,51
 114 30 114 30 123 67.5 c 128,-1,52
 132 105 132 105 146 172 c 0,53,54
 153 205 153 205 169 228.5 c 128,-1,55
 185 252 185 252 202.5 270.5 c 128,-1,56
 220 289 220 289 234.5 305 c 128,-1,57
 249 321 249 321 253 339 c 0,58,59
 254 348 254 348 253 352 c 2,60,-1
 252 355 l 1,61,-1
 210 325 l 1,62,63
 197 349 197 349 190.5 358.5 c 128,-1,64
 184 368 184 368 172 368 c 0,65,66
 157 368 157 368 146.5 358.5 c 128,-1,67
 136 349 136 349 133 335 c 0,68,69
 130 322 130 322 136.5 311 c 128,-1,70
 143 300 143 300 158 300 c 0,71,72
 164 300 164 300 172 304 c 128,-1,73
 180 308 180 308 194 320 c 1,74,-1
 201 308 l 1,0,-1
EndSplineSet
EndChar
StartChar: uni0E12
Encoding: 3602 3602 231
Width: 669
Flags: W
Fore
233 168 m 1,0,-1
 203 172 l 1,1,2
 195 183 195 183 193 195 c 128,-1,3
 191 207 191 207 193 220 c 0,4,5
 200 249 200 249 224.5 269.5 c 128,-1,6
 249 290 249 290 278 290 c 0,7,8
 295 290 295 290 306.5 283.5 c 128,-1,9
 318 277 318 277 325 267.5 c 128,-1,10
 332 258 332 258 333.5 246.5 c 128,-1,11
 335 235 335 235 333 223 c 0,12,13
 327 196 327 196 313.5 176 c 128,-1,14
 300 156 300 156 274 140 c 0,15,16
 249 124 249 124 226 110 c 128,-1,17
 203 96 203 96 184.5 80.5 c 128,-1,18
 166 65 166 65 152.5 45.5 c 128,-1,19
 139 26 139 26 134 0 c 1,20,-1
 85 0 l 2,21,22
 81 0 81 0 79 2 c 128,-1,23
 77 4 77 4 80 14 c 0,24,25
 87 30 87 30 98 47 c 128,-1,26
 109 64 109 64 122 78 c 0,27,28
 130 87 130 87 127 92 c 0,29,30
 121 100 121 100 112.5 109.5 c 128,-1,31
 104 119 104 119 99 135 c 128,-1,32
 94 151 94 151 93 176.5 c 128,-1,33
 92 202 92 202 101 242 c 0,34,35
 115 306 115 306 146.5 346 c 128,-1,36
 178 386 178 386 236 406 c 1,37,-1
 300 364 l 1,38,-1
 380 408 l 1,39,40
 440 397 440 397 452.5 353.5 c 128,-1,41
 465 310 465 310 450 236 c 2,42,-1
 438 181 l 1,43,44
 488 178 488 178 522.5 155.5 c 128,-1,45
 557 133 557 133 568 82 c 1,46,47
 570 94 570 94 573 111 c 128,-1,48
 576 128 576 128 579.5 146.5 c 128,-1,49
 583 165 583 165 586.5 182 c 128,-1,50
 590 199 590 199 592 211 c 2,51,-1
 633 400 l 1,52,-1
 693 400 l 1,53,-1
 655 222 l 2,54,55
 648 189 648 189 641 155 c 128,-1,56
 634 121 634 121 628.5 92.5 c 128,-1,57
 623 64 623 64 619 43 c 128,-1,58
 615 22 615 22 615 14 c 0,59,60
 615 4 615 4 612.5 2 c 128,-1,61
 610 0 610 0 606 0 c 2,62,-1
 547 0 l 1,63,64
 545 66 545 66 518 100 c 128,-1,65
 491 134 491 134 430 139 c 1,66,-1
 423 99 l 2,67,68
 419 79 419 79 411.5 61 c 128,-1,69
 404 43 404 43 392.5 29 c 128,-1,70
 381 15 381 15 365 6.5 c 128,-1,71
 349 -2 349 -2 326 -2 c 0,72,73
 296 -2 296 -2 283.5 18 c 128,-1,74
 271 38 271 38 279 79 c 0,75,76
 289 124 289 124 319 148.5 c 128,-1,77
 349 173 349 173 381 179 c 1,78,79
 383 192 383 192 385 208.5 c 128,-1,80
 387 225 387 225 391 248 c 0,81,82
 401 301 401 301 397 326 c 128,-1,83
 393 351 393 351 368 361 c 1,84,-1
 290 319 l 1,85,-1
 230 360 l 1,86,87
 194 349 194 349 178 321 c 128,-1,88
 162 293 162 293 151 242 c 0,89,90
 143 205 143 205 143.5 183.5 c 128,-1,91
 144 162 144 162 148.5 149.5 c 128,-1,92
 153 137 153 137 159 129.5 c 128,-1,93
 165 122 165 122 169 113 c 1,94,95
 174 119 174 119 187 128 c 128,-1,96
 200 137 200 137 214.5 146 c 128,-1,97
 229 155 229 155 242.5 163 c 128,-1,98
 256 171 256 171 263 175 c 0,99,100
 280 186 280 186 287.5 197 c 128,-1,101
 295 208 295 208 297 218 c 0,102,103
 301 235 301 235 293.5 245 c 128,-1,104
 286 255 286 255 272 255 c 0,105,106
 257 255 257 255 244 244.5 c 128,-1,107
 231 234 231 234 228 219 c 0,108,109
 225 207 225 207 233 197 c 2,110,-1
 247 178 l 1,111,-1
 233 168 l 1,0,-1
373 137 m 1,112,113
 354 132 354 132 338 121.5 c 128,-1,114
 322 111 322 111 316 81 c 0,115,116
 311 59 311 59 317 46.5 c 128,-1,117
 323 34 323 34 334 34 c 0,118,119
 343 34 343 34 348.5 39 c 128,-1,120
 354 44 354 44 357 52.5 c 128,-1,121
 360 61 360 61 362 72.5 c 128,-1,122
 364 84 364 84 367 96 c 0,123,124
 369 103 369 103 369.5 111.5 c 128,-1,125
 370 120 370 120 373 137 c 1,112,113
EndSplineSet
EndChar
StartChar: uni0E13
Encoding: 3603 3603 232
Width: 659
Flags: W
Fore
593 76 m 0,0,1
 599 110 599 110 561 125 c 1,2,3
 542 114 542 114 532 100.5 c 128,-1,4
 522 87 522 87 520 76 c 0,5,6
 511 34 511 34 546 34 c 0,7,8
 583 34 583 34 593 76 c 0,0,1
143 80 m 2,9,10
 138 57 138 57 143.5 43 c 128,-1,11
 149 29 149 29 164 29 c 0,12,13
 181 29 181 29 192.5 40 c 128,-1,14
 204 51 204 51 208 66 c 0,15,16
 211 81 211 81 204.5 92 c 128,-1,17
 198 103 198 103 183 103 c 2,18,-1
 155 103 l 1,19,-1
 159 119 l 1,20,-1
 191 138 l 1,21,22
 220 138 220 138 235 117 c 128,-1,23
 250 96 250 96 244 66 c 0,24,25
 237 36 237 36 211.5 15 c 128,-1,26
 186 -6 186 -6 156 -6 c 0,27,28
 118 -6 118 -6 96 16 c 128,-1,29
 74 38 74 38 83 80 c 2,30,-1
 103 178 l 2,31,32
 111 216 111 216 122.5 233.5 c 128,-1,33
 134 251 134 251 154 268 c 1,34,35
 151 270 151 270 143.5 276 c 128,-1,36
 136 282 136 282 128.5 289.5 c 128,-1,37
 121 297 121 297 116 305 c 128,-1,38
 111 313 111 313 112 319 c 0,39,40
 114 328 114 328 130 343 c 128,-1,41
 146 358 146 358 171 372 c 128,-1,42
 196 386 196 386 228.5 396 c 128,-1,43
 261 406 261 406 297 406 c 0,44,45
 331 406 331 406 359.5 399 c 128,-1,46
 388 392 388 392 406.5 374 c 128,-1,47
 425 356 425 356 431 325.5 c 128,-1,48
 437 295 437 295 427 249 c 2,49,-1
 412 177 l 1,50,-1
 396 111 l 1,51,52
 428 149 428 149 464.5 164 c 128,-1,53
 501 179 501 179 534 179 c 0,54,55
 548 179 548 179 556 177 c 128,-1,56
 564 175 564 175 577 170 c 1,57,58
 581 177 581 177 585 195 c 2,59,-1
 629 400 l 1,60,-1
 689 400 l 1,61,-1
 643 185 l 2,62,63
 638 165 638 165 619 149 c 1,64,65
 636 138 636 138 645.5 119 c 128,-1,66
 655 100 655 100 649 74 c 0,67,68
 645 54 645 54 634.5 39.5 c 128,-1,69
 624 25 624 25 609.5 16 c 128,-1,70
 595 7 595 7 579 2.5 c 128,-1,71
 563 -2 563 -2 548 -2 c 0,72,73
 518 -2 518 -2 497 16.5 c 128,-1,74
 476 35 476 35 484 71 c 0,75,76
 489 94 489 94 504.5 109.5 c 128,-1,77
 520 125 520 125 534 135 c 1,78,79
 526 137 526 137 512 137 c 0,80,81
 488 137 488 137 465 125 c 128,-1,82
 442 113 442 113 423.5 94 c 128,-1,83
 405 75 405 75 392 50.5 c 128,-1,84
 379 26 379 26 374 0 c 1,85,-1
 320 0 l 2,86,87
 316 0 316 0 314 2 c 128,-1,88
 312 4 312 4 315 14 c 0,89,90
 318 22 318 22 324 47 c 128,-1,91
 330 72 330 72 337.5 106 c 128,-1,92
 345 140 345 140 352.5 178 c 128,-1,93
 360 216 360 216 367 249 c 0,94,95
 375 288 375 288 374 310 c 128,-1,96
 373 332 373 332 363 343.5 c 128,-1,97
 353 355 353 355 334 358 c 128,-1,98
 315 361 315 361 287 361 c 0,99,100
 262 361 262 361 241.5 356.5 c 128,-1,101
 221 352 221 352 205.5 345.5 c 128,-1,102
 190 339 190 339 181.5 332.5 c 128,-1,103
 173 326 173 326 172 321 c 0,104,105
 171 318 171 318 173.5 313 c 128,-1,106
 176 308 176 308 180 302.5 c 128,-1,107
 184 297 184 297 188.5 293.5 c 128,-1,108
 193 290 193 290 196 290 c 0,109,110
 204 290 204 290 214.5 296.5 c 128,-1,111
 225 303 225 303 234 303 c 0,112,113
 237 303 237 303 241 296.5 c 128,-1,114
 245 290 245 290 248 282 c 128,-1,115
 251 274 251 274 252 267.5 c 128,-1,116
 253 261 253 261 249 261 c 0,117,118
 234 261 234 261 221 258.5 c 128,-1,119
 208 256 208 256 197 247.5 c 128,-1,120
 186 239 186 239 177.5 222.5 c 128,-1,121
 169 206 169 206 163 178 c 2,122,-1
 143 80 l 2,9,10
EndSplineSet
EndChar
StartChar: uni0E14
Encoding: 3604 3604 233
Width: 445
Flags: W
Fore
101 242 m 0,0,1
 109 281 109 281 129 311.5 c 128,-1,2
 149 342 149 342 176.5 363 c 128,-1,3
 204 384 204 384 237.5 395 c 128,-1,4
 271 406 271 406 306 406 c 0,5,6
 402 406 402 406 430 364.5 c 128,-1,7
 458 323 458 323 440 236 c 2,8,-1
 390 0 l 1,9,-1
 330 0 l 1,10,-1
 378 226 l 2,11,12
 386 265 386 265 389.5 291 c 128,-1,13
 393 317 393 317 386 332.5 c 128,-1,14
 379 348 379 348 358 354.5 c 128,-1,15
 337 361 337 361 296 361 c 0,16,17
 243 361 243 361 204 334.5 c 128,-1,18
 165 308 165 308 151 242 c 0,19,20
 143 205 143 205 143.5 183.5 c 128,-1,21
 144 162 144 162 148.5 149.5 c 128,-1,22
 153 137 153 137 159 129.5 c 128,-1,23
 165 122 165 122 169 113 c 1,24,25
 174 119 174 119 188 128 c 128,-1,26
 202 137 202 137 217.5 146.5 c 128,-1,27
 233 156 233 156 247.5 164 c 128,-1,28
 262 172 262 172 268 176 c 0,29,30
 285 187 285 187 292.5 197.5 c 128,-1,31
 300 208 300 208 302 218 c 0,32,33
 306 235 306 235 298.5 245 c 128,-1,34
 291 255 291 255 277 255 c 0,35,36
 262 255 262 255 249 244.5 c 128,-1,37
 236 234 236 234 233 219 c 0,38,39
 230 207 230 207 238 197 c 2,40,-1
 252 178 l 1,41,-1
 238 168 l 1,42,-1
 208 172 l 1,43,44
 200 183 200 183 198 195 c 128,-1,45
 196 207 196 207 198 220 c 0,46,47
 205 249 205 249 230 271 c 128,-1,48
 255 293 255 293 284 293 c 0,49,50
 319 292 319 292 334 271 c 128,-1,51
 349 250 349 250 343 223 c 256,52,53
 337 196 337 196 321 176 c 128,-1,54
 305 156 305 156 279 140 c 0,55,56
 254 124 254 124 230.5 110 c 128,-1,57
 207 96 207 96 187 80.5 c 128,-1,58
 167 65 167 65 153 45.5 c 128,-1,59
 139 26 139 26 134 0 c 1,60,-1
 85 0 l 2,61,62
 81 0 81 0 79 2 c 128,-1,63
 77 4 77 4 80 14 c 0,64,65
 87 30 87 30 98 47 c 128,-1,66
 109 64 109 64 122 78 c 0,67,68
 130 87 130 87 127 92 c 0,69,70
 121 100 121 100 112.5 109.5 c 128,-1,71
 104 119 104 119 99 135 c 128,-1,72
 94 151 94 151 93 176.5 c 128,-1,73
 92 202 92 202 101 242 c 0,0,1
EndSplineSet
EndChar
StartChar: uni0E15
Encoding: 3605 3605 234
Width: 455
Flags: W
Fore
292 319 m 1,0,-1
 230 360 l 1,1,2
 201 349 201 349 184 321 c 128,-1,3
 167 293 167 293 156 242 c 0,4,5
 149 209 149 209 149 186.5 c 128,-1,6
 149 164 149 164 153.5 150 c 128,-1,7
 158 136 158 136 164 129 c 128,-1,8
 170 122 170 122 175 118 c 1,9,10
 182 124 182 124 195 132.5 c 128,-1,11
 208 141 208 141 222 149 c 128,-1,12
 236 157 236 157 249 164.5 c 128,-1,13
 262 172 262 172 268 176 c 0,14,15
 285 187 285 187 292.5 197.5 c 128,-1,16
 300 208 300 208 302 218 c 0,17,18
 306 235 306 235 298.5 245 c 128,-1,19
 291 255 291 255 277 255 c 0,20,21
 262 255 262 255 249 244.5 c 128,-1,22
 236 234 236 234 233 219 c 0,23,24
 230 207 230 207 238 197 c 2,25,-1
 252 178 l 1,26,-1
 238 168 l 1,27,-1
 208 172 l 1,28,29
 200 183 200 183 198 195 c 128,-1,30
 196 207 196 207 198 220 c 0,31,32
 205 249 205 249 230 270.5 c 128,-1,33
 255 292 255 292 284 292 c 0,34,35
 318 291 318 291 333.5 270.5 c 128,-1,36
 349 250 349 250 343 223 c 256,37,38
 337 196 337 196 318 174.5 c 128,-1,39
 299 153 299 153 274 137 c 256,40,41
 249 121 249 121 227 107.5 c 128,-1,42
 205 94 205 94 187 79 c 128,-1,43
 169 64 169 64 156.5 45 c 128,-1,44
 144 26 144 26 139 0 c 1,45,-1
 85 0 l 2,46,47
 81 0 81 0 79 2 c 128,-1,48
 77 4 77 4 80 14 c 0,49,50
 87 30 87 30 98 47 c 128,-1,51
 109 64 109 64 122 78 c 0,52,53
 130 87 130 87 127 92 c 0,54,55
 121 100 121 100 112.5 109.5 c 128,-1,56
 104 119 104 119 99 135 c 128,-1,57
 94 151 94 151 93 176.5 c 128,-1,58
 92 202 92 202 101 242 c 0,59,60
 115 306 115 306 146.5 346 c 128,-1,61
 178 386 178 386 236 406 c 1,62,-1
 302 364 l 1,63,-1
 380 408 l 1,64,65
 440 397 440 397 452.5 353.5 c 128,-1,66
 465 310 465 310 450 236 c 2,67,-1
 400 0 l 1,68,-1
 340 0 l 1,69,-1
 392 248 l 2,70,71
 398 274 398 274 401 293 c 128,-1,72
 404 312 404 312 402 325.5 c 128,-1,73
 400 339 400 339 392 347.5 c 128,-1,74
 384 356 384 356 368 361 c 1,75,-1
 292 319 l 1,0,-1
EndSplineSet
EndChar
StartChar: uni0E16
Encoding: 3606 3606 235
Width: 450
Flags: W
Fore
172 321 m 0,0,1
 171 315 171 315 178 302.5 c 128,-1,2
 185 290 185 290 191 290 c 0,3,4
 199 290 199 290 209.5 296.5 c 128,-1,5
 220 303 220 303 229 303 c 0,6,7
 232 303 232 303 236 296.5 c 128,-1,8
 240 290 240 290 243 282 c 128,-1,9
 246 274 246 274 247 267.5 c 128,-1,10
 248 261 248 261 244 261 c 0,11,12
 229 261 229 261 217 258.5 c 128,-1,13
 205 256 205 256 195 247.5 c 128,-1,14
 185 239 185 239 177 222.5 c 128,-1,15
 169 206 169 206 163 178 c 2,16,-1
 142 77 l 2,17,18
 137 54 137 54 143.5 41.5 c 128,-1,19
 150 29 150 29 165 29 c 0,20,21
 182 29 182 29 193 40 c 128,-1,22
 204 51 204 51 208 66 c 0,23,24
 211 81 211 81 204.5 91.5 c 128,-1,25
 198 102 198 102 183 102 c 2,26,-1
 155 102 l 1,27,-1
 159 118 l 1,28,-1
 191 137 l 1,29,30
 220 137 220 137 235 116.5 c 128,-1,31
 250 96 250 96 244 66 c 0,32,33
 237 36 237 36 212 15 c 128,-1,34
 187 -6 187 -6 157 -6 c 0,35,36
 140 -6 140 -6 124.5 0 c 128,-1,37
 109 6 109 6 98.5 18 c 128,-1,38
 88 30 88 30 84 48 c 128,-1,39
 80 66 80 66 85 90 c 2,40,-1
 103 178 l 2,41,42
 111 216 111 216 122.5 233.5 c 128,-1,43
 134 251 134 251 154 268 c 1,44,45
 151 270 151 270 143.5 276 c 128,-1,46
 136 282 136 282 128.5 289.5 c 128,-1,47
 121 297 121 297 116 305 c 128,-1,48
 111 313 111 313 112 319 c 0,49,50
 114 328 114 328 132 343 c 128,-1,51
 150 358 150 358 178 372 c 128,-1,52
 206 386 206 386 241 396 c 128,-1,53
 276 406 276 406 312 406 c 0,54,55
 346 406 346 406 375 399 c 128,-1,56
 404 392 404 392 423.5 374 c 128,-1,57
 443 356 443 356 450 325.5 c 128,-1,58
 457 295 457 295 447 249 c 2,59,-1
 395 0 l 1,60,-1
 335 0 l 1,61,-1
 387 249 l 2,62,63
 395 288 395 288 393.5 310 c 128,-1,64
 392 332 392 332 380.5 343.5 c 128,-1,65
 369 355 369 355 349.5 358 c 128,-1,66
 330 361 330 361 302 361 c 0,67,68
 277 361 277 361 254 356.5 c 128,-1,69
 231 352 231 352 213 345.5 c 128,-1,70
 195 339 195 339 184 332.5 c 128,-1,71
 173 326 173 326 172 321 c 0,0,1
EndSplineSet
EndChar
StartChar: uni0E17
Encoding: 3607 3607 236
Width: 498
Flags: W
Fore
185 298 m 1,0,-1
 181 282 l 1,1,-1
 154 264 l 1,2,3
 125 264 125 264 112 284.5 c 128,-1,4
 99 305 99 305 106 335 c 0,5,6
 109 350 109 350 118.5 363 c 128,-1,7
 128 376 128 376 140.5 386 c 128,-1,8
 153 396 153 396 168.5 401.5 c 128,-1,9
 184 407 184 407 199 407 c 0,10,11
 234 407 234 407 251 386.5 c 128,-1,12
 268 366 268 366 260 328 c 0,13,14
 256 306 256 306 246.5 283 c 128,-1,15
 237 260 237 260 226 219 c 2,16,-1
 204 141 l 1,17,18
 227 192 227 192 252.5 239.5 c 128,-1,19
 278 287 278 287 306.5 323 c 128,-1,20
 335 359 335 359 365.5 381 c 128,-1,21
 396 403 396 403 427 403 c 0,22,23
 445 403 445 403 462 399 c 128,-1,24
 479 395 479 395 491.5 385 c 128,-1,25
 504 375 504 375 509.5 359 c 128,-1,26
 515 343 515 343 510 319 c 2,27,-1
 443 0 l 1,28,-1
 383 0 l 1,29,-1
 448 309 l 2,30,31
 453 333 453 333 445.5 345.5 c 128,-1,32
 438 358 438 358 422 358 c 0,33,34
 404 358 404 358 381 340.5 c 128,-1,35
 358 323 358 323 334 294.5 c 128,-1,36
 310 266 310 266 286.5 230 c 128,-1,37
 263 194 263 194 242.5 155.5 c 128,-1,38
 222 117 222 117 206 80.5 c 128,-1,39
 190 44 190 44 182 15 c 2,40,-1
 178 0 l 1,41,-1
 124 0 l 2,42,43
 120 0 120 0 118 2 c 128,-1,44
 116 4 116 4 119 14 c 0,45,46
 122 22 122 22 128 43 c 128,-1,47
 134 64 134 64 140.5 92.5 c 128,-1,48
 147 121 147 121 154.5 155 c 128,-1,49
 162 189 162 189 169 222 c 0,50,51
 173 241 173 241 179 255.5 c 128,-1,52
 185 270 185 270 191 282 c 128,-1,53
 197 294 197 294 202.5 304.5 c 128,-1,54
 208 315 208 315 210 326 c 0,55,56
 219 372 219 372 187 372 c 0,57,58
 170 372 170 372 157.5 361 c 128,-1,59
 145 350 145 350 142 335 c 0,60,61
 138 320 138 320 143 309 c 128,-1,62
 148 298 148 298 163 298 c 2,63,-1
 185 298 l 1,0,-1
EndSplineSet
EndChar
StartChar: uni0E18
Encoding: 3608 3608 237
Width: 422
Flags: W
Fore
438 409 m 1,0,1
 439 399 439 399 439 390 c 0,2,3
 439 382 439 382 439.5 374.5 c 128,-1,4
 440 367 440 367 438 362 c 1,5,6
 437 356 437 356 427 352 c 1,7,8
 421 351 421 351 410 349 c 128,-1,9
 399 347 399 347 384.5 345 c 128,-1,10
 370 343 370 343 354.5 342 c 128,-1,11
 339 341 339 341 325 341 c 0,12,13
 294 341 294 341 268.5 347 c 128,-1,14
 243 353 243 353 220 353 c 0,15,16
 194 353 194 353 180.5 343.5 c 128,-1,17
 167 334 167 334 162 315 c 0,18,19
 159 298 159 298 161 293.5 c 128,-1,20
 163 289 163 289 169 287 c 256,21,22
 175 285 175 285 196.5 285 c 128,-1,23
 218 285 218 285 246.5 283 c 128,-1,24
 275 281 275 281 305.5 275.5 c 128,-1,25
 336 270 336 270 360 257.5 c 128,-1,26
 384 245 384 245 397 224 c 128,-1,27
 410 203 410 203 403 171 c 2,28,-1
 395 132 l 2,29,30
 387 94 387 94 378 72.5 c 128,-1,31
 369 51 369 51 352 35 c 0,32,33
 337 22 337 22 319 13.5 c 128,-1,34
 301 5 301 5 283 1 c 128,-1,35
 265 -3 265 -3 248 -4.5 c 128,-1,36
 231 -6 231 -6 217 -6 c 0,37,38
 204 -6 204 -6 187 -4.5 c 128,-1,39
 170 -3 170 -3 154 1 c 128,-1,40
 138 5 138 5 123.5 13.5 c 128,-1,41
 109 22 109 22 100 35 c 0,42,43
 90 50 90 50 92 75 c 128,-1,44
 94 100 94 100 101 132 c 2,45,-1
 117 208 l 1,46,-1
 174 205 l 1,47,48
 169 180 169 180 165 163.5 c 128,-1,49
 161 147 161 147 156 127 c 0,50,51
 151 103 151 103 150.5 89.5 c 128,-1,52
 150 76 150 76 157 66 c 0,53,54
 166 52 166 52 181 45.5 c 128,-1,55
 196 39 196 39 227 39 c 256,56,57
 258 39 258 39 275 45.5 c 128,-1,58
 292 52 292 52 309 66 c 0,59,60
 319 76 319 76 322.5 85.5 c 128,-1,61
 326 95 326 95 331 115 c 2,62,-1
 343 171 l 2,63,64
 348 194 348 194 335 206.5 c 128,-1,65
 322 219 322 219 299 225.5 c 128,-1,66
 276 232 276 232 247.5 234 c 128,-1,67
 219 236 219 236 192.5 237.5 c 128,-1,68
 166 239 166 239 145.5 241.5 c 128,-1,69
 125 244 125 244 118 251 c 0,70,71
 107 262 107 262 106 276.5 c 128,-1,72
 105 291 105 291 110 311 c 0,73,74
 118 352 118 352 148.5 376 c 128,-1,75
 179 400 179 400 218 400 c 0,76,77
 225 400 225 400 239 398.5 c 128,-1,78
 253 397 253 397 270 395.5 c 128,-1,79
 287 394 287 394 304.5 392.5 c 128,-1,80
 322 391 322 391 336 391 c 0,81,82
 354 391 354 391 372 393.5 c 128,-1,83
 390 396 390 396 405 400 c 0,84,85
 423 404 423 404 438 409 c 1,0,1
EndSplineSet
EndChar
StartChar: uni0E19
Encoding: 3609 3609 238
Width: 476
Flags: W
Fore
181 282 m 1,0,-1
 154 264 l 1,1,2
 125 264 125 264 112 284.5 c 128,-1,3
 99 305 99 305 106 335 c 0,4,5
 109 350 109 350 118.5 363 c 128,-1,6
 128 376 128 376 141.5 386 c 128,-1,7
 155 396 155 396 170.5 401.5 c 128,-1,8
 186 407 186 407 201 407 c 0,9,10
 236 407 236 407 254.5 386.5 c 128,-1,11
 273 366 273 366 265 328 c 0,12,13
 263 317 263 317 258 306.5 c 128,-1,14
 253 296 253 296 247.5 283.5 c 128,-1,15
 242 271 242 271 236.5 255.5 c 128,-1,16
 231 240 231 240 226 219 c 2,17,-1
 201 101 l 1,18,19
 233 139 233 139 270.5 159 c 128,-1,20
 308 179 308 179 341 179 c 0,21,22
 369 179 369 179 394 170 c 1,23,24
 398 177 398 177 402 195 c 2,25,-1
 446 400 l 1,26,-1
 506 400 l 1,27,-1
 460 185 l 2,28,29
 455 165 455 165 436 149 c 1,30,31
 453 138 453 138 462.5 119 c 128,-1,32
 472 100 472 100 466 74 c 0,33,34
 462 54 462 54 451.5 39.5 c 128,-1,35
 441 25 441 25 426.5 16 c 128,-1,36
 412 7 412 7 396 2.5 c 128,-1,37
 380 -2 380 -2 365 -2 c 0,38,39
 335 -2 335 -2 314 16.5 c 128,-1,40
 293 35 293 35 301 71 c 0,41,42
 306 94 306 94 321 109 c 128,-1,43
 336 124 336 124 351 133 c 1,44,45
 344 136 344 136 329 136 c 0,46,47
 305 136 305 136 280.5 124.5 c 128,-1,48
 256 113 256 113 236 93.5 c 128,-1,49
 216 74 216 74 201 50 c 128,-1,50
 186 26 186 26 181 0 c 1,51,-1
 127 0 l 2,52,53
 123 0 123 0 121 2 c 128,-1,54
 119 4 119 4 122 14 c 0,55,56
 125 22 125 22 130.5 43 c 128,-1,57
 136 64 136 64 142 92.5 c 128,-1,58
 148 121 148 121 155 155 c 128,-1,59
 162 189 162 189 169 222 c 0,60,61
 173 241 173 241 179 255.5 c 128,-1,62
 185 270 185 270 191 282 c 128,-1,63
 197 294 197 294 202.5 304.5 c 128,-1,64
 208 315 208 315 210 326 c 0,65,66
 219 372 219 372 187 372 c 0,67,68
 170 372 170 372 157.5 361 c 128,-1,69
 145 350 145 350 142 335 c 0,70,71
 138 320 138 320 143 309 c 128,-1,72
 148 298 148 298 163 298 c 2,73,-1
 185 298 l 1,74,-1
 181 282 l 1,0,-1
410 76 m 0,75,76
 416 110 416 110 378 125 c 1,77,78
 359 114 359 114 349 100.5 c 128,-1,79
 339 87 339 87 337 76 c 0,80,81
 328 34 328 34 363 34 c 0,82,83
 400 34 400 34 410 76 c 0,75,76
EndSplineSet
EndChar
StartChar: uni0E1A
Encoding: 3610 3610 239
Width: 495
Flags: W
Fore
188 298 m 1,0,-1
 184 282 l 1,1,-1
 157 263 l 1,2,3
 128 263 128 263 113.5 284 c 128,-1,4
 99 305 99 305 106 335 c 0,5,6
 109 350 109 350 118.5 363 c 128,-1,7
 128 376 128 376 140.5 386 c 128,-1,8
 153 396 153 396 168.5 401.5 c 128,-1,9
 184 407 184 407 199 407 c 0,10,11
 234 407 234 407 251 386.5 c 128,-1,12
 268 366 268 366 260 328 c 0,13,14
 258 317 258 317 254 306.5 c 128,-1,15
 250 296 250 296 245.5 283.5 c 128,-1,16
 241 271 241 271 236 255.5 c 128,-1,17
 231 240 231 240 226 219 c 0,18,19
 221 194 221 194 215.5 170.5 c 128,-1,20
 210 147 210 147 205 127 c 0,21,22
 200 103 200 103 199.5 89.5 c 128,-1,23
 199 76 199 76 206 66 c 0,24,25
 215 52 215 52 236 45.5 c 128,-1,26
 257 39 257 39 288 39 c 0,27,28
 351 39 351 39 382 66 c 0,29,30
 392 76 392 76 396.5 85.5 c 128,-1,31
 401 95 401 95 406 115 c 0,32,33
 410 132 410 132 413 152 c 128,-1,34
 416 172 416 172 421 197 c 2,35,-1
 465 400 l 1,36,-1
 525 400 l 1,37,-1
 468 132 l 2,38,39
 460 94 460 94 451 72.5 c 128,-1,40
 442 51 442 51 425 35 c 0,41,42
 410 22 410 22 390 13.5 c 128,-1,43
 370 5 370 5 350 1 c 128,-1,44
 330 -3 330 -3 311 -4.5 c 128,-1,45
 292 -6 292 -6 278 -6 c 0,46,47
 265 -6 265 -6 246.5 -4.5 c 128,-1,48
 228 -3 228 -3 209 1 c 128,-1,49
 190 5 190 5 174 13.5 c 128,-1,50
 158 22 158 22 149 35 c 0,51,52
 139 50 139 50 141 75 c 128,-1,53
 143 100 143 100 150 132 c 2,54,-1
 169 222 l 2,55,56
 173 241 173 241 179 255.5 c 128,-1,57
 185 270 185 270 191 282 c 128,-1,58
 197 294 197 294 202.5 304.5 c 128,-1,59
 208 315 208 315 210 326 c 0,60,61
 219 372 219 372 187 372 c 0,62,63
 170 372 170 372 157.5 361 c 128,-1,64
 145 350 145 350 142 335 c 0,65,66
 138 320 138 320 144 309 c 128,-1,67
 150 298 150 298 165 298 c 2,68,-1
 188 298 l 1,0,-1
EndSplineSet
EndChar
StartChar: uni0E1B
Encoding: 3611 3611 240
Width: 495
Flags: W
Fore
188 298 m 1,0,-1
 184 282 l 1,1,-1
 157 263 l 1,2,3
 128 263 128 263 113.5 284 c 128,-1,4
 99 305 99 305 106 335 c 0,5,6
 109 350 109 350 118.5 363 c 128,-1,7
 128 376 128 376 140.5 386 c 128,-1,8
 153 396 153 396 168.5 401.5 c 128,-1,9
 184 407 184 407 199 407 c 0,10,11
 234 407 234 407 251 386.5 c 128,-1,12
 268 366 268 366 260 328 c 0,13,14
 258 317 258 317 254 306.5 c 128,-1,15
 250 296 250 296 245.5 283.5 c 128,-1,16
 241 271 241 271 236 255.5 c 128,-1,17
 231 240 231 240 226 219 c 0,18,19
 221 194 221 194 215.5 170.5 c 128,-1,20
 210 147 210 147 205 127 c 0,21,22
 200 103 200 103 199.5 89.5 c 128,-1,23
 199 76 199 76 206 66 c 0,24,25
 215 52 215 52 236 45.5 c 128,-1,26
 257 39 257 39 288 39 c 0,27,28
 351 39 351 39 382 66 c 0,29,30
 392 76 392 76 396.5 85.5 c 128,-1,31
 401 95 401 95 406 115 c 0,32,33
 410 132 410 132 413 152 c 128,-1,34
 416 172 416 172 421 197 c 2,35,-1
 495 544 l 1,36,-1
 555 544 l 1,37,-1
 468 132 l 2,38,39
 460 94 460 94 451 72.5 c 128,-1,40
 442 51 442 51 425 35 c 0,41,42
 410 22 410 22 390 13.5 c 128,-1,43
 370 5 370 5 350 1 c 128,-1,44
 330 -3 330 -3 311 -4.5 c 128,-1,45
 292 -6 292 -6 278 -6 c 0,46,47
 265 -6 265 -6 246.5 -4.5 c 128,-1,48
 228 -3 228 -3 209 1 c 128,-1,49
 190 5 190 5 174 13.5 c 128,-1,50
 158 22 158 22 149 35 c 0,51,52
 139 50 139 50 141 75 c 128,-1,53
 143 100 143 100 150 132 c 2,54,-1
 169 222 l 2,55,56
 173 241 173 241 179 255.5 c 128,-1,57
 185 270 185 270 191 282 c 128,-1,58
 197 294 197 294 202.5 304.5 c 128,-1,59
 208 315 208 315 210 326 c 0,60,61
 219 372 219 372 187 372 c 0,62,63
 170 372 170 372 157.5 361 c 128,-1,64
 145 350 145 350 142 335 c 0,65,66
 138 320 138 320 144 309 c 128,-1,67
 150 298 150 298 165 298 c 2,68,-1
 188 298 l 1,0,-1
EndSplineSet
EndChar
StartChar: uni0E1C
Encoding: 3612 3612 241
Width: 474
Flags: W
Fore
187 298 m 1,0,-1
 215 298 l 2,1,2
 230 298 230 298 240.5 309 c 128,-1,3
 251 320 251 320 255 335 c 0,4,5
 258 350 258 350 251 361 c 128,-1,6
 244 372 244 372 227 372 c 0,7,8
 212 372 212 372 198 358 c 128,-1,9
 184 344 184 344 179 321 c 0,10,11
 176 310 176 310 175 300 c 128,-1,12
 174 290 174 290 172.5 278.5 c 128,-1,13
 171 267 171 267 168.5 252 c 128,-1,14
 166 237 166 237 161 215 c 0,15,16
 158 203 158 203 154 186 c 128,-1,17
 150 169 150 169 145.5 152 c 128,-1,18
 141 135 141 135 137 119 c 128,-1,19
 133 103 133 103 131 93 c 1,20,21
 152 119 152 119 178.5 140.5 c 128,-1,22
 205 162 205 162 228 179 c 0,23,24
 255 198 255 198 282 215 c 1,25,26
 304 199 304 199 322 179 c 0,27,28
 338 162 338 162 354 138.5 c 128,-1,29
 370 115 370 115 378 88 c 1,30,31
 380 96 380 96 382 109.5 c 128,-1,32
 384 123 384 123 386.5 138.5 c 128,-1,33
 389 154 389 154 391 169.5 c 128,-1,34
 393 185 393 185 396 197 c 2,35,-1
 440 400 l 1,36,-1
 500 400 l 1,37,-1
 443 132 l 2,38,39
 435 98 435 98 428.5 63.5 c 128,-1,40
 422 29 422 29 420 14 c 0,41,42
 420 4 420 4 417.5 2 c 128,-1,43
 415 0 415 0 411 0 c 2,44,-1
 354 0 l 1,45,-1
 356 10 l 2,46,47
 361 35 361 35 348.5 62 c 128,-1,48
 336 89 336 89 319 112 c 0,49,50
 299 139 299 139 272 166 c 1,51,52
 232 139 232 139 199 112 c 0,53,54
 171 89 171 89 146.5 62 c 128,-1,55
 122 35 122 35 117 10 c 2,56,-1
 115 0 l 1,57,-1
 58 0 l 2,58,59
 54 0 54 0 52 2 c 128,-1,60
 50 4 50 4 53 14 c 0,61,62
 56 22 56 22 59 29 c 128,-1,63
 62 36 62 36 65.5 47.5 c 128,-1,64
 69 59 69 59 73.5 79 c 128,-1,65
 78 99 78 99 85 132 c 2,66,-1
 101 215 l 2,67,68
 105 234 105 234 107 247 c 128,-1,69
 109 260 109 260 110.5 271.5 c 128,-1,70
 112 283 112 283 114 294.5 c 128,-1,71
 116 306 116 306 119 321 c 0,72,73
 123 342 123 342 134 358 c 128,-1,74
 145 374 145 374 160.5 385 c 128,-1,75
 176 396 176 396 193.5 401.5 c 128,-1,76
 211 407 211 407 229 407 c 0,77,78
 259 407 259 407 278 386 c 128,-1,79
 297 365 297 365 291 335 c 0,80,81
 284 305 284 305 260 284 c 128,-1,82
 236 263 236 263 207 263 c 1,83,-1
 183 282 l 1,84,-1
 187 298 l 1,0,-1
EndSplineSet
EndChar
StartChar: uni0E1D
Encoding: 3613 3613 242
Width: 474
Flags: W
Fore
187 298 m 1,0,-1
 215 298 l 2,1,2
 230 298 230 298 240.5 309 c 128,-1,3
 251 320 251 320 255 335 c 0,4,5
 258 350 258 350 251 361 c 128,-1,6
 244 372 244 372 227 372 c 0,7,8
 212 372 212 372 198 358 c 128,-1,9
 184 344 184 344 179 321 c 0,10,11
 176 310 176 310 175 300 c 128,-1,12
 174 290 174 290 172.5 278.5 c 128,-1,13
 171 267 171 267 168.5 252 c 128,-1,14
 166 237 166 237 161 215 c 0,15,16
 158 203 158 203 154 186 c 128,-1,17
 150 169 150 169 145.5 152 c 128,-1,18
 141 135 141 135 137 119 c 128,-1,19
 133 103 133 103 131 93 c 1,20,21
 152 119 152 119 178.5 140.5 c 128,-1,22
 205 162 205 162 228 179 c 0,23,24
 255 198 255 198 282 215 c 1,25,26
 304 199 304 199 322 179 c 0,27,28
 338 162 338 162 354 138.5 c 128,-1,29
 370 115 370 115 378 88 c 1,30,31
 380 96 380 96 382 109.5 c 128,-1,32
 384 123 384 123 386.5 138.5 c 128,-1,33
 389 154 389 154 391 169.5 c 128,-1,34
 393 185 393 185 396 197 c 2,35,-1
 470 544 l 1,36,-1
 530 544 l 1,37,-1
 443 132 l 2,38,39
 435 98 435 98 428.5 63.5 c 128,-1,40
 422 29 422 29 420 14 c 0,41,42
 420 4 420 4 417.5 2 c 128,-1,43
 415 0 415 0 411 0 c 2,44,-1
 354 0 l 1,45,-1
 356 10 l 2,46,47
 361 35 361 35 348.5 62 c 128,-1,48
 336 89 336 89 319 112 c 0,49,50
 299 139 299 139 272 166 c 1,51,52
 232 139 232 139 199 112 c 0,53,54
 171 89 171 89 146.5 62 c 128,-1,55
 122 35 122 35 117 10 c 2,56,-1
 115 0 l 1,57,-1
 58 0 l 2,58,59
 54 0 54 0 52 2 c 128,-1,60
 50 4 50 4 53 14 c 0,61,62
 56 22 56 22 59 29 c 128,-1,63
 62 36 62 36 65.5 47.5 c 128,-1,64
 69 59 69 59 73.5 79 c 128,-1,65
 78 99 78 99 85 132 c 2,66,-1
 101 215 l 2,67,68
 105 234 105 234 107 247 c 128,-1,69
 109 260 109 260 110.5 271.5 c 128,-1,70
 112 283 112 283 114 294.5 c 128,-1,71
 116 306 116 306 119 321 c 0,72,73
 123 342 123 342 134 358 c 128,-1,74
 145 374 145 374 160.5 385 c 128,-1,75
 176 396 176 396 193.5 401.5 c 128,-1,76
 211 407 211 407 229 407 c 0,77,78
 259 407 259 407 278 386 c 128,-1,79
 297 365 297 365 291 335 c 0,80,81
 284 305 284 305 260 284 c 128,-1,82
 236 263 236 263 207 263 c 1,83,-1
 183 282 l 1,84,-1
 187 298 l 1,0,-1
EndSplineSet
EndChar
StartChar: uni0E1E
Encoding: 3614 3614 243
Width: 539
Flags: W
Fore
449 113 m 1,0,1
 452 130 452 130 454 151 c 128,-1,2
 456 172 456 172 461 197 c 2,3,-1
 505 400 l 1,4,-1
 565 400 l 1,5,-1
 508 132 l 2,6,7
 500 98 500 98 493.5 63.5 c 128,-1,8
 487 29 487 29 485 14 c 0,9,10
 485 4 485 4 482.5 2 c 128,-1,11
 480 0 480 0 476 0 c 2,12,-1
 419 0 l 1,13,-1
 421 10 l 2,14,15
 424 22 424 22 422.5 41 c 128,-1,16
 421 60 421 60 417.5 82.5 c 128,-1,17
 414 105 414 105 408.5 129 c 128,-1,18
 403 153 403 153 397 177 c 0,19,20
 383 232 383 232 364 296 c 1,21,22
 317 232 317 232 278 177 c 0,23,24
 262 153 262 153 245.5 129 c 128,-1,25
 229 105 229 105 216 82.5 c 128,-1,26
 203 60 203 60 194 41 c 128,-1,27
 185 22 185 22 182 10 c 2,28,-1
 180 0 l 1,29,-1
 123 0 l 2,30,31
 119 0 119 0 117 2 c 128,-1,32
 115 4 115 4 118 14 c 0,33,34
 121 22 121 22 124 29 c 128,-1,35
 127 36 127 36 130.5 47.5 c 128,-1,36
 134 59 134 59 138.5 79 c 128,-1,37
 143 99 143 99 150 132 c 2,38,-1
 167 212 l 2,39,40
 175 250 175 250 190 277 c 128,-1,41
 205 304 205 304 210 326 c 0,42,43
 219 372 219 372 187 372 c 0,44,45
 170 372 170 372 157.5 361 c 128,-1,46
 145 350 145 350 142 335 c 0,47,48
 138 320 138 320 144 309 c 128,-1,49
 150 298 150 298 165 298 c 2,50,-1
 188 298 l 1,51,-1
 184 282 l 1,52,-1
 157 263 l 1,53,54
 128 263 128 263 113.5 284 c 128,-1,55
 99 305 99 305 106 335 c 0,56,57
 112 365 112 365 138 386 c 128,-1,58
 164 407 164 407 202 407 c 0,59,60
 237 407 237 407 252.5 386.5 c 128,-1,61
 268 366 268 366 260 328 c 0,62,63
 255 306 255 306 244 278.5 c 128,-1,64
 233 251 233 251 224 209 c 0,65,66
 219 184 219 184 212.5 161 c 128,-1,67
 206 138 206 138 202 118 c 1,68,69
 228 170 228 170 259.5 216.5 c 128,-1,70
 291 263 291 263 318 298 c 0,71,72
 350 339 350 339 381 375 c 1,73,74
 398 339 398 339 412 297 c 0,75,76
 424 261 424 261 435.5 214 c 128,-1,77
 447 167 447 167 449 113 c 1,0,1
EndSplineSet
EndChar
StartChar: uni0E1F
Encoding: 3615 3615 244
Width: 539
Flags: W
Fore
224 209 m 0,0,1
 219 184 219 184 212.5 161 c 128,-1,2
 206 138 206 138 202 118 c 1,3,4
 228 170 228 170 259.5 216.5 c 128,-1,5
 291 263 291 263 318 298 c 0,6,7
 350 339 350 339 381 375 c 1,8,9
 398 339 398 339 412 297 c 0,10,11
 424 261 424 261 435.5 214 c 128,-1,12
 447 167 447 167 449 113 c 1,13,14
 452 130 452 130 454 151 c 128,-1,15
 456 172 456 172 461 197 c 2,16,-1
 535 544 l 1,17,-1
 595 544 l 1,18,-1
 508 132 l 2,19,20
 500 98 500 98 493.5 63.5 c 128,-1,21
 487 29 487 29 485 14 c 0,22,23
 485 4 485 4 482.5 2 c 128,-1,24
 480 0 480 0 476 0 c 2,25,-1
 419 0 l 1,26,-1
 421 10 l 2,27,28
 424 22 424 22 422.5 41 c 128,-1,29
 421 60 421 60 417.5 82.5 c 128,-1,30
 414 105 414 105 408.5 129 c 128,-1,31
 403 153 403 153 397 177 c 0,32,33
 383 232 383 232 364 296 c 1,34,35
 317 232 317 232 278 177 c 0,36,37
 262 153 262 153 245.5 129 c 128,-1,38
 229 105 229 105 216 82.5 c 128,-1,39
 203 60 203 60 194 41 c 128,-1,40
 185 22 185 22 182 10 c 2,41,-1
 180 0 l 1,42,-1
 123 0 l 2,43,44
 119 0 119 0 117 2 c 128,-1,45
 115 4 115 4 118 14 c 0,46,47
 121 22 121 22 124 29 c 128,-1,48
 127 36 127 36 130.5 47.5 c 128,-1,49
 134 59 134 59 138.5 79 c 128,-1,50
 143 99 143 99 150 132 c 2,51,-1
 167 212 l 2,52,53
 175 250 175 250 190 277 c 128,-1,54
 205 304 205 304 210 326 c 0,55,56
 219 372 219 372 187 372 c 0,57,58
 170 372 170 372 157.5 361 c 128,-1,59
 145 350 145 350 142 335 c 0,60,61
 138 320 138 320 144 309 c 128,-1,62
 150 298 150 298 165 298 c 2,63,-1
 188 298 l 1,64,-1
 184 282 l 1,65,-1
 157 263 l 1,66,67
 128 263 128 263 113.5 284 c 128,-1,68
 99 305 99 305 106 335 c 0,69,70
 112 365 112 365 138 386 c 128,-1,71
 164 407 164 407 202 407 c 0,72,73
 237 407 237 407 252.5 386.5 c 128,-1,74
 268 366 268 366 260 328 c 0,75,76
 255 306 255 306 244 278.5 c 128,-1,77
 233 251 233 251 224 209 c 0,0,1
EndSplineSet
EndChar
StartChar: uni0E20
Encoding: 3616 3616 245
Width: 484
Flags: W
Fore
115 103 m 2,0,1
 100 103 100 103 91.5 92 c 128,-1,2
 83 81 83 81 80 66 c 0,3,4
 76 51 76 51 83 40 c 128,-1,5
 90 29 90 29 107 29 c 0,6,7
 122 29 122 29 134 40.5 c 128,-1,8
 146 52 146 52 151 75 c 0,9,10
 154 86 154 86 155 102 c 128,-1,11
 156 118 156 118 157 135.5 c 128,-1,12
 158 153 158 153 159 170 c 128,-1,13
 160 187 160 187 163 200 c 0,14,15
 167 219 167 219 173 235.5 c 128,-1,16
 179 252 179 252 198 268 c 1,17,18
 195 270 195 270 187.5 276 c 128,-1,19
 180 282 180 282 172.5 289.5 c 128,-1,20
 165 297 165 297 160 305 c 128,-1,21
 155 313 155 313 156 319 c 0,22,23
 158 328 158 328 174 343 c 128,-1,24
 190 358 190 358 215 372 c 128,-1,25
 240 386 240 386 272.5 396 c 128,-1,26
 305 406 305 406 341 406 c 0,27,28
 375 406 375 406 405 399 c 128,-1,29
 435 392 435 392 455.5 374 c 128,-1,30
 476 356 476 356 483.5 325.5 c 128,-1,31
 491 295 491 295 481 249 c 2,32,-1
 429 0 l 1,33,-1
 369 0 l 1,34,-1
 421 249 l 2,35,36
 429 288 429 288 426.5 310 c 128,-1,37
 424 332 424 332 412 343.5 c 128,-1,38
 400 355 400 355 379.5 358 c 128,-1,39
 359 361 359 361 331 361 c 0,40,41
 306 361 306 361 285.5 356.5 c 128,-1,42
 265 352 265 352 249.5 345.5 c 128,-1,43
 234 339 234 339 225.5 332.5 c 128,-1,44
 217 326 217 326 216 321 c 0,45,46
 215 318 215 318 217.5 312 c 128,-1,47
 220 306 220 306 224 300.5 c 128,-1,48
 228 295 228 295 232 290.5 c 128,-1,49
 236 286 236 286 239 286 c 0,50,51
 247 286 247 286 257.5 292.5 c 128,-1,52
 268 299 268 299 277 299 c 0,53,54
 280 299 280 299 283.5 292.5 c 128,-1,55
 287 286 287 286 289 278 c 128,-1,56
 291 270 291 270 291 263.5 c 128,-1,57
 291 257 291 257 287 257 c 0,58,59
 269 257 269 257 257.5 254.5 c 128,-1,60
 246 252 246 252 239.5 245 c 128,-1,61
 233 238 233 238 229 225.5 c 128,-1,62
 225 213 225 213 220 192 c 0,63,64
 217 175 217 175 215 161.5 c 128,-1,65
 213 148 213 148 211.5 134.5 c 128,-1,66
 210 121 210 121 207.5 106.5 c 128,-1,67
 205 92 205 92 201 73 c 0,68,69
 193 35 193 35 166 14.5 c 128,-1,70
 139 -6 139 -6 104 -6 c 256,71,72
 69 -6 69 -6 53 15 c 128,-1,73
 37 36 37 36 44 66 c 0,74,75
 50 96 50 96 72 116 c 128,-1,76
 94 136 94 136 122 136 c 1,77,-1
 142 119 l 1,78,-1
 138 103 l 1,79,-1
 115 103 l 2,0,1
EndSplineSet
EndChar
StartChar: uni0E21
Encoding: 3617 3617 246
Width: 476
Flags: W
Fore
196 282 m 1,0,-1
 169 264 l 1,1,2
 140 264 140 264 127 284.5 c 128,-1,3
 114 305 114 305 121 335 c 0,4,5
 124 350 124 350 133.5 363 c 128,-1,6
 143 376 143 376 155.5 386 c 128,-1,7
 168 396 168 396 183.5 401.5 c 128,-1,8
 199 407 199 407 214 407 c 0,9,10
 249 407 249 407 266 386.5 c 128,-1,11
 283 366 283 366 275 328 c 0,12,13
 270 306 270 306 259 280.5 c 128,-1,14
 248 255 248 255 240 213 c 2,15,-1
 233 179 l 1,16,17
 290 179 290 179 324 153.5 c 128,-1,18
 358 128 358 128 375 81 c 1,19,20
 377 93 377 93 380 110.5 c 128,-1,21
 383 128 383 128 386.5 146 c 128,-1,22
 390 164 390 164 393.5 181.5 c 128,-1,23
 397 199 397 199 399 211 c 2,24,-1
 440 400 l 1,25,-1
 500 400 l 1,26,-1
 462 222 l 2,27,28
 455 189 455 189 448 155 c 128,-1,29
 441 121 441 121 435.5 92.5 c 128,-1,30
 430 64 430 64 426 43 c 128,-1,31
 422 22 422 22 422 14 c 0,32,33
 422 4 422 4 419.5 2 c 128,-1,34
 417 0 417 0 413 0 c 2,35,-1
 354 0 l 1,36,37
 352 66 352 66 319 100 c 128,-1,38
 286 134 286 134 225 139 c 1,39,-1
 218 99 l 2,40,41
 214 79 214 79 206.5 61 c 128,-1,42
 199 43 199 43 187.5 29 c 128,-1,43
 176 15 176 15 160 6.5 c 128,-1,44
 144 -2 144 -2 121 -2 c 0,45,46
 91 -2 91 -2 78.5 18 c 128,-1,47
 66 38 66 38 74 79 c 0,48,49
 84 124 84 124 113.5 147 c 128,-1,50
 143 170 143 170 175 176 c 1,51,52
 177 189 177 189 178.5 198 c 128,-1,53
 180 207 180 207 182 216 c 0,54,55
 186 235 186 235 192.5 250.5 c 128,-1,56
 199 266 199 266 205.5 279 c 128,-1,57
 212 292 212 292 217.5 303.5 c 128,-1,58
 223 315 223 315 225 326 c 0,59,60
 234 372 234 372 202 372 c 0,61,62
 185 372 185 372 172.5 361 c 128,-1,63
 160 350 160 350 157 335 c 0,64,65
 153 320 153 320 158 309 c 128,-1,66
 163 298 163 298 178 298 c 2,67,-1
 200 298 l 1,68,-1
 196 282 l 1,0,-1
162 96 m 0,69,70
 164 103 164 103 164.5 111.5 c 128,-1,71
 165 120 165 120 168 137 c 1,72,73
 149 132 149 132 133 121.5 c 128,-1,74
 117 111 117 111 111 81 c 0,75,76
 106 59 106 59 112 46.5 c 128,-1,77
 118 34 118 34 129 34 c 0,78,79
 138 34 138 34 143.5 39 c 128,-1,80
 149 44 149 44 152 52.5 c 128,-1,81
 155 61 155 61 157 72.5 c 128,-1,82
 159 84 159 84 162 96 c 0,69,70
EndSplineSet
EndChar
StartChar: uni0E22
Encoding: 3618 3618 247
Width: 449
Flags: W
Fore
91 136 m 2,0,1
 99 171 99 171 115.5 187.5 c 128,-1,2
 132 204 132 204 144 211 c 1,3,4
 138 215 138 215 131 223 c 128,-1,5
 124 231 124 231 119 243 c 128,-1,6
 114 255 114 255 112.5 271.5 c 128,-1,7
 111 288 111 288 115 310 c 0,8,9
 119 328 119 328 129 345.5 c 128,-1,10
 139 363 139 363 154 376.5 c 128,-1,11
 169 390 169 390 188.5 398.5 c 128,-1,12
 208 407 208 407 231 407 c 0,13,14
 261 407 261 407 279 388 c 128,-1,15
 297 369 297 369 291 339 c 0,16,17
 284 310 284 310 262 292 c 128,-1,18
 240 274 240 274 210 274 c 1,19,-1
 184 291 l 1,20,-1
 188 309 l 1,21,-1
 217 309 l 2,22,23
 233 309 233 309 242 318 c 128,-1,24
 251 327 251 327 253 338 c 0,25,26
 256 352 256 352 250.5 361 c 128,-1,27
 245 370 245 370 231 370 c 0,28,29
 205 370 205 370 192 353 c 128,-1,30
 179 336 179 336 173 310 c 0,31,32
 167 281 167 281 173 263.5 c 128,-1,33
 179 246 179 246 194.5 236 c 128,-1,34
 210 226 210 226 233 223 c 128,-1,35
 256 220 256 220 283 220 c 0,36,37
 287 220 287 220 283.5 212.5 c 128,-1,38
 280 205 280 205 273.5 196 c 128,-1,39
 267 187 267 187 260 179.5 c 128,-1,40
 253 172 253 172 251 172 c 0,41,42
 247 172 247 172 238.5 174.5 c 128,-1,43
 230 177 230 177 220.5 179.5 c 128,-1,44
 211 182 211 182 202 184.5 c 128,-1,45
 193 187 193 187 186 187 c 0,46,47
 177 187 177 187 165.5 173 c 128,-1,48
 154 159 154 159 149 135 c 2,49,-1
 145 116 l 2,50,51
 140 92 140 92 141 84.5 c 128,-1,52
 142 77 142 77 149 66 c 0,53,54
 158 52 158 52 181.5 45.5 c 128,-1,55
 205 39 205 39 236 39 c 256,56,57
 267 39 267 39 292.5 45.5 c 128,-1,58
 318 52 318 52 335 66 c 0,59,60
 345 75 345 75 350 87 c 128,-1,61
 355 99 355 99 358.5 114.5 c 128,-1,62
 362 130 362 130 365 150 c 128,-1,63
 368 170 368 170 374 197 c 2,64,-1
 418 400 l 1,65,-1
 478 400 l 1,66,-1
 434 197 l 2,67,68
 428 166 428 166 423 141.5 c 128,-1,69
 418 117 418 117 412.5 97.5 c 128,-1,70
 407 78 407 78 399 62.5 c 128,-1,71
 391 47 391 47 378 35 c 0,72,73
 363 22 363 22 342.5 13.5 c 128,-1,74
 322 5 322 5 300.5 1 c 128,-1,75
 279 -3 279 -3 259.5 -4.5 c 128,-1,76
 240 -6 240 -6 226 -6 c 0,77,78
 213 -6 213 -6 193.5 -4.5 c 128,-1,79
 174 -3 174 -3 154.5 1 c 128,-1,80
 135 5 135 5 118 13.5 c 128,-1,81
 101 22 101 22 92 35 c 0,82,83
 81 51 81 51 81 68.5 c 128,-1,84
 81 86 81 86 87 117 c 2,85,-1
 91 136 l 2,0,1
EndSplineSet
EndChar
StartChar: uni0E23
Encoding: 3619 3619 248
Width: 370
Flags: W
Fore
235 97 m 2,0,1
 205 97 205 97 197 64 c 0,2,3
 191 34 191 34 225 34 c 0,4,5
 246 34 246 34 257.5 52 c 128,-1,6
 269 70 269 70 274 93 c 2,7,-1
 289 160 l 2,8,9
 294 183 294 183 284 195.5 c 128,-1,10
 274 208 274 208 255.5 214.5 c 128,-1,11
 237 221 237 221 213.5 223.5 c 128,-1,12
 190 226 190 226 168 227.5 c 128,-1,13
 146 229 146 229 128.5 231.5 c 128,-1,14
 111 234 111 234 104 241 c 0,15,16
 93 252 93 252 91.5 269 c 128,-1,17
 90 286 90 286 95 306 c 0,18,19
 103 347 103 347 133.5 373.5 c 128,-1,20
 164 400 164 400 203 400 c 0,21,22
 210 400 210 400 222 398.5 c 128,-1,23
 234 397 234 397 248.5 394.5 c 128,-1,24
 263 392 263 392 278.5 390.5 c 128,-1,25
 294 389 294 389 308 389 c 0,26,27
 326 389 326 389 343.5 392 c 128,-1,28
 361 395 361 395 375 399 c 0,29,30
 392 403 392 403 406 409 c 1,31,32
 408 403 408 403 409 395 c 0,33,34
 410 388 410 388 409.5 378.5 c 128,-1,35
 409 369 409 369 407 358 c 0,36,37
 406 352 406 352 395 348 c 0,38,39
 376 341 376 341 355.5 339.5 c 128,-1,40
 335 338 335 338 306 338 c 0,41,42
 283 338 283 338 253.5 344.5 c 128,-1,43
 224 351 224 351 202 351 c 256,44,45
 180 351 180 351 169 340.5 c 128,-1,46
 158 330 158 330 153 307 c 0,47,48
 148 285 148 285 159 280 c 0,49,50
 166 276 166 276 185 275.5 c 128,-1,51
 204 275 204 275 227.5 273 c 128,-1,52
 251 271 251 271 275.5 266 c 128,-1,53
 300 261 300 261 319 249.5 c 128,-1,54
 338 238 338 238 347.5 218 c 128,-1,55
 357 198 357 198 350 165 c 2,56,-1
 334 90 l 2,57,58
 325 50 325 50 294 22 c 128,-1,59
 263 -6 263 -6 221 -6 c 0,60,61
 180 -6 180 -6 166.5 14.5 c 128,-1,62
 153 35 153 35 159 64 c 256,63,64
 165 93 165 93 185.5 110 c 128,-1,65
 206 127 206 127 241 127 c 1,66,-1
 266 113 l 1,67,-1
 262 97 l 1,68,-1
 235 97 l 2,0,1
EndSplineSet
EndChar
